<svg width="605" height="460" viewBox="0 0 605 460" fill="none" xmlns="http://www.w3.org/2000/svg">
<path d="M245.704 394.963C241.242 394.476 236.779 393.988 232.564 393.527C232.068 393.473 231.356 393.18 230.86 393.126C224.91 392.475 219.056 391.189 212.953 389.875C185.601 384.084 160.721 373.607 138.185 359.291C113.546 343.884 92.9544 325.039 75.5067 303.737C60.8017 285.967 49.3602 266.614 41.6781 245.733C32.9249 221.933 29.8184 197.457 30.5911 172.328C30.5758 169.094 30.8084 165.886 31.0409 162.679C31.8738 157.167 32.7387 151.443 33.5716 145.931C33.9156 145.322 34.0117 144.686 34.0758 144.262C34.4282 141.93 35.0605 139.413 35.4129 137.081C38.5189 123.198 43.5443 109.955 49.7774 97.0592C58.4187 79.9014 70.4587 65.2701 87.1371 53.3008C105.775 40.0371 126.996 31.3658 151.231 27.7649C166.684 25.5748 182.28 25.7709 197.772 28.3261C210.288 30.5561 222.053 34.4279 233.161 39.3056C251.851 47.3824 268.733 57.4166 285.551 67.8749C296.155 74.4214 306.856 80.332 319.708 83.6762C333.768 87.3679 347.668 92.1196 362.136 94.7785C375.148 97.0627 388.353 98.0749 401.726 96.3039C418.946 94.0915 436.31 94.2652 453.474 97.4341C469.429 100.256 484.257 105.54 497.924 113.499C514.158 122.815 527.529 134.405 538.563 148.111C548.767 160.647 554.994 174.474 557.215 189.802C559.196 203.379 557.458 216.551 553.424 229.902C545.989 254.088 533.571 276.22 515.956 296.061C503.796 309.817 489.845 322.084 474.534 333.341C455.8 347.241 435.338 359.228 412.966 368.851C387.146 379.605 360.039 387.202 331.677 391.43C306.138 395.319 280.488 396.61 254.694 395.515C251.687 395.402 248.776 394.653 245.704 394.963Z" fill="url(#paint0_linear_8_8)"/>
<path d="M25.41 102.246C25.41 102.246 67.2825 64.397 216.374 88.7657C365.466 113.134 416.221 -9.74646 546.914 0.622819C677.607 10.9921 546.914 460 546.914 460H25.41V102.246Z" fill="url(#paint1_linear_8_8)"/>
<defs>
<linearGradient id="paint0_linear_8_8" x1="-135.576" y1="322.349" x2="647.697" y2="139.232" gradientUnits="userSpaceOnUse">
<stop offset="0.166667" stop-color="#4DDCCA"/>
<stop offset="0.739583" stop-color="#FFB3DC"/>
</linearGradient>
<linearGradient id="paint1_linear_8_8" x1="172.632" y1="-40.9322" x2="248.551" y2="476.157" gradientUnits="userSpaceOnUse">
<stop stop-color="#8D43F0"/>
<stop offset="0.192708" stop-color="#7C6BE6"/>
<stop offset="0.390625" stop-color="#689BDA"/>
<stop offset="0.572917" stop-color="#5BBAD2"/>
<stop offset="0.791667" stop-color="#4DDCCA"/>
<stop offset="1" stop-color="#6DEBDB"/>
</linearGradient>
</defs>
</svg>
