<svg width="88" height="88" viewBox="0 0 88 88" fill="none" xmlns="http://www.w3.org/2000/svg">
<g filter="url(#filter0_d_39_2523)">
<path d="M44.029 33.0764C39.8691 33.0764 36.4945 36.4509 36.4945 40.6109C36.4945 44.7709 39.8691 48.1454 44.029 48.1454C48.0145 48.1454 51.3309 44.8582 51.5636 40.6109V40.5818C51.5345 36.4218 48.189 33.0764 44.029 33.0764Z" fill="white"/>
<path d="M62.2691 34.1818C62.24 33.3382 62.1818 32.6691 62.1818 31.7382C62.2109 30.4582 62.0073 29.2073 61.6582 28.0146L61.5418 27.5491C61.1927 26.56 60.6109 25.6873 59.8545 24.96L59.7091 24.8146C59.04 23.9709 58.1382 23.5346 57.44 23.1564V23.1273L57.3527 23.0982L56.8873 22.9818C55.6945 22.6327 54.4727 22.4291 53.2218 22.4582C50.8654 22.2255 50.0509 22.2255 45.1927 22.2255H43.1564C38.3273 22.2255 37.5127 22.2255 35.3018 22.4291C34.0218 22.4291 32.7127 22.6036 31.4909 22.9818L31.0254 23.1273L30.9382 23.1564V23.1855C30.2109 23.5346 29.3091 24 28.6691 24.8436L28.5236 24.9891C27.7673 25.7164 27.1854 26.5891 26.8364 27.5782L26.72 28.0436C26.3418 29.2655 26.1673 30.5164 26.1964 31.7673C26.1964 32.6982 26.1673 33.3382 26.1091 34.2109L26.08 34.9964C26.0218 36.1891 25.9636 37.8182 25.9636 40.8727C25.9636 46.7491 25.9636 47.5055 26.1673 49.8618C26.1382 51.1418 26.3418 52.4218 26.6909 53.6727L26.8364 54.1382C27.6509 56.1455 29.2509 57.7455 31.2582 58.56L31.7236 58.6764C32.9454 59.0546 34.1964 59.2291 35.4473 59.2C36.3782 59.2 37.0182 59.2291 37.8618 59.2873L38.6473 59.3164C39.7818 59.3746 41.3527 59.4327 44.1454 59.4327C47.0254 59.4327 48.5964 59.3746 49.7309 59.3164L50.5164 59.2873C51.3891 59.2291 52.0291 59.2 52.96 59.2C54.24 59.2 55.4909 59.0255 56.7127 58.6764L57.1782 58.56C59.1854 57.7164 60.7854 56.1455 61.6 54.1382L61.7454 53.6727C62.0945 52.48 62.2982 51.2582 62.2691 50.0364C62.5018 47.5055 62.5018 46.7491 62.5018 40.9891C62.5018 37.8473 62.4436 36.2182 62.3854 35.0255L62.2691 34.1818ZM44.0291 52.1018C37.6873 52.1018 32.5091 46.9527 32.5091 40.5818C32.5091 34.2109 37.6582 29.0618 44.0291 29.0618C50.2545 29.0618 55.5491 34.3564 55.5491 40.5818C55.5491 46.9527 50.3709 52.1018 44.0291 52.1018ZM57.8182 30.6618C56.7418 31.7091 55.0254 31.68 54.0073 30.6036C52.96 29.5273 52.9891 27.8109 54.0654 26.7927C55.1418 25.8036 56.8291 25.8327 57.8764 26.8509C58.3418 27.3455 58.6327 28.0146 58.6327 28.6836C58.6327 29.4109 58.3418 30.1382 57.8182 30.6618Z" fill="white"/>
<path d="M44 0C21.92 0 4 17.92 4 40C4 62.08 21.92 80 44 80C66.08 80 84 62.08 84 40C84 17.92 66.08 0 44 0ZM66.8364 43.6655C66.8364 47.1855 66.8073 48.0873 66.6327 50.0073H66.6036C66.5455 50.6473 66.4873 51.2291 66.4291 51.7527H66.5455C66.5164 52.1309 66.4582 52.4509 66.4 52.7709L66.2836 52.7418C66.1673 53.6727 65.9055 54.5455 65.5273 55.3891C64.9455 56.9018 64.0436 58.24 62.88 59.3745C62.5891 59.6655 62.2982 59.9273 62.0364 60.16L62.1527 60.3055C61.2509 61.0909 60.2327 61.7018 59.1273 62.1673L58.6909 62.2836C58.3709 62.3418 58.08 62.4 57.76 62.4582C56.48 62.8945 55.1127 63.0982 53.7745 63.0982H53.6873H53.4545C53.3964 63.0982 53.3673 63.0982 53.3091 63.0982C50.8945 63.3309 50.2255 63.3309 44.2327 63.3309H44C38.0364 63.3309 37.3382 63.3309 34.9527 63.0982H34.7782H34.6618C33.2655 63.0982 31.8691 62.8945 30.5309 62.4582C30.2109 62.4 29.8909 62.3418 29.6 62.2836L29.1636 62.1382C28.0582 61.6727 27.04 61.0618 26.1382 60.2764L26.2545 60.1309C25.9927 59.8982 25.7018 59.6364 25.4109 59.3455C24.2473 58.2109 23.3455 56.8727 22.7636 55.36C22.3855 54.5164 22.1236 53.6145 22.0073 52.7127L21.8909 52.7418C21.8327 52.4218 21.7745 52.0727 21.7455 51.6945H21.8618C21.8036 51.1709 21.7455 50.5891 21.6873 49.9491H21.6582C21.4836 48 21.4545 47.1564 21.4545 43.6073H21.4836C21.4545 42.7636 21.4545 41.7745 21.4545 40.5527C21.4545 34.3564 21.4545 33.6873 21.6873 31.2727C21.6873 30.8364 21.7164 30.4873 21.7455 30.1091C21.7455 30.08 21.7455 30.0509 21.7455 30.0218C21.8036 29.2945 21.8909 28.5964 22.0655 27.8982C22.2109 27.2873 22.3564 26.7055 22.5309 26.0655L22.6182 25.8909C23.2 24.4364 24.1018 23.1273 25.2073 22.0218C25.2655 21.9636 25.2945 21.9345 25.3527 21.9055C25.4109 21.8764 25.4109 21.8473 25.44 21.7891C26.5745 20.6255 27.9127 19.7236 29.4255 19.1418C30.6473 18.5309 32.1891 18.2982 34.7782 18.0364H34.9527H35.1273C37.3091 18.24 38.3273 18.24 43.1273 18.24H45.0473C49.9345 18.24 50.9818 18.24 53.1345 18.0364H53.3091H53.4836C56.0727 18.2691 57.6145 18.5018 58.8364 19.1418C60.3491 19.7236 61.6873 20.6545 62.8218 21.7891C62.8509 21.8182 62.8509 21.8473 62.9091 21.8764C62.9673 21.9345 62.9964 21.9636 63.0545 21.9927C64.1891 23.0982 65.0909 24.4073 65.6727 25.8618L65.76 26.0945C65.9055 26.6473 66.08 27.2582 66.2255 27.9564C66.4 28.6545 66.4873 29.3527 66.5455 30.0509C66.5455 30.08 66.5455 30.1091 66.5455 30.1382C66.5745 30.5164 66.6036 30.8655 66.6036 31.2727C66.8364 33.7164 66.8364 34.3855 66.8364 40.5818C66.8364 41.8327 66.8073 42.8218 66.8364 43.6655Z" fill="white"/>
</g>
<defs>
<filter id="filter0_d_39_2523" x="0" y="0" width="88" height="88" filterUnits="userSpaceOnUse" color-interpolation-filters="sRGB">
<feFlood flood-opacity="0" result="BackgroundImageFix"/>
<feColorMatrix in="SourceAlpha" type="matrix" values="0 0 0 0 0 0 0 0 0 0 0 0 0 0 0 0 0 0 127 0" result="hardAlpha"/>
<feOffset dy="4"/>
<feGaussianBlur stdDeviation="2"/>
<feComposite in2="hardAlpha" operator="out"/>
<feColorMatrix type="matrix" values="0 0 0 0 0 0 0 0 0 0 0 0 0 0 0 0 0 0 0.25 0"/>
<feBlend mode="normal" in2="BackgroundImageFix" result="effect1_dropShadow_39_2523"/>
<feBlend mode="normal" in="SourceGraphic" in2="effect1_dropShadow_39_2523" result="shape"/>
</filter>
</defs>
</svg>
