<svg width="88" height="83" viewBox="0 0 88 83" fill="none" xmlns="http://www.w3.org/2000/svg">
<g filter="url(#filter0_d_39_2522)">
<path d="M44 0C21.92 0 4 16.8 4 37.5C4 58.2 21.92 75 44 75C66.08 75 84 58.2 84 37.5C84 16.8 66.08 0 44 0ZM34.8655 52.8545C34.8655 53.8636 34.4582 54.3 33.3527 54.2455C31.6073 54.1909 29.8618 54.2455 28.1164 54.2455C26.4291 54.2455 26.3709 54.1636 26.3709 52.6364C26.3418 49.0364 26.3418 45.4364 26.3418 41.8364C26.3418 38.2909 26.3709 34.7182 26.3127 31.1727C26.2836 30 26.7491 29.6455 27.9418 29.6727C29.7745 29.7545 31.6073 29.7 33.44 29.6727C34.4 29.6455 34.8655 29.9455 34.8364 30.9C34.8364 38.2636 34.8364 45.5727 34.8655 52.8545ZM35.3891 22.2273C35.36 24.6818 33.2655 26.7 30.6182 26.7273C28 26.7818 25.8473 24.8182 25.8182 22.3909C25.8182 22.3636 25.8182 22.3364 25.8182 22.2818C25.7891 19.6636 27.7964 17.7273 30.6182 17.7273C33.2364 17.7273 35.3891 19.7455 35.3891 22.2273C35.3891 22.2 35.3891 22.2 35.3891 22.2273ZM63.4036 54.2727C61.4836 54.2182 59.5636 54.2455 57.6436 54.2455C56.8582 54.2455 56.5091 53.9727 56.4218 53.2091C56.2473 51.6818 56.3636 50.1818 56.4218 48.6545C56.5673 45.7364 56.5091 42.8182 56.2182 39.9273C55.9564 37.3909 54.9382 36.3 52.7855 36.2182C49.8473 36.1364 48.3927 37.1182 48.0436 39.7636C47.6655 42.4909 47.8691 45.2727 47.8691 48.0273C47.8691 49.6091 47.84 51.2182 47.8691 52.8273C47.8982 53.8091 47.52 54.2727 46.3564 54.2455C44.4364 54.1909 42.5164 54.2182 40.5964 54.2455C39.6655 54.2727 39.3164 53.8909 39.3164 53.0182C39.3455 45.6818 39.3455 38.3182 39.3164 30.9818C39.3164 30.0545 39.6655 29.6727 40.6545 29.7C42.3709 29.7273 44.0582 29.7 45.7745 29.7C47.4909 29.7 47.4909 29.7273 47.5491 31.2818C47.5782 31.5273 47.6073 31.7455 47.6655 32.2636C48.2182 31.7727 48.5964 31.4455 48.9745 31.1182C53.0182 27.7364 60.4945 28.6364 63.1418 32.8636C64.3055 34.7455 64.6545 36.8727 64.6836 38.9727C64.7709 43.6091 64.7127 48.2454 64.7418 52.8818C64.8 53.8636 64.4509 54.3 63.4036 54.2727Z" fill="white"/>
</g>
<defs>
<filter id="filter0_d_39_2522" x="0" y="0" width="88" height="83" filterUnits="userSpaceOnUse" color-interpolation-filters="sRGB">
<feFlood flood-opacity="0" result="BackgroundImageFix"/>
<feColorMatrix in="SourceAlpha" type="matrix" values="0 0 0 0 0 0 0 0 0 0 0 0 0 0 0 0 0 0 127 0" result="hardAlpha"/>
<feOffset dy="4"/>
<feGaussianBlur stdDeviation="2"/>
<feComposite in2="hardAlpha" operator="out"/>
<feColorMatrix type="matrix" values="0 0 0 0 0 0 0 0 0 0 0 0 0 0 0 0 0 0 0.25 0"/>
<feBlend mode="normal" in2="BackgroundImageFix" result="effect1_dropShadow_39_2522"/>
<feBlend mode="normal" in="SourceGraphic" in2="effect1_dropShadow_39_2522" result="shape"/>
</filter>
</defs>
</svg>
