<svg width="443" height="305" viewBox="0 0 443 305" fill="none" xmlns="http://www.w3.org/2000/svg">
<path d="M40.0777 206.171C40.7178 205.719 41.358 205.267 41.9626 204.84C42.0337 204.79 42.1657 204.75 42.2368 204.7C43.0904 204.097 44.0196 203.602 44.9845 203.081C49.296 200.734 53.9392 199.384 58.8131 198.89C64.1081 198.312 69.3597 198.73 74.5483 199.889C78.8958 200.838 83.0438 202.41 86.9211 204.656C91.34 207.215 95.128 210.542 98.5087 214.424C98.9586 214.91 99.3728 215.422 99.7871 215.933C100.444 216.863 101.125 217.828 101.782 218.758C101.822 218.89 101.898 218.997 101.948 219.069C102.226 219.462 102.493 219.916 102.771 220.31C104.295 222.77 105.484 225.36 106.47 228.039C107.737 231.646 108.219 235.271 107.736 239.041C107.181 243.237 105.659 247.044 103.049 250.442C101.369 252.592 99.3408 254.4 96.9993 255.839C95.0845 256.976 93.0389 257.778 90.9381 258.35C87.4216 259.333 83.8659 259.807 80.2598 260.21C77.9927 260.471 75.8012 260.84 73.6891 261.849C71.3739 262.948 68.9324 263.868 66.7078 265.171C64.7219 266.359 62.8875 267.761 61.4168 269.604C59.5137 271.965 57.2617 273.984 54.6207 275.528C52.1828 276.981 49.5486 277.93 46.6928 278.339C43.3196 278.845 39.9991 278.672 36.6854 277.904C33.6402 277.214 30.9264 275.861 28.5189 273.81C26.3846 271.995 24.7836 269.804 23.4523 267.314C21.0571 262.79 19.5854 257.988 19.0982 252.92C18.7534 249.413 18.8447 245.919 19.2503 242.418C19.7293 238.114 20.6947 233.896 22.2328 229.81C24.0564 225.146 26.4824 220.807 29.5361 216.829C32.2743 213.235 35.3867 210.019 38.8478 207.147C39.2494 206.809 39.7266 206.58 40.0777 206.171Z" fill="#FFB3DC"/>
<path d="M355.397 275.445C354.771 274.974 354.145 274.502 353.554 274.057C353.484 274.005 353.406 273.892 353.336 273.839C352.502 273.211 351.746 272.478 350.955 271.718C347.401 268.332 344.696 264.324 342.735 259.834C340.565 254.97 339.357 249.842 338.873 244.548C338.447 240.118 338.675 235.688 339.627 231.31C340.712 226.32 342.721 221.696 345.383 217.29C345.708 216.713 346.068 216.162 346.428 215.611C347.113 214.702 347.823 213.758 348.508 212.848C348.621 212.77 348.7 212.665 348.753 212.595C349.043 212.21 349.393 211.816 349.683 211.432C351.559 209.228 353.661 207.304 355.911 205.546C358.956 203.236 362.261 201.669 365.998 200.975C370.162 200.22 374.253 200.504 378.286 201.951C380.847 202.892 383.188 204.271 385.274 206.06C386.943 207.535 388.332 209.237 389.519 211.062C391.53 214.11 393.07 217.35 394.556 220.66C395.499 222.738 396.52 224.712 398.126 226.414C399.881 228.283 401.504 230.326 403.425 232.045C405.163 233.572 407.059 234.89 409.263 235.727C412.094 236.816 414.705 238.343 416.982 240.385C419.111 242.262 420.821 244.479 422.083 247.073C423.597 250.13 424.447 253.344 424.73 256.734C425.004 259.844 424.547 262.842 423.331 265.761C422.255 268.348 420.658 270.543 418.695 272.572C415.12 276.236 410.999 279.106 406.323 281.12C403.089 282.521 399.735 283.503 396.277 284.187C392.034 285.048 387.722 285.419 383.361 285.204C378.363 284.895 373.491 283.912 368.769 282.221C364.509 280.714 360.496 278.734 356.702 276.317C356.259 276.038 355.894 275.654 355.397 275.445Z" fill="url(#paint0_linear_544_13877)"/>
<path d="M360.995 96.1672C360.143 95.8711 359.29 95.575 358.486 95.2954C358.391 95.2625 358.266 95.1656 358.171 95.1327C357.035 94.7379 355.948 94.2004 354.814 93.6464C349.727 91.1855 345.352 87.745 341.623 83.5154C337.533 78.9474 334.404 73.753 332.01 68.1208C329.984 63.4163 328.675 58.4809 328.177 53.3474C327.611 47.4964 328.185 41.7218 329.552 35.956C329.705 35.2092 329.906 34.4788 330.106 33.7484C330.536 32.511 330.983 31.226 331.413 29.9885C331.51 29.8622 331.559 29.7194 331.592 29.6242C331.774 29.1007 332.02 28.546 332.202 28.0225C333.483 24.9471 335.109 22.0984 336.956 19.3796C339.481 15.7765 342.551 12.896 346.402 10.8205C350.701 8.5269 355.284 7.39903 360.213 7.56494C363.351 7.69514 366.402 8.38178 369.318 9.6084C371.666 10.6376 373.788 12.0147 375.731 13.5969C379.008 16.2289 381.835 19.2382 384.63 22.3427C386.394 24.2892 388.208 26.0929 390.568 27.393C393.148 28.8229 395.646 30.4908 398.356 31.6992C400.799 32.7614 403.341 33.5379 406.05 33.6793C409.536 33.8771 412.935 34.6313 416.149 36.0682C419.144 37.3753 421.798 39.2042 424.094 41.6025C426.829 44.4196 428.892 47.6434 430.395 51.2592C431.791 54.5712 432.344 58.0172 432.039 61.6448C431.771 64.8588 430.793 67.8261 429.356 70.7405C426.727 76.0147 423.221 80.6103 418.805 84.4633C415.754 87.1369 412.423 89.3934 408.874 91.3609C404.526 93.7972 399.932 95.7212 395.077 97.0213C389.49 98.4407 383.804 99.0786 378.035 98.8875C372.836 98.7345 367.74 97.9775 362.732 96.6641C362.147 96.5143 361.612 96.2218 360.995 96.1672Z" fill="url(#paint1_linear_544_13877)"/>
<path d="M176.029 133.282C175.685 134.116 175.341 134.949 175.015 135.737C174.977 135.83 174.873 135.949 174.835 136.042C174.376 137.154 173.777 138.208 173.159 139.308C170.411 144.246 166.726 148.417 162.29 151.899C157.496 155.721 152.131 158.548 146.371 160.615C141.559 162.369 136.557 163.394 131.403 163.597C125.529 163.828 119.797 162.925 114.119 161.231C113.382 161.035 112.664 160.793 111.946 160.551C110.736 160.051 109.478 159.531 108.267 159.031C108.147 158.927 108.007 158.87 107.914 158.831C107.402 158.62 106.862 158.343 106.35 158.131C103.353 156.677 100.602 154.89 97.9928 152.891C94.5399 150.164 91.8397 146.934 89.9878 142.97C87.9437 138.548 87.0797 133.908 87.5272 128.996C87.8367 125.87 88.6966 122.864 90.088 120.023C91.2498 117.737 92.7459 115.698 94.4366 113.848C97.2517 110.727 100.418 108.077 103.677 105.464C105.721 103.815 107.626 102.107 109.058 99.8249C110.634 97.3306 112.442 94.9325 113.803 92.2957C115.003 89.9177 115.924 87.4242 116.22 84.7271C116.617 81.2582 117.564 77.9082 119.182 74.7811C120.658 71.8664 122.636 69.3215 125.162 67.1655C128.131 64.5961 131.467 62.7208 135.163 61.4275C138.549 60.2234 142.021 59.8679 145.626 60.3803C148.819 60.8315 151.725 61.9775 154.553 63.5789C159.668 66.5045 164.056 70.2683 167.65 74.8972C170.145 78.0962 172.207 81.5504 173.968 85.2056C176.152 89.6859 177.81 94.3829 178.831 99.3045C179.928 104.963 180.24 110.676 179.719 116.425C179.269 121.607 178.222 126.651 176.625 131.576C176.442 132.151 176.119 132.668 176.029 133.282Z" fill="url(#paint2_linear_544_13877)"/>
<defs>
<linearGradient id="paint0_linear_544_13877" x1="331.824" y1="218.915" x2="424.014" y2="291.908" gradientUnits="userSpaceOnUse">
<stop stop-color="#F0922E"/>
<stop offset="0.546875" stop-color="#ED7576"/>
<stop offset="1" stop-color="#C9AECF"/>
</linearGradient>
<linearGradient id="paint1_linear_544_13877" x1="312.21" y1="56.4801" x2="430.264" y2="69.0687" gradientUnits="userSpaceOnUse">
<stop stop-color="#8D43F0"/>
<stop offset="0.192708" stop-color="#7C6BE6"/>
<stop offset="0.390625" stop-color="#689BDA"/>
<stop offset="0.572917" stop-color="#5BBAD2"/>
<stop offset="0.791667" stop-color="#4DDCCA"/>
<stop offset="1" stop-color="#6DEBDB"/>
</linearGradient>
<linearGradient id="paint2_linear_544_13877" x1="119.845" y1="175.87" x2="174.564" y2="52.07" gradientUnits="userSpaceOnUse">
<stop stop-color="#F0922E"/>
<stop offset="0.546875" stop-color="#ED7576"/>
<stop offset="1" stop-color="#C9AECF"/>
</linearGradient>
</defs>
</svg>
