<svg id="Capa_1" data-name="Capa 1" xmlns="http://www.w3.org/2000/svg" viewBox="0 0 300 300"><defs><style>.cls-1{fill:#25D366;}.cls-2{fill:#fff;}</style></defs><title>REDES-WSP-2</title><circle class="cls-1" cx="150.5" cy="150.5" r="137.5"/><path class="cls-2" d="M151.94,227.45a78.83,78.83,0,0,1-36.33-8.72,9.18,9.18,0,0,0-4.36-.73c-13.08,4.36-25.43,8-38.51,12.35-.72,0-2.18,1.46-2.9,0,.72,0,.72-.72,1.45-1.45,4.36-12.35,8-24.7,12.35-36.33.73-1.45.73-2.9-.72-5.08-5.82-10.9-9.45-21.8-9.45-34.15C72,130.09,80,110.47,96,93.76c13.08-13.08,28.34-21.07,46.5-23.25a80.14,80.14,0,0,1,85,53.77c11.62,37.05-5.09,77.74-40.69,94.45A59.62,59.62,0,0,1,151.94,227.45Zm-61-16c1.45,0,2.18-.72,2.9-.72l19.62-6.54a3.42,3.42,0,0,1,4.36.72q20.7,13.08,45.77,8.72c35.6-5.81,61-41.41,53.77-77-7.27-34.88-39.24-57.4-74.84-52.31-31.24,4.36-55.94,32-55.94,63.93a67,67,0,0,0,10.9,37.06c1.45,2.18,1.45,3.63.72,6.54C95.27,197.66,93.09,204.92,90.91,211.46Z"/><path class="cls-2" d="M125.68,114.2c3.63-.72,5.81,1.46,6.54,4.36a88.34,88.34,0,0,0,5.09,12.36c1.45,2.9.72,5.08-.73,7.26l-2.18,2.18c-3.63,3.63-3.63,3.63-.73,8,5.82,8.72,13.81,16,24,19.62,2.18.73,3.64.73,5.09-.72,1.45-2.18,3.63-4.36,5.09-6.54,1.45-1.46,2.9-2.18,4.36-1.46,5.08,2.18,10.9,5.09,16,7.27,2.18.73,2.18,2.91,1.45,5.09-.72,8-4.36,11.62-13.8,14.53-3.63,1.45-7.27.73-10.9,0-24.71-5.81-42.15-21.8-52.32-44.32-2.91-8-2.18-16,3.63-23.26C118.41,114.93,121.32,113.48,125.68,114.2Z"/></svg>