<?xml version="1.0" encoding="utf-8"?>
<!-- Generator: Adobe Illustrator 26.0.3, SVG Export Plug-In . SVG Version: 6.00 Build 0)  -->
<svg version="1.1" id="Capa_1" xmlns="http://www.w3.org/2000/svg" xmlns:xlink="http://www.w3.org/1999/xlink" x="0px" y="0px"
	 viewBox="0 0 24 24" style="enable-background:new 0 0 24 24;" xml:space="preserve">
<style type="text/css">
	.st0{fill:#FFD104;}
</style>
<path class="st0" d="M9.9,2.9C13,2.9,15.1,3.6,17,5c0.1,0.1,0.2,0.3,0.4,0.2c0.1-0.1,0.1-0.3,0-0.4c-0.1-0.9,0.2-1.5,0.9-2.1
	c0.8-0.7,1.5-1.5,2.2-2.3C20.8,0.1,21,0,21.4,0.1s0.5,0.5,0.5,0.8c0,0.2,0,0.4,0,0.6C21.8,1.9,22,2,22.4,2c0.3,0,0.6,0,0.9,0
	s0.5,0.2,0.7,0.5c0.1,0.3,0,0.6-0.2,0.8c-1,1-2,2-3.1,3.1c-0.2,0.2-0.5,0.2-0.7,0.2c-0.3,0-0.6,0-1,0c-0.1,0-0.2,0-0.2,0.1
	s0,0.2,0.1,0.2c0.6,0.8,1.1,1.7,1.5,2.7c2.5,6.4-1.6,13.5-8.5,14.4c-3.5,0.5-6.5-0.6-8.9-3.1c-1.8-1.8-2.8-4-3-6.4
	c-0.2-4.4,1.4-7.7,5-10.1C6.7,3.3,8.6,2.9,9.9,2.9z M10.6,22.5c2.5,0,4.7-0.9,6.5-2.7c3-3,3.5-8,1-11.5c-0.7-1-0.4-0.9-1.2-0.1
	c-0.2,0.2-0.2,0.4,0,0.6c1.2,1.6,1.7,3.5,1.5,5.5c-0.5,4.2-4.3,7.3-8.6,6.8S2.4,16.7,3,12.3C3.6,6.7,10,3.9,14.8,7
	c0.8,0.5,0.8,0.5,1.4-0.2c0.2-0.2,0.2-0.3,0-0.5c-2.1-1.6-4.4-2.2-7-1.8C6.4,4.9,4.3,6.3,2.8,8.7C0.6,12.2,1,16.9,4.1,19.9
	C5.9,21.7,8.1,22.5,10.6,22.5z M4.3,13.4c0,0.4,0,0.8,0.1,1.1c0.6,3.5,3.7,5.7,7.2,5.2c4.5-0.7,6.6-5.6,4.5-9.4
	c-0.6-1-0.5-0.7-1.1-0.1c-0.2,0.2-0.3,0.4-0.1,0.7c1,1.6,1,3.3,0.1,5s-2.5,2.6-4.4,2.6c-2.9,0-5.2-2.6-4.9-5.5
	C6,9.4,9.8,7.4,12.9,9.1c0.7,0.3,0.7,0.3,1.2-0.2c0.4-0.4,0.4-0.4-0.1-0.7C11.9,6.9,9.7,6.8,7.5,8C5.4,9.1,4.3,11,4.3,13.4z
	 M10.8,10c-1.7,0-2.7,0.7-3.3,2c-0.7,1.4-0.3,3.2,0.8,4.1c1.3,1.1,3.1,1.1,4.4,0.2c1.3-1,1.8-2.6,1.2-4.1c-0.2-0.6-0.3-0.6-0.7-0.1
	c-0.1,0.1-0.1,0.1-0.2,0.2c-0.3,0.2-0.3,0.4-0.2,0.7c0.4,1.6-1.1,3-2.7,2.5C9,15.2,8.4,14,8.7,12.9c0.3-1,1.4-1.8,2.4-1.5
	c0.5,0.1,0.8,0,1-0.3c0.1-0.1,0.2-0.2,0.2-0.2c0.2-0.2,0.1-0.3-0.1-0.4C11.6,10.1,11.1,9.9,10.8,10z M18.9,4.5C18.9,4.7,18.8,5,19,5
	c0.3,0.1,0.7,0.2,1-0.1c0.4-0.4,0.8-0.8,1.1-1.1c0.1-0.1,0.2-0.3-0.1-0.3c-0.3,0-0.6-0.2-0.7-0.6c-0.1-0.2-0.2-0.2-0.3-0.1
	c-0.3,0.3-0.6,0.7-1,1C19,4,18.8,4.3,18.9,4.5z M10.6,12.8c-0.3,0-0.7,0.3-0.7,0.7c0,0.3,0.3,0.7,0.7,0.7s0.6-0.3,0.6-0.7
	C11.2,13,10.9,12.8,10.6,12.8z"/>
</svg>
