<?xml version="1.0" encoding="utf-8"?>
<!-- Generator: Adobe Illustrator 26.0.3, SVG Export Plug-In . SVG Version: 6.00 Build 0)  -->
<svg version="1.1" id="Capa_1" xmlns="http://www.w3.org/2000/svg" xmlns:xlink="http://www.w3.org/1999/xlink" x="0px" y="0px"
	 viewBox="0 0 24 24" style="enable-background:new 0 0 24 24;" xml:space="preserve">
<style type="text/css">
	.st0{fill:#FFD104;}
</style>
<g>
	<path class="st0" d="M12,21.5c-3.5,0-6.9,0-10.4,0c-0.7,0-1.2-0.3-1.5-0.9C0.1,20.4,0,20.2,0,20c0-4.3,0-8.7,0-13
		c0-0.8,0.7-1.5,1.5-1.5c0.6,0,1.2,0,1.8,0c0.2,0,0.2-0.1,0.2-0.2c0-0.4,0-0.8,0-1.2c0-0.4,0.2-0.6,0.6-0.6c0.6,0,1.3,0,1.9,0
		c0.4,0,0.6,0.2,0.6,0.6c0,0.4,0,0.8,0,1.2c0,0.2,0.1,0.2,0.2,0.2c0.2,0,0.5,0,0.7,0c0.1,0,0.2-0.1,0.3-0.2c0.2-0.5,0.4-1.1,0.5-1.6
		C8.5,2.9,9,2.5,9.9,2.5c1.4,0,2.9,0,4.3,0c0.8,0,1.3,0.4,1.6,1.1c0.2,0.5,0.4,1.1,0.5,1.6c0.1,0.2,0.1,0.2,0.3,0.2
		c1.9,0,3.9,0,5.8,0c0.9,0,1.6,0.7,1.6,1.6c0,4.3,0,8.5,0,12.8c0,1-0.6,1.6-1.6,1.6C18.9,21.5,15.4,21.5,12,21.5z M12,20.5
		c3.3,0,6-2.7,6-5.9c0-3.3-2.6-6-6-6c-3.4,0-5.9,2.7-6,6C6,17.8,8.7,20.5,12,20.5z M15.8,20.4c0.1,0,0.1,0,0.2,0c2.1,0,4.3,0,6.4,0
		c0.4,0,0.6-0.2,0.6-0.6c0-3.2,0-6.4,0-9.6c0-0.3,0-0.3-0.3-0.3c-1.7,0-3.4,0-5,0c-0.1,0-0.2,0-0.2,0c0,0.1,0.1,0.1,0.1,0.2
		c1.1,1.5,1.6,3.1,1.4,5c-0.2,2.1-1.3,3.9-3,5.1C15.9,20.3,15.8,20.4,15.8,20.4z M12,6.6c-1.6,0-3.2,0-4.9,0c-1.8,0-3.7,0-5.5,0
		c-0.4,0-0.6,0.2-0.6,0.6c0,0.6,0,1.1,0,1.7c0,0.1,0,0.2,0.2,0.2c2.1,0,4.2,0,6.3,0c0.1,0,0.2,0,0.2-0.1c0.3-0.2,0.6-0.4,1-0.6
		c1.2-0.6,2.6-0.9,3.9-0.8c1.3,0.1,2.5,0.6,3.5,1.4C16.3,9,16.4,9,16.5,9c0.4,0,0.8,0,1.1,0c1.7,0,3.4,0,5.1,0c0.1,0,0.2,0,0.2-0.2
		c0-0.6,0-1.2,0-1.8c0-0.2-0.1-0.3-0.2-0.4c-0.1-0.1-0.3-0.1-0.4-0.1C18.9,6.6,15.5,6.6,12,6.6z M8.2,20.4
		C8.2,20.4,8.2,20.4,8.2,20.4c-0.1-0.1-0.1-0.1-0.1-0.1c-0.5-0.3-0.9-0.7-1.3-1.1C5.6,17.9,5,16.3,5,14.6c0-1.6,0.5-3.1,1.5-4.3
		c0,0,0.1-0.1,0.1-0.1c0-0.1-0.1,0-0.2,0c-1.7,0-3.4,0-5.1,0c-0.2,0-0.2,0.1-0.2,0.2c0,3.2,0,6.4,0,9.7c0,0.4,0.2,0.5,0.5,0.5
		c0.4,0,0.7,0,1.1,0c0.3,0,0.3,0,0.3-0.3c0-2.7,0-5.3,0-8c0-0.1,0-0.2,0-0.3c0.1-0.3,0.3-0.4,0.5-0.4c0.3,0,0.4,0.2,0.5,0.4
		c0,0.1,0,0.2,0,0.3c0,0.4,0,0.7,0,1.1c0,2.3,0,4.5,0,6.8c0,0.3,0,0.3,0.3,0.3c1.2,0,2.4,0,3.6,0C8.1,20.5,8.1,20.5,8.2,20.4z
		 M12,5.5c1,0,2.1,0,3.1,0c0.2,0,0.2,0,0.1-0.2C15,4.9,14.9,4.4,14.8,4c-0.1-0.3-0.3-0.4-0.6-0.4c-1.4,0-2.9,0-4.3,0
		C9.5,3.6,9.3,3.7,9.2,4C9.1,4.4,8.9,4.9,8.8,5.3C8.7,5.5,8.7,5.5,9,5.5C10,5.5,11,5.5,12,5.5z M4.5,5c0,0.5,0,0.5,0.5,0.5
		c0.5,0,0.5,0,0.5-0.5c0-0.5,0-0.5-0.5-0.5C4.5,4.5,4.5,4.5,4.5,5z"/>
	<path class="st0" d="M12,10c2.4,0,4.5,1.9,4.5,4.5c0,2.5-2.1,4.5-4.5,4.5c-2.5,0-4.5-2-4.5-4.5C7.5,11.9,9.6,10,12,10z M8.5,14.5
		c0,1.9,1.5,3.5,3.4,3.5c1.9,0,3.5-1.5,3.5-3.5c0-1.9-1.6-3.5-3.5-3.5C10,11,8.5,12.7,8.5,14.5z"/>
	<path class="st0" d="M21,18.2c0-0.2,0-0.4,0-0.7c0-0.1,0-0.3,0.1-0.4c0.1-0.2,0.4-0.2,0.5-0.2c0.2,0.1,0.4,0.2,0.4,0.5
		c0,0.5,0,1,0,1.6c0,0.3-0.3,0.5-0.5,0.5c-0.3,0-0.5-0.2-0.5-0.5C20.9,18.8,21,18.5,21,18.2z"/>
	<path class="st0" d="M21.2,12c-0.1,0-0.3,0-0.4-0.1c-0.2-0.1-0.3-0.3-0.3-0.5c0-0.2,0.2-0.4,0.4-0.5c0.3-0.1,0.5-0.1,0.8,0
		c0.2,0,0.4,0.3,0.4,0.5c0,0.2-0.2,0.4-0.4,0.5C21.5,12,21.3,12,21.2,12z"/>
</g>
</svg>
