<?xml version="1.0" encoding="utf-8"?>
<!-- Generator: Adobe Illustrator 26.0.3, SVG Export Plug-In . SVG Version: 6.00 Build 0)  -->
<svg version="1.1" id="Capa_1" xmlns="http://www.w3.org/2000/svg" xmlns:xlink="http://www.w3.org/1999/xlink" x="0px" y="0px"
	 viewBox="0 0 24 24" style="enable-background:new 0 0 24 24;" xml:space="preserve">
<style type="text/css">
	.st0{fill:#FFD104;}
</style>
<g>
	<path class="st0" d="M16.2,1.2c2.1,0.1,4.3,0.9,6,2.7c2.3,2.4,2.4,5.9,0.3,8.4c-0.6,0.7-0.4,1.4-0.2,2.1c0.1,0.3,0.3,0.6,0.5,0.9
		c0.2,0.2,0.3,0.4,0.2,0.6c-0.1,0.3-0.4,0.3-0.6,0.3c-1-0.1-2-0.3-2.8-1c-0.4-0.4-0.8-0.4-1.3-0.3c-0.5,0.2-1,0.3-1.5,0.3
		c-0.3,0-0.5,0.1-0.5,0.5c-0.2,1.5-0.9,2.8-2,3.8c-1.5,1.5-3.4,2.2-5.5,2.3c-1.1,0-2.2-0.1-3.3-0.4c-0.2-0.1-0.3,0-0.5,0.1
		c-0.9,0.8-2,1.2-3.2,1.2c-0.2,0-0.4,0-0.6-0.3c-0.1-0.2,0-0.4,0.1-0.6c0.6-0.7,0.9-1.4,0.7-2.3c0-0.2-0.1-0.3-0.2-0.4
		c-1-1.2-1.6-2.6-1.7-4.1c-0.1-1.5,0.4-2.9,1.4-4.1C3,9.1,5,8.1,7.4,7.8c0.2,0,0.3-0.1,0.4-0.3c0.3-2.3,1.6-3.9,3.6-5.1
		C12.7,1.6,14.2,1.2,16.2,1.2z M8.2,20.8c1.8,0.1,3.4-0.6,4.5-1.4c3.2-2.3,3.3-6.7,0.2-9.1c-1.6-1.2-3.5-1.7-5.5-1.5
		c-1.9,0.2-3.6,0.9-5,2.4c-1.9,2-2,5.2-0.1,7.2c0.3,0.3,0.4,0.7,0.5,1.1c0.1,0.6,0,1.2-0.2,1.8c0,0.1-0.1,0.2,0,0.3
		c0.1,0.1,0.2,0,0.3,0c0.6-0.2,1.1-0.5,1.5-1c0.2-0.3,0.5-0.3,0.8-0.2C6.2,20.7,7.2,20.8,8.2,20.8z M13.9,9.7c0,0.1,0,0.1,0,0.1
		C14,9.9,14.1,10,14.1,10c0.7,0.7,1.2,1.4,1.6,2.3c0.2,0.5,0.4,1.1,0.4,1.6c0,0.2,0,0.3,0.3,0.3c0.8-0.1,1.6-0.2,2.3-0.5
		c0.3-0.1,0.5-0.1,0.8,0.2c0.4,0.4,1,0.8,1.6,1c0.1,0,0.2,0.1,0.3,0c0.1-0.1,0-0.2,0-0.2c-0.1-0.3-0.2-0.5-0.2-0.8
		c-0.1-0.8,0-1.5,0.5-2.1c2-2.4,1.8-5.3-0.4-7.5c-2.6-2.5-7-2.8-9.9-0.7c-1.3,1-2.2,2.2-2.5,3.9c0,0.2,0,0.3,0.3,0.3
		c1,0.1,1.9,0.3,2.8,0.7c0.2,0.1,0.5,0.2,0.7,0.2c2.3,0,4.5,0,6.8,0c0.1,0,0.3,0,0.4,0c0.3,0.1,0.4,0.2,0.4,0.5
		c0,0.3-0.2,0.4-0.5,0.5c-0.1,0-0.2,0-0.3,0c-1.7,0-3.3,0-5,0C14.2,9.7,14.1,9.7,13.9,9.7z"/>
	<path class="st0" d="M8.1,16.2c1.2,0,2.4,0,3.6,0c0.1,0,0.2,0,0.3,0c0.2,0,0.4,0.2,0.4,0.4c0,0.3-0.1,0.4-0.3,0.5
		c-0.2,0.1-0.3,0.1-0.5,0.1c-2.4,0-4.7,0-7.1,0c-0.2,0-0.3,0-0.5-0.1c-0.2-0.1-0.4-0.3-0.3-0.5c0-0.2,0.2-0.4,0.4-0.4
		c0.1,0,0.2,0,0.3,0C5.7,16.2,6.9,16.2,8.1,16.2z"/>
	<path class="st0" d="M9.1,13.4c0.9,0,1.8,0,2.6,0c0.1,0,0.2,0,0.3,0c0.3,0,0.4,0.2,0.4,0.5c0,0.3-0.1,0.4-0.4,0.5
		c-0.1,0-0.3,0-0.4,0c-1.8,0-3.6,0-5.4,0c-0.1,0-0.2,0-0.3,0c-0.3,0-0.4-0.2-0.5-0.5c0-0.3,0.2-0.5,0.5-0.5c0.1,0,0.2,0,0.3,0
		C7.3,13.4,8.2,13.4,9.1,13.4z"/>
	<path class="st0" d="M4.2,14.3c-0.3,0-0.5-0.3-0.4-0.5c0-0.3,0.3-0.5,0.5-0.4c0.3,0,0.5,0.3,0.5,0.5C4.7,14.2,4.5,14.4,4.2,14.3z"
		/>
	<path class="st0" d="M16.8,6.9c-0.9,0-1.9,0-2.8,0c-0.3,0-0.5-0.1-0.6-0.4c0-0.3,0.1-0.5,0.3-0.6c0.2-0.1,0.3-0.1,0.5-0.1
		c1.7,0,3.5,0,5.2,0c0.1,0,0.3,0,0.4,0c0.3,0.1,0.4,0.2,0.4,0.5c0,0.3-0.2,0.4-0.5,0.4c-0.5,0-1.1,0-1.6,0
		C17.7,6.9,17.2,6.9,16.8,6.9z"/>
	<path class="st0" d="M12.5,6.4c0,0.3-0.2,0.5-0.5,0.5s-0.5-0.2-0.5-0.5c0-0.3,0.2-0.5,0.5-0.5C12.3,5.9,12.5,6.1,12.5,6.4z"/>
</g>
</svg>
