<?xml version="1.0" encoding="utf-8"?>
<!-- Generator: Adobe Illustrator 26.0.3, SVG Export Plug-In . SVG Version: 6.00 Build 0)  -->
<svg version="1.1" id="Capa_1" xmlns="http://www.w3.org/2000/svg" xmlns:xlink="http://www.w3.org/1999/xlink" x="0px" y="0px"
	 viewBox="0 0 800 800" style="enable-background:new 0 0 800 800;" xml:space="preserve">
<style type="text/css">
	.st0{fill:#4DDCCA;}
	.st1{fill:#FFFFFF;}
</style>
<circle class="st0" cx="400" cy="400" r="400"/>
<path class="st1" d="M592,208H208c-35.4,0-64,28.6-64,64v256c0,35.3,28.6,64,64,64h384c35.3,0,64-28.7,64-64V272
	C656,236.6,627.3,208,592,208z M208,256h384c8.8,0,16,7.2,16,16v22.2L441.2,432.3c-23.2,19.3-59.3,19.3-82.5,0L192,294.2V272
	C192,263.2,199.2,256,208,256z M592,544H208c-8.8,0-16-7.2-16-16V356.7l136.1,113.4c20.2,16.7,45.7,25.9,71.9,25.9s51.8-9.2,72-26
	l136-113.3V528C608,536.8,600.8,544,592,544z"/>
</svg>
