<?xml version="1.0" encoding="utf-8"?>
<!-- Generator: Adobe Illustrator 26.0.3, SVG Export Plug-In . SVG Version: 6.00 Build 0)  -->
<svg version="1.1" id="Capa_1" xmlns="http://www.w3.org/2000/svg" xmlns:xlink="http://www.w3.org/1999/xlink" x="0px" y="0px"
	 viewBox="0 0 24 24" style="enable-background:new 0 0 24 24;" xml:space="preserve">
<style type="text/css">
	.st0{fill:#FFD104;}
</style>
<path class="st0" d="M11.9,0.5c0.9,0,1.4,0.4,1.8,1.1c0.5,1.1,1.1,2.2,1.6,3.3c0.3,0.6,0.6,1.1,0.8,1.7c0.2,0.4,0.5,0.6,0.9,0.6
	c1.8,0.3,3.7,0.5,5.5,0.8c0.8,0.1,1.2,0.6,1.5,1.3c0.2,0.7,0,1.3-0.5,1.8c-0.8,0.8-1.7,1.7-2.6,2.5c-0.5,0.4-0.9,0.9-1.4,1.4
	c-0.3,0.3-0.4,0.6-0.3,1c0.3,1.8,0.6,3.7,1,5.5c0.1,0.7-0.1,1.3-0.6,1.7c-0.6,0.4-1.2,0.5-1.9,0.2c-1.6-0.8-3.2-1.6-4.8-2.5
	c-0.6-0.3-1-0.3-1.6,0c-1.6,0.9-3.2,1.7-4.7,2.5c-0.7,0.3-1.3,0.3-1.9-0.2c-0.6-0.4-0.8-1-0.6-1.7c0.3-1.9,0.6-3.7,1-5.6
	c0.1-0.3,0-0.6-0.2-0.8c-1.3-1.3-2.6-2.6-4-3.9C0.2,10.6-0.1,10,0.1,9.2C0.3,8.5,0.8,8.1,1.6,8c1.8-0.3,3.7-0.5,5.5-0.8
	c0.4-0.1,0.7-0.2,0.8-0.6C8.7,5,9.4,3.4,10.2,1.9c0.1-0.2,0.2-0.4,0.3-0.6C10.9,0.8,11.4,0.5,11.9,0.5z M4.9,21.6
	c0,0.7,0.6,1,1.2,0.7c1.5-0.8,3.1-1.6,4.6-2.4c0.9-0.5,1.6-0.5,2.5,0c1.5,0.8,3.1,1.6,4.6,2.4c0.3,0.2,0.6,0.2,0.9,0
	c0.3-0.2,0.3-0.6,0.3-0.9c-0.3-1.6-0.5-3.1-0.8-4.6c-0.3-1.8-0.2-1.9,1-3.1c1.2-1.1,2.3-2.3,3.5-3.4c0.2-0.2,0.3-0.5,0.2-0.8
	c-0.1-0.3-0.3-0.5-0.7-0.5c-0.1,0-0.2,0-0.2,0c-1.8-0.3-3.6-0.5-5.5-0.8c-0.6-0.1-1.1-0.4-1.4-1c-0.3-0.7-0.7-1.3-1-2
	c-0.5-1-1-2-1.5-3c-0.2-0.3-0.3-0.5-0.7-0.6c-0.4,0-0.6,0.2-0.8,0.5c0,0.1-0.1,0.1-0.1,0.2c-0.8,1.6-1.6,3.2-2.4,4.9
	c-0.3,0.6-0.7,0.9-1.4,1C5.6,8.4,3.8,8.7,1.9,9C1.9,9,1.8,9,1.7,9C1.4,9,1.2,9.2,1.1,9.5c-0.1,0.3,0,0.6,0.2,0.8
	c1.4,1.3,2.7,2.7,4.1,4c0.5,0.4,0.7,1,0.5,1.6c-0.2,1-0.3,1.9-0.5,2.9C5.3,19.8,5.1,20.7,4.9,21.6z"/>
</svg>
