<?xml version="1.0" encoding="utf-8"?>
<!-- Generator: Adobe Illustrator 26.0.3, SVG Export Plug-In . SVG Version: 6.00 Build 0)  -->
<svg version="1.1" id="Capa_1" xmlns="http://www.w3.org/2000/svg" xmlns:xlink="http://www.w3.org/1999/xlink" x="0px" y="0px"
	 viewBox="0 0 24 24" style="enable-background:new 0 0 24 24;" xml:space="preserve">
<style type="text/css">
	.st0{fill:#FFD104;}
</style>
<g>
	<path class="st0" d="M8.6,18.8c0-0.6,0-1.3,0-1.9c0-0.5-0.1-1-0.4-1.4c-0.6-0.8-1.1-1.5-1.6-2.4c-0.3-0.5-0.5-1-0.6-1.5
		c0-0.1,0-0.2-0.1-0.3c0-0.2,0.1-0.5,0.3-0.5c0.3-0.1,0.5,0,0.6,0.3c0.4,1.4,1.2,2.4,2,3.6c0.4,0.5,0.7,1.1,0.8,1.8
		c0,0.1,0.1,0.2,0.2,0.2c0.5,0,0.9,0,1.4,0c0.2,0,0.3-0.1,0.3-0.3c0-0.2,0-0.5,0-0.7c0-0.4,0.2-0.6,0.5-0.6c0.3,0,0.5,0.2,0.5,0.6
		c0,0.2,0,0.4,0,0.6c0,0.2,0.1,0.3,0.3,0.3c0.4,0,0.9,0,1.3,0c0.2,0,0.3-0.1,0.3-0.2c0.1-0.7,0.4-1.2,0.8-1.8
		c0.7-0.9,1.4-1.8,1.8-2.9c1-2.9,0-5.7-2.6-7.1c-2.5-1.3-5.6-0.4-7,2.1c-0.2,0.3-0.3,0.6-0.5,1C6.8,8,6.5,8.1,6.3,8
		C6,7.9,5.9,7.6,6,7.3C6.8,5,9.1,3.2,11.5,3c2-0.1,3.6,0.5,5,1.8C17.7,6,18.3,7.4,18.4,9c0.1,2.2-0.7,4.1-2.1,5.8
		c-0.6,0.8-0.9,1.7-0.9,2.7c0,1.1,0,2.1,0,3.2c0,1.9-1.8,3.5-3.7,3.3c-1.6-0.2-2.6-1-3-2.7c-0.1-0.4,0-0.8,0-1.1
		C8.6,19.7,8.6,19.2,8.6,18.8z M12,19.7c-0.6,0-1.3,0-1.9,0c-0.4,0-0.4,0-0.4,0.5c0,0.5,0,0.5,0.4,0.5c1.2,0,2.5,0,3.7,0
		c0.5,0,0.5,0,0.5-0.5c0,0,0,0,0,0c0-0.3-0.1-0.4-0.4-0.4C13.3,19.7,12.7,19.7,12,19.7z M12,18.6c0.7,0,1.3,0,2,0
		c0.4,0,0.4-0.2,0.4-0.4c0-0.3,0-0.5-0.4-0.5c-1.3,0-2.6,0-4,0c-0.4,0-0.4,0.2-0.4,0.5c0,0.2,0,0.5,0.4,0.5
		C10.7,18.6,11.3,18.6,12,18.6z M12,21.7c-0.6,0-1.2,0-1.8,0c-0.1,0-0.2,0-0.2,0.1c-0.1,0.1,0,0.2,0.1,0.3c0.9,1.3,3,1.4,3.9,0
		c0.1-0.1,0.1-0.1,0.1-0.3c-0.1-0.1-0.2-0.1-0.3-0.1C13.2,21.7,12.6,21.7,12,21.7z"/>
	<path class="st0" d="M12,9.8c0.5,0,1.1,0,1.6,0c0.4,0,0.5,0.2,0.6,0.5c0,0.3-0.2,0.5-0.5,0.5c-0.1,0-0.3,0-0.4,0
		c-0.7,0-0.7-0.1-0.7,0.7c0,0.1,0,0.2,0,0.3c0,0.4-0.2,0.6-0.5,0.6c-0.3,0-0.5-0.2-0.5-0.6c0-0.2,0-0.4,0-0.6c0-0.2-0.1-0.3-0.3-0.3
		c-0.2,0-0.5,0-0.7,0c-0.4,0-0.6-0.2-0.6-0.5c0-0.3,0.2-0.5,0.6-0.5C10.9,9.8,11.5,9.8,12,9.8z"/>
	<path class="st0" d="M11.5,1.1c0-0.2,0-0.4,0-0.6C11.5,0.2,11.7,0,12,0c0.3,0,0.5,0.2,0.5,0.5c0.1,0.4,0.1,0.9,0,1.3
		c0,0.3-0.2,0.4-0.5,0.4c-0.3,0-0.5-0.2-0.5-0.4C11.5,1.6,11.5,1.3,11.5,1.1C11.5,1.1,11.5,1.1,11.5,1.1z"/>
	<path class="st0" d="M18.8,3.1c0,0.2-0.1,0.3-0.2,0.4c-0.3,0.3-0.5,0.6-0.8,0.8c-0.3,0.2-0.5,0.2-0.7,0c-0.2-0.2-0.2-0.5,0.1-0.7
		C17.4,3.3,17.7,3,18,2.8c0.1-0.1,0.3-0.2,0.5-0.1C18.6,2.7,18.8,2.9,18.8,3.1z"/>
	<path class="st0" d="M5.7,2.7c0.2,0,0.3,0,0.4,0.1c0.3,0.3,0.6,0.5,0.8,0.8c0.2,0.2,0.2,0.5,0,0.7c-0.2,0.2-0.5,0.2-0.7,0
		C5.9,4,5.6,3.7,5.3,3.4C5.2,3.3,5.2,3.1,5.2,2.9C5.3,2.8,5.5,2.6,5.7,2.7z"/>
	<path class="st0" d="M12,13.3c0.3,0,0.5,0.2,0.5,0.5c0,0.3-0.2,0.5-0.5,0.5c-0.3,0-0.5-0.2-0.5-0.5C11.5,13.5,11.7,13.3,12,13.3z"
		/>
</g>
</svg>
