<?xml version="1.0" encoding="utf-8"?>
<!-- Generator: Adobe Illustrator 26.0.3, SVG Export Plug-In . SVG Version: 6.00 Build 0)  -->
<svg version="1.1" id="Capa_1" xmlns="http://www.w3.org/2000/svg" xmlns:xlink="http://www.w3.org/1999/xlink" x="0px" y="0px"
	 viewBox="0 0 24 24" style="enable-background:new 0 0 24 24;" xml:space="preserve">
<style type="text/css">
	.st0{fill:#FFFFFF;}
</style>
<g>
	<path class="st0" d="M0,14.9C0,14,0.6,13,1.8,12.3s2.3-1.4,3.5-2C5.6,10.2,5.8,9.9,6,9.6c2-2.5,3.9-4.9,5.8-7.4
		c0.6-0.7,1.8-0.7,2.3,0.1c0.6,0.9,1.1,1.8,1.5,2.7c0.2,0.3,0.4,0.4,0.7,0.4c0.4-0.1,0.9-0.1,1.3-0.1c0.2,0,0.4,0.1,0.5,0.3
		C18.4,6,18.7,6.5,19,6.9c0.2,0.3,0.2,0.6,0,0.9s-0.4,0.7-0.7,1c-0.1,0.2-0.2,0.4,0,0.6c0.4,0.7,0.8,1.5,1.3,2.2
		c0.7,1.1-0.1,2.2-1.1,2.3c-2.3,0.4-4.6,0.9-6.9,1.3c-0.5,0.1-1.1,0.2-1.6,0.3c-0.4,0.1-0.4,0.1-0.2,0.4c0.1,0.2,0.2,0.4,0.3,0.6
		c0.2,0.4,0.2,0.6-0.2,0.8C9.6,17.7,9.3,17.8,9,18c-0.2,0.1-0.2,0.2-0.1,0.4c0.4,0.7,0.8,1.4,1.2,2.1c0.7,1.3,0,2.7-1.5,2.9
		c-0.8,0.1-1.4-0.2-1.8-0.9c-0.7-1.1-1.3-2.3-2-3.5c0-0.1-0.1-0.1-0.1-0.2c-0.1-0.3-0.3-0.4-0.7-0.3C1.9,19,0,17.3,0,14.9z
		 M9.2,14.8c0.1,0,0.2,0,0.2,0c2.4-0.5,4.8-1,7.2-1.4c0.4-0.1,0.4-0.1,0.2-0.5c-0.6-0.9-1.1-1.9-1.6-2.8c-1.1-1.9-2.2-3.8-3.3-5.7
		c-0.2-0.3-0.2-0.3-0.5,0c-0.4,0.5-0.8,1-1.2,1.5c-1.2,1.5-2.4,3-3.5,4.5c-0.1,0.1-0.2,0.2-0.1,0.4c0.7,1.3,1.5,2.6,2.2,3.8
		C8.9,14.7,9.1,14.8,9.2,14.8z M3.3,17.6c0.3,0,0.7-0.1,1-0.2c1.1-0.6,2.3-1.3,3.4-2C8,15.2,8,15.1,7.9,15c-0.7-1.2-1.4-2.4-2.1-3.6
		c-0.1-0.2-0.2-0.2-0.3-0.1C4.4,12,3.2,12.7,2,13.4C1.1,13.9,0.8,15,1.1,16C1.4,16.9,2.3,17.6,3.3,17.6z M18.3,13
		c0.4,0,0.6-0.3,0.4-0.6c-0.1-0.1-0.1-0.2-0.2-0.3c-1.7-3-3.4-6-5.2-9c-0.2-0.3-0.5-0.4-0.7-0.3c-0.3,0.2-0.3,0.3-0.1,0.7
		C13.2,4.8,14,6,14.7,7.3c1.1,1.9,2.1,3.7,3.2,5.5C18.1,12.9,18.2,13,18.3,13z M9.4,21.4c0-0.1,0-0.3-0.1-0.4
		c-0.7-1.3-1.5-2.5-2.2-3.8C7,17.1,6.9,17,6.7,17.1c-0.3,0.2-0.7,0.4-1.1,0.6c-0.2,0.1-0.2,0.2-0.1,0.4c0.4,0.6,0.7,1.3,1.1,1.9
		c0.4,0.7,0.8,1.3,1.1,2c0.2,0.3,0.6,0.5,1,0.4C9.1,22.2,9.4,21.9,9.4,21.4z M17.1,6.3c-0.1,0-0.2,0-0.3,0c-0.2,0-0.3,0.1-0.2,0.3
		c0.3,0.4,0.5,0.9,0.8,1.3c0.1,0.2,0.2,0.2,0.3,0c0.4-0.5,0.4-0.6,0.1-1.1c-0.1-0.1-0.1-0.2-0.2-0.3C17.5,6.3,17.3,6.2,17.1,6.3z
		 M9,16.8c0-0.1-0.3-0.6-0.4-0.6c-0.1,0-0.6,0.3-0.7,0.4c0,0.1,0.3,0.7,0.4,0.7C8.4,17.2,9,16.8,9,16.8z"/>
	<path class="st0" d="M23.5,2.6c0.3,0,0.5,0.1,0.5,0.3c0.1,0.3,0,0.5-0.3,0.6c-0.6,0.3-1.2,0.7-1.8,1c-0.2,0.1-0.5,0.3-0.7,0.4
		C20.9,5,20.7,5,20.5,4.7c-0.1-0.2-0.1-0.5,0.2-0.7c0.9-0.5,1.7-1,2.6-1.4C23.3,2.6,23.4,2.6,23.5,2.6z"/>
	<path class="st0" d="M18,2.7c0.2-0.5,0.3-1.2,0.5-1.8c0.1-0.3,0.3-0.4,0.6-0.3c0.2,0.1,0.4,0.3,0.3,0.6c-0.2,0.6-0.3,1.3-0.5,1.9
		c-0.1,0.2-0.3,0.4-0.5,0.3C18.1,3.4,18,3.1,18,2.7z"/>
	<path class="st0" d="M23.4,8c0,0.3-0.3,0.6-0.6,0.5c-0.6-0.2-1.3-0.3-1.9-0.5c-0.3-0.1-0.4-0.3-0.3-0.6c0.1-0.3,0.3-0.4,0.6-0.3
		c0.6,0.2,1.2,0.3,1.9,0.5C23.3,7.6,23.4,7.8,23.4,8z"/>
</g>
</svg>
