<?xml version="1.0" encoding="utf-8"?>
<!-- Generator: Adobe Illustrator 26.0.3, SVG Export Plug-In . SVG Version: 6.00 Build 0)  -->
<svg version="1.1" id="Capa_1" xmlns="http://www.w3.org/2000/svg" xmlns:xlink="http://www.w3.org/1999/xlink" x="0px" y="0px"
	 viewBox="0 0 800 800" style="enable-background:new 0 0 800 800;" xml:space="preserve">
<style type="text/css">
	.st0{fill:#4DDCCA;}
	.st1{fill:#FFFFFF;}
</style>
<circle class="st0" cx="400" cy="400" r="400"/>
<path class="st1" d="M400.1,285c-63.6,0-114.9,51.3-114.9,114.9s51.3,114.9,114.9,114.9S515,463.5,515,399.9S463.7,285,400.1,285z
	 M400.1,474.6c-41.1,0-74.7-33.5-74.7-74.7s33.5-74.7,74.7-74.7s74.7,33.5,74.7,74.7S441.2,474.6,400.1,474.6L400.1,474.6z
	 M546.5,280.3c0,14.9-12,26.8-26.8,26.8c-14.9,0-26.8-12-26.8-26.8c0-14.8,12-26.8,26.8-26.8S546.5,265.5,546.5,280.3z M622.6,307.5
	c-1.7-35.9-9.9-67.7-36.2-93.9c-26.2-26.2-58-34.4-93.9-36.2c-37-2.1-147.9-2.1-184.9,0c-35.8,1.7-67.6,9.9-93.9,36.1
	c-26.3,26.2-34.4,58-36.2,93.9c-2.1,37-2.1,147.9,0,184.9c1.7,35.9,9.9,67.7,36.2,93.9c26.3,26.2,58,34.4,93.9,36.2
	c37,2.1,147.9,2.1,184.9,0c35.9-1.7,67.7-9.9,93.9-36.2c26.2-26.2,34.4-58,36.2-93.9C624.7,455.3,624.7,344.5,622.6,307.5
	L622.6,307.5z M574.8,532c-7.8,19.6-22.9,34.7-42.6,42.6c-29.5,11.7-99.5,9-132.1,9s-102.7,2.6-132.1-9
	c-19.6-7.8-34.7-22.9-42.6-42.6c-11.7-29.5-9-99.5-9-132.1s-2.6-102.7,9-132.1c7.8-19.6,22.9-34.7,42.6-42.6
	c29.5-11.7,99.5-9,132.1-9s102.7-2.6,132.1,9c19.6,7.8,34.7,22.9,42.6,42.6c11.7,29.5,9,99.5,9,132.1S586.5,502.6,574.8,532z"/>
</svg>
