<svg xmlns="http://www.w3.org/2000/svg" viewBox="0 0 800 800"><defs><style>.cls-1{fill:#8d43f0;}.cls-2{fill:#ffd104;}.cls-3{fill:#4ddcca;}</style></defs><g id="Capa_2" data-name="Capa 2"><g id="Capa_2-2" data-name="Capa 2"><path class="cls-1" d="M800,400c0,220.91-179.08,400-400,400S0,620.91,0,400,179.08,0,400,0,800,179.09,800,400"/><path class="cls-2" d="M363.41,310.49c12.42,0,24.36-6.44,32.78-17.65,7.85-10.48,12.18-24.22,12.18-38.72S404,225.87,396.19,215.4c-8.42-11.21-20.36-17.65-32.78-17.65s-24.35,6.44-32.77,17.65c-7.84,10.47-12.17,24.23-12.17,38.72s4.33,28.24,12.17,38.72c8.42,11.21,20.36,17.65,32.77,17.65"/><path class="cls-2" d="M462.44,310.49c12.41,0,24.35-6.44,32.78-17.65,7.84-10.48,12.16-24.22,12.16-38.72s-4.32-28.25-12.16-38.72c-8.43-11.21-20.37-17.65-32.78-17.65s-24.36,6.44-32.77,17.65c-7.85,10.47-12.17,24.23-12.17,38.72s4.32,28.24,12.17,38.72c8.41,11.21,20.36,17.65,32.77,17.65"/><path class="cls-2" d="M566.58,311.43c-7.34-9.8-17.82-15.42-28.73-15.42s-21.38,5.62-28.73,15.42c-6.77,9-10.5,20.86-10.5,33.33s3.73,24.3,10.5,33.33c7.35,9.81,17.82,15.43,28.73,15.43s21.39-5.62,28.73-15.43c6.78-9,10.51-20.86,10.51-33.33s-3.73-24.3-10.51-33.33"/><path class="cls-2" d="M311.34,311.44C304,301.63,293.51,296,282.6,296s-21.38,5.62-28.73,15.43c-6.77,9-10.5,20.86-10.5,33.33s3.73,24.3,10.5,33.33c7.35,9.81,17.82,15.42,28.73,15.42s21.38-5.61,28.74-15.42c6.76-9,10.5-20.87,10.5-33.33s-3.74-24.3-10.5-33.33"/><path class="cls-2" d="M313.89,406.58s-80.14,92.94,39.31,163.51c22.7,13.42,48.24,21.57,74.59,22.43,28.49.92,62.74-6.13,81.63-39.53,36.29-64.15,11.39-118.21,11.39-118.21s-39.63-96.48-115.13-84.25c-1.28.21-2.56.41-3.86.56-8.17,1-48.46,8.18-87.93,55.49"/><path class="cls-3" d="M335.45,291.85c12.42,0,24.36-6.44,32.77-17.65,7.85-10.47,12.18-24.22,12.18-38.72s-4.33-28.25-12.18-38.72c-8.41-11.22-20.35-17.65-32.77-17.65s-24.36,6.43-32.77,17.65c-7.85,10.47-12.18,24.22-12.18,38.72s4.33,28.25,12.18,38.72c8.41,11.21,20.36,17.65,32.77,17.65"/><path class="cls-3" d="M434.47,291.85c12.42,0,24.36-6.44,32.78-17.65,7.85-10.47,12.18-24.22,12.18-38.72s-4.33-28.25-12.18-38.72c-8.42-11.22-20.36-17.65-32.78-17.65s-24.35,6.43-32.77,17.65c-7.84,10.47-12.16,24.22-12.16,38.72s4.32,28.25,12.16,38.72c8.42,11.21,20.37,17.65,32.77,17.65"/><path class="cls-3" d="M538.62,292.79c-7.34-9.8-17.82-15.42-28.73-15.42s-21.38,5.61-28.73,15.42c-6.78,9-10.5,20.86-10.5,33.33s3.72,24.31,10.5,33.34c7.35,9.79,17.82,15.42,28.73,15.42s21.39-5.63,28.73-15.42c6.78-9,10.5-20.87,10.5-33.34s-3.72-24.29-10.5-33.33"/><path class="cls-3" d="M283.37,292.79c-7.35-9.8-17.83-15.42-28.73-15.42s-21.38,5.62-28.73,15.42c-6.78,9-10.5,20.87-10.5,33.34s3.72,24.3,10.5,33.33c7.35,9.8,17.82,15.42,28.73,15.42s21.38-5.62,28.73-15.42c6.77-9,10.5-20.86,10.5-33.33s-3.73-24.3-10.5-33.34"/><path class="cls-3" d="M285.93,387.94s-80.13,92.93,39.3,163.51c22.7,13.42,48.24,21.57,74.6,22.42,28.48.92,62.73-6.12,81.62-39.53,36.3-64.15,11.4-118.21,11.4-118.21s-39.63-96.46-115.13-84.24c-1.29.21-2.57.41-3.86.56-8.18,1-48.47,8.17-87.93,55.49"/></g></g></svg>