<?xml version="1.0" encoding="utf-8"?>
<!-- Generator: Adobe Illustrator 26.0.3, SVG Export Plug-In . SVG Version: 6.00 Build 0)  -->
<svg version="1.1" id="Capa_1" xmlns="http://www.w3.org/2000/svg" xmlns:xlink="http://www.w3.org/1999/xlink" x="0px" y="0px"
	 viewBox="0 0 800 800" style="enable-background:new 0 0 800 800;" xml:space="preserve">
<style type="text/css">
	.st0{fill:#4DDCCA;}
	.st1{fill:#FFFFFF;}
</style>
<circle class="st0" cx="400" cy="400" r="400"/>
<path class="st1" d="M276.3,592h-92.9V292.9h92.9V592z M229.8,252.1c-29.7,0-53.8-24.6-53.8-54.3c0-29.7,24.1-53.8,53.8-53.8
	c29.7,0,53.8,24.1,53.8,53.8C283.6,227.5,259.5,252.1,229.8,252.1z M623.9,592h-92.7V446.4c0-34.7-0.7-79.2-48.3-79.2
	c-48.3,0-55.7,37.7-55.7,76.7V592h-92.8V292.9h89.1v40.8h1.3c12.4-23.5,42.7-48.3,87.9-48.3c94,0,111.3,61.9,111.3,142.3L623.9,592
	L623.9,592z"/>
</svg>
