<?xml version="1.0" encoding="utf-8"?>
<!-- Generator: Adobe Illustrator 26.0.3, SVG Export Plug-In . SVG Version: 6.00 Build 0)  -->
<svg version="1.1" id="Capa_1" xmlns="http://www.w3.org/2000/svg" xmlns:xlink="http://www.w3.org/1999/xlink" x="0px" y="0px"
	 viewBox="0 0 100 50" style="enable-background:new 0 0 100 50;" xml:space="preserve">
<style type="text/css">
	.st0{fill:#FFD104;}
	.st1{fill:#8D43F0;}
</style>
<g>
	<path class="st0" d="M27.3,19.7c0-1.8,0.3-3.4,0.9-4.9c0.6-1.5,1.4-2.8,2.5-3.8C31.7,9.9,33,9,34.5,8.5c1.5-0.6,3.1-0.9,4.9-0.9
		c1.8,0,3.4,0.3,4.9,0.9c1.5,0.6,2.8,1.4,3.8,2.5c1.1,1.1,1.9,2.4,2.5,3.8c0.6,1.5,0.9,3.1,0.9,4.9c0,1.8-0.3,3.4-0.9,4.9
		c-0.6,1.5-1.4,2.8-2.5,3.8s-2.4,1.9-3.8,2.5c-1.5,0.6-3.1,0.9-4.9,0.9c-1.8,0-3.4-0.3-4.9-0.9c-1.5-0.6-2.8-1.4-3.8-2.5
		s-1.9-2.4-2.5-3.8C27.6,23.1,27.3,21.5,27.3,19.7z M33.1,19.7c0,2.5,0.5,4.2,1.6,5.2c1.1,1,2.6,1.5,4.7,1.5c2,0,3.6-0.5,4.7-1.5
		c1.1-1,1.6-2.7,1.6-5.2c0-2.5-0.5-4.2-1.6-5.2c-1.1-1-2.6-1.5-4.7-1.5c-2,0-3.6,0.5-4.7,1.5C33.7,15.4,33.1,17.2,33.1,19.7z"/>
	<path class="st0" d="M56.9,24.2c0.2,0,0.6,0.1,1,0.4c0.4,0.2,1,0.5,1.6,0.8c0.6,0.3,1.3,0.5,2.1,0.8c0.8,0.2,1.6,0.4,2.4,0.4
		c1.1,0,2-0.1,2.4-0.3c0.5-0.2,0.7-0.6,0.7-1c0-0.6-0.3-1-1-1.4c-0.6-0.4-1.4-0.7-2.4-1c-1-0.3-2-0.7-3.1-1.1
		c-1.1-0.4-2.2-0.9-3.1-1.5c-1-0.6-1.8-1.4-2.4-2.3c-0.6-0.9-1-2.1-1-3.5c0-1.1,0.2-2.1,0.7-3c0.4-0.8,1.1-1.5,1.9-2.1
		c0.8-0.5,1.8-1,3-1.2c1.2-0.3,2.4-0.4,3.8-0.4c1.3,0,2.4,0.1,3.5,0.4c1,0.3,1.9,0.6,2.6,1c0.7,0.4,1.3,0.8,1.8,1.2
		c0.5,0.4,0.8,0.7,1.1,0.9c0.3,0.3,0.4,0.6,0.4,1.1c0,0.5-0.2,0.9-0.4,1.3c-0.2,0.4-0.5,0.8-0.9,1.1c-0.4,0.3-0.8,0.5-1.3,0.5
		c-0.2,0-0.5-0.1-1-0.4c-0.5-0.2-1-0.5-1.6-0.8c-0.6-0.3-1.3-0.5-2.1-0.8c-0.8-0.2-1.6-0.4-2.4-0.4c-1.1,0-2,0.1-2.4,0.3
		c-0.5,0.2-0.7,0.6-0.7,1c0,0.6,0.3,1,1,1.4c0.6,0.4,1.4,0.7,2.4,1c1,0.3,2,0.7,3.1,1.1c1.1,0.4,2.2,0.9,3.1,1.5
		c1,0.6,1.8,1.4,2.4,2.3c0.6,0.9,1,2.1,1,3.5c0,1.1-0.2,2.1-0.7,2.9c-0.4,0.9-1.1,1.6-1.9,2.1c-0.8,0.5-1.8,1-3,1.2
		c-1.2,0.3-2.4,0.4-3.8,0.4c-1.3,0-2.4-0.1-3.5-0.4c-1-0.3-1.9-0.6-2.6-1c-0.7-0.4-1.3-0.8-1.8-1.2c-0.5-0.4-0.8-0.7-1.1-0.9
		c-0.3-0.3-0.4-0.6-0.4-1.1c0-0.5,0.2-0.9,0.4-1.3c0.2-0.4,0.5-0.8,0.9-1.1C56.1,24.3,56.5,24.2,56.9,24.2z"/>
	<path class="st0" d="M75.8,19.7c0-1.8,0.3-3.4,0.9-4.9c0.6-1.5,1.4-2.8,2.5-3.8C80.2,9.9,81.5,9,83,8.5c1.5-0.6,3.1-0.9,4.9-0.9
		c1.8,0,3.4,0.3,4.9,0.9c1.5,0.6,2.8,1.4,3.8,2.5c1.1,1.1,1.9,2.4,2.5,3.8c0.6,1.5,0.9,3.1,0.9,4.9c0,1.8-0.3,3.4-0.9,4.9
		c-0.6,1.5-1.4,2.8-2.5,3.8c-1.1,1.1-2.4,1.9-3.8,2.5c-1.5,0.6-3.1,0.9-4.9,0.9c-1.8,0-3.4-0.3-4.9-0.9c-1.5-0.6-2.8-1.4-3.8-2.5
		c-1.1-1.1-1.9-2.4-2.5-3.8C76.1,23.1,75.8,21.5,75.8,19.7z M81.6,19.7c0,2.5,0.5,4.2,1.6,5.2c1.1,1,2.6,1.5,4.7,1.5
		s3.6-0.5,4.7-1.5c1.1-1,1.6-2.7,1.6-5.2c0-2.5-0.5-4.2-1.6-5.2c-1.1-1-2.6-1.5-4.7-1.5s-3.6,0.5-4.7,1.5
		C82.2,15.4,81.6,17.2,81.6,19.7z"/>
	<path class="st1" d="M24.6,18c0-1.8,0.3-3.4,0.9-4.9c0.6-1.5,1.4-2.8,2.5-3.8c1.1-1.1,2.4-1.9,3.8-2.5c1.5-0.6,3.1-0.9,4.9-0.9
		c1.8,0,3.4,0.3,4.9,0.9c1.5,0.6,2.8,1.4,3.8,2.5c1.1,1.1,1.9,2.4,2.5,3.8c0.6,1.5,0.9,3.1,0.9,4.9c0,1.8-0.3,3.4-0.9,4.9
		c-0.6,1.5-1.4,2.8-2.5,3.8c-1.1,1.1-2.4,1.9-3.8,2.5c-1.5,0.6-3.1,0.9-4.9,0.9c-1.8,0-3.4-0.3-4.9-0.9c-1.5-0.6-2.8-1.4-3.8-2.5
		c-1.1-1.1-1.9-2.4-2.5-3.8C24.9,21.5,24.6,19.8,24.6,18z M30.4,18c0,2.5,0.5,4.2,1.6,5.2c1.1,1,2.6,1.5,4.7,1.5s3.6-0.5,4.7-1.5
		c1.1-1,1.6-2.7,1.6-5.2c0-2.5-0.5-4.2-1.6-5.2c-1.1-1-2.6-1.5-4.7-1.5s-3.6,0.5-4.7,1.5C31,13.8,30.4,15.5,30.4,18z"/>
	<path class="st1" d="M54.2,22.5c0.2,0,0.6,0.1,1,0.4c0.4,0.2,1,0.5,1.6,0.8c0.6,0.3,1.3,0.5,2.1,0.8c0.8,0.2,1.6,0.4,2.4,0.4
		c1.1,0,2-0.1,2.4-0.3c0.5-0.2,0.7-0.6,0.7-1c0-0.6-0.3-1-1-1.4c-0.6-0.4-1.4-0.7-2.4-1c-1-0.3-2-0.7-3.1-1.1
		c-1.1-0.4-2.2-0.9-3.1-1.5c-1-0.6-1.8-1.4-2.4-2.3c-0.6-0.9-1-2.1-1-3.5c0-1.1,0.2-2.1,0.7-3c0.4-0.8,1.1-1.5,1.9-2.1
		c0.8-0.5,1.8-1,3-1.2C58.3,6,59.5,5.9,61,5.9c1.3,0,2.4,0.1,3.5,0.4c1,0.3,1.9,0.6,2.6,1c0.7,0.4,1.3,0.8,1.8,1.2
		c0.5,0.4,0.8,0.7,1.1,0.9c0.3,0.3,0.4,0.6,0.4,1.1c0,0.5-0.2,0.9-0.4,1.3c-0.2,0.4-0.5,0.8-0.9,1.1c-0.4,0.3-0.8,0.5-1.3,0.5
		c-0.2,0-0.5-0.1-1-0.4c-0.5-0.2-1-0.5-1.6-0.8c-0.6-0.3-1.3-0.5-2.1-0.8c-0.8-0.2-1.6-0.4-2.4-0.4c-1.1,0-2,0.1-2.4,0.3
		c-0.5,0.2-0.7,0.6-0.7,1c0,0.6,0.3,1,1,1.4c0.6,0.4,1.4,0.7,2.4,1c1,0.3,2,0.7,3.1,1.1C65,16.5,66,17,67,17.6
		c1,0.6,1.8,1.4,2.4,2.3c0.6,0.9,1,2.1,1,3.5c0,1.1-0.2,2.1-0.7,2.9c-0.4,0.9-1.1,1.6-1.9,2.1c-0.8,0.5-1.8,1-3,1.2
		c-1.2,0.3-2.4,0.4-3.8,0.4c-1.3,0-2.4-0.1-3.5-0.4c-1-0.3-1.9-0.6-2.6-1c-0.7-0.4-1.3-0.8-1.8-1.2c-0.5-0.4-0.8-0.7-1.1-0.9
		c-0.3-0.3-0.4-0.6-0.4-1.1c0-0.5,0.2-0.9,0.4-1.3c0.2-0.4,0.5-0.8,0.9-1.1C53.3,22.7,53.8,22.5,54.2,22.5z"/>
	<path class="st1" d="M73.1,18c0-1.8,0.3-3.4,0.9-4.9c0.6-1.5,1.4-2.8,2.5-3.8c1.1-1.1,2.4-1.9,3.8-2.5c1.5-0.6,3.1-0.9,4.9-0.9
		c1.8,0,3.4,0.3,4.9,0.9c1.5,0.6,2.8,1.4,3.8,2.5s1.9,2.4,2.5,3.8c0.6,1.5,0.9,3.1,0.9,4.9c0,1.8-0.3,3.4-0.9,4.9
		c-0.6,1.5-1.4,2.8-2.5,3.8c-1.1,1.1-2.4,1.9-3.8,2.5c-1.5,0.6-3.1,0.9-4.9,0.9c-1.8,0-3.4-0.3-4.9-0.9c-1.5-0.6-2.8-1.4-3.8-2.5
		c-1.1-1.1-1.9-2.4-2.5-3.8C73.4,21.5,73.1,19.8,73.1,18z M78.9,18c0,2.5,0.5,4.2,1.6,5.2c1.1,1,2.6,1.5,4.7,1.5s3.6-0.5,4.7-1.5
		c1.1-1,1.6-2.7,1.6-5.2c0-2.5-0.5-4.2-1.6-5.2c-1.1-1-2.6-1.5-4.7-1.5s-3.6,0.5-4.7,1.5C79.4,13.8,78.9,15.5,78.9,18z"/>
	<path class="st1" d="M30.5,42.1c0,0.3-0.1,0.6-0.2,0.9c-0.1,0.3-0.3,0.5-0.5,0.7c-0.2,0.2-0.5,0.4-0.8,0.5
		c-0.3,0.1-0.7,0.2-1.1,0.2c-0.4,0-0.8-0.1-1.1-0.2c-0.3-0.2-0.6-0.4-0.9-0.7c-0.2-0.3-0.4-0.6-0.5-1c-0.1-0.4-0.2-0.8-0.2-1.3v-0.7
		c0-0.5,0.1-0.9,0.2-1.3c0.1-0.4,0.3-0.7,0.6-1c0.2-0.3,0.5-0.5,0.9-0.7c0.4-0.2,0.7-0.2,1.2-0.2c0.4,0,0.7,0.1,1.1,0.2
		c0.3,0.1,0.6,0.3,0.8,0.5c0.2,0.2,0.4,0.4,0.5,0.7c0.1,0.3,0.2,0.6,0.2,1h-0.9c0-0.2-0.1-0.5-0.2-0.7c-0.1-0.2-0.2-0.4-0.3-0.5
		c-0.1-0.1-0.3-0.2-0.5-0.3C28.5,38.1,28.3,38,28,38c-0.3,0-0.6,0.1-0.8,0.2c-0.2,0.1-0.4,0.3-0.6,0.5c-0.2,0.2-0.3,0.5-0.4,0.8
		c-0.1,0.3-0.1,0.6-0.1,1v0.7c0,0.4,0,0.7,0.1,1c0.1,0.3,0.2,0.6,0.3,0.8c0.2,0.2,0.3,0.4,0.6,0.5c0.2,0.1,0.5,0.2,0.8,0.2
		c0.3,0,0.5,0,0.7-0.1c0.2-0.1,0.4-0.2,0.5-0.3c0.1-0.1,0.2-0.3,0.3-0.5c0.1-0.2,0.1-0.4,0.2-0.7L30.5,42.1L30.5,42.1z"/>
	<path class="st1" d="M37.2,41.1c0,0.5-0.1,1-0.2,1.4c-0.1,0.4-0.3,0.8-0.6,1.1c-0.3,0.3-0.5,0.5-0.9,0.7c-0.4,0.2-0.7,0.2-1.2,0.2
		c-0.4,0-0.8-0.1-1.1-0.2c-0.4-0.2-0.6-0.4-0.9-0.7c-0.3-0.3-0.4-0.6-0.6-1.1c-0.1-0.4-0.2-0.9-0.2-1.4v-0.4c0-0.5,0.1-1,0.2-1.4
		c0.1-0.4,0.3-0.8,0.6-1.1c0.3-0.3,0.5-0.5,0.9-0.7c0.4-0.2,0.7-0.2,1.1-0.2c0.4,0,0.8,0.1,1.2,0.2c0.4,0.2,0.6,0.4,0.9,0.7
		c0.3,0.3,0.4,0.6,0.6,1.1c0.1,0.4,0.2,0.9,0.2,1.4L37.2,41.1L37.2,41.1z M36.3,40.6c0-0.4,0-0.8-0.1-1.1c-0.1-0.3-0.2-0.6-0.4-0.8
		c-0.2-0.2-0.4-0.4-0.6-0.5c-0.2-0.1-0.5-0.2-0.8-0.2c-0.3,0-0.5,0.1-0.8,0.2c-0.2,0.1-0.4,0.3-0.6,0.5c-0.2,0.2-0.3,0.5-0.4,0.8
		c-0.1,0.3-0.1,0.7-0.1,1.1v0.4c0,0.4,0,0.8,0.1,1.1c0.1,0.3,0.2,0.6,0.4,0.8c0.2,0.2,0.4,0.4,0.6,0.5c0.2,0.1,0.5,0.2,0.8,0.2
		c0.3,0,0.6-0.1,0.8-0.2c0.2-0.1,0.4-0.3,0.6-0.5c0.2-0.2,0.3-0.5,0.4-0.8c0.1-0.3,0.1-0.7,0.1-1.1L36.3,40.6L36.3,40.6z"/>
	<path class="st1" d="M39.7,37.3l2.3,5.7l2.3-5.7h1.2v7h-0.9v-2.7l0.1-2.9l-2.3,5.6h-0.7l-2.3-5.6l0.1,2.9v2.7h-0.9v-7H39.7z"/>
	<path class="st1" d="M52.1,37.3v4.7c0,0.4-0.1,0.7-0.2,1c-0.1,0.3-0.3,0.5-0.5,0.7c-0.2,0.2-0.5,0.3-0.8,0.4
		c-0.3,0.1-0.6,0.1-1,0.1s-0.7-0.1-1-0.1c-0.3-0.1-0.6-0.2-0.8-0.4c-0.2-0.2-0.4-0.4-0.5-0.7c-0.1-0.3-0.2-0.6-0.2-1v-4.7h0.9v4.7
		c0,0.3,0,0.5,0.1,0.7c0.1,0.2,0.2,0.4,0.3,0.5c0.1,0.1,0.3,0.2,0.5,0.3c0.2,0.1,0.4,0.1,0.7,0.1c0.2,0,0.5,0,0.7-0.1
		c0.2-0.1,0.4-0.2,0.5-0.3c0.1-0.1,0.3-0.3,0.3-0.5c0.1-0.2,0.1-0.4,0.1-0.7v-4.7H52.1z"/>
	<path class="st1" d="M58.9,44.3H58L54.4,39v5.4h-0.9v-7h0.9l3.5,5.4v-5.4h0.9V44.3z"/>
	<path class="st1" d="M61.5,37.3h-0.9v7h0.9V37.3z"/>
	<path class="st1" d="M68.3,42.1c0,0.3-0.1,0.6-0.2,0.9c-0.1,0.3-0.3,0.5-0.5,0.7c-0.2,0.2-0.5,0.4-0.8,0.5
		c-0.3,0.1-0.7,0.2-1.1,0.2s-0.8-0.1-1.1-0.2c-0.3-0.2-0.6-0.4-0.9-0.7c-0.2-0.3-0.4-0.6-0.5-1C63,42.2,63,41.7,63,41.2v-0.7
		c0-0.5,0.1-0.9,0.2-1.3c0.1-0.4,0.3-0.7,0.6-1c0.2-0.3,0.5-0.5,0.9-0.7c0.4-0.2,0.7-0.2,1.2-0.2c0.4,0,0.7,0.1,1.1,0.2
		c0.3,0.1,0.6,0.3,0.8,0.5c0.2,0.2,0.4,0.4,0.5,0.7c0.1,0.3,0.2,0.6,0.2,1h-0.9c0-0.2-0.1-0.5-0.2-0.7c-0.1-0.2-0.2-0.4-0.3-0.5
		c-0.1-0.1-0.3-0.2-0.5-0.3c-0.2-0.1-0.4-0.1-0.7-0.1c-0.3,0-0.6,0.1-0.8,0.2c-0.2,0.1-0.4,0.3-0.6,0.5c-0.2,0.2-0.3,0.5-0.4,0.8
		c-0.1,0.3-0.1,0.6-0.1,1v0.7c0,0.4,0,0.7,0.1,1c0.1,0.3,0.2,0.6,0.3,0.8c0.2,0.2,0.3,0.4,0.6,0.5c0.2,0.1,0.5,0.2,0.8,0.2
		c0.3,0,0.5,0,0.7-0.1c0.2-0.1,0.4-0.2,0.5-0.3c0.1-0.1,0.2-0.3,0.3-0.5c0.1-0.2,0.1-0.4,0.2-0.7L68.3,42.1L68.3,42.1z"/>
	<path class="st1" d="M73.5,42.5h-2.9l-0.7,1.8h-1l2.7-7h0.8l2.7,7h-0.9L73.5,42.5z M70.8,41.8h2.4L72,38.5L70.8,41.8z"/>
	<path class="st1" d="M81.1,42.1c0,0.3-0.1,0.6-0.2,0.9c-0.1,0.3-0.3,0.5-0.5,0.7c-0.2,0.2-0.5,0.4-0.8,0.5
		c-0.3,0.1-0.7,0.2-1.1,0.2s-0.8-0.1-1.1-0.2c-0.3-0.2-0.6-0.4-0.9-0.7c-0.2-0.3-0.4-0.6-0.5-1c-0.1-0.4-0.2-0.8-0.2-1.3v-0.7
		c0-0.5,0.1-0.9,0.2-1.3c0.1-0.4,0.3-0.7,0.6-1c0.2-0.3,0.5-0.5,0.9-0.7c0.4-0.2,0.7-0.2,1.2-0.2c0.4,0,0.7,0.1,1.1,0.2
		c0.3,0.1,0.6,0.3,0.8,0.5c0.2,0.2,0.4,0.4,0.5,0.7c0.1,0.3,0.2,0.6,0.2,1h-0.9c0-0.2-0.1-0.5-0.2-0.7c-0.1-0.2-0.2-0.4-0.3-0.5
		c-0.1-0.1-0.3-0.2-0.5-0.3c-0.2-0.1-0.4-0.1-0.7-0.1c-0.3,0-0.6,0.1-0.8,0.2c-0.2,0.1-0.4,0.3-0.6,0.5c-0.2,0.2-0.3,0.5-0.4,0.8
		c-0.1,0.3-0.1,0.6-0.1,1v0.7c0,0.4,0,0.7,0.1,1c0.1,0.3,0.2,0.6,0.3,0.8c0.2,0.2,0.3,0.4,0.6,0.5c0.2,0.1,0.5,0.2,0.8,0.2
		c0.3,0,0.5,0,0.7-0.1c0.2-0.1,0.4-0.2,0.5-0.3c0.1-0.1,0.2-0.3,0.3-0.5c0.1-0.2,0.1-0.4,0.2-0.7L81.1,42.1L81.1,42.1z"/>
	<path class="st1" d="M83.4,37.3h-0.9v7h0.9V37.3z"/>
	<path class="st1" d="M90.4,41.1c0,0.5-0.1,1-0.2,1.4c-0.1,0.4-0.3,0.8-0.6,1.1c-0.2,0.3-0.5,0.5-0.9,0.7c-0.4,0.2-0.7,0.2-1.2,0.2
		c-0.4,0-0.8-0.1-1.1-0.2c-0.4-0.2-0.6-0.4-0.9-0.7c-0.3-0.3-0.4-0.6-0.6-1.1c-0.1-0.4-0.2-0.9-0.2-1.4v-0.4c0-0.5,0.1-1,0.2-1.4
		c0.1-0.4,0.3-0.8,0.6-1.1c0.3-0.3,0.5-0.5,0.9-0.7c0.4-0.2,0.7-0.2,1.1-0.2c0.4,0,0.8,0.1,1.2,0.2c0.4,0.2,0.6,0.4,0.9,0.7
		c0.3,0.3,0.4,0.6,0.6,1.1c0.1,0.4,0.2,0.9,0.2,1.4L90.4,41.1L90.4,41.1z M89.5,40.6c0-0.4,0-0.8-0.1-1.1c-0.1-0.3-0.2-0.6-0.4-0.8
		c-0.2-0.2-0.4-0.4-0.6-0.5c-0.2-0.1-0.5-0.2-0.8-0.2c-0.3,0-0.5,0.1-0.8,0.2c-0.2,0.1-0.4,0.3-0.6,0.5c-0.2,0.2-0.3,0.5-0.4,0.8
		c-0.1,0.3-0.1,0.7-0.1,1.1v0.4c0,0.4,0,0.8,0.1,1.1c0.1,0.3,0.2,0.6,0.4,0.8c0.2,0.2,0.4,0.4,0.6,0.5c0.2,0.1,0.5,0.2,0.8,0.2
		c0.3,0,0.6-0.1,0.8-0.2c0.2-0.1,0.4-0.3,0.6-0.5c0.2-0.2,0.3-0.5,0.4-0.8c0.1-0.3,0.1-0.7,0.1-1.1L89.5,40.6L89.5,40.6z M88.1,35.5
		h1.1l-1.3,1.4h-0.7L88.1,35.5z"/>
	<path class="st1" d="M97.2,44.3h-0.9L92.7,39v5.4h-0.9v-7h0.9l3.5,5.4v-5.4h0.9V44.3z"/>
	<path class="st0" d="M8.7,13.2c0.7,0,1.4-0.4,1.9-1c0.5-0.6,0.7-1.4,0.7-2.3c0-0.8-0.3-1.7-0.7-2.3c-0.5-0.7-1.2-1-1.9-1
		c-0.7,0-1.4,0.4-1.9,1C6.3,8.3,6,9.1,6,9.9c0,0.8,0.3,1.7,0.7,2.3C7.2,12.8,7.9,13.2,8.7,13.2z"/>
	<path class="st0" d="M14.5,13.2c0.7,0,1.4-0.4,1.9-1c0.4-0.6,0.7-1.4,0.7-2.3c0-0.8-0.3-1.7-0.7-2.3c-0.5-0.7-1.2-1-1.9-1
		S13,7,12.6,7.7c-0.4,0.6-0.7,1.4-0.7,2.3c0,0.8,0.3,1.7,0.7,2.3C13,12.8,13.7,13.2,14.5,13.2z"/>
	<path class="st0" d="M20.6,13.3c-0.4-0.6-1-0.9-1.7-0.9c-0.6,0-1.3,0.3-1.7,0.9c-0.4,0.5-0.6,1.2-0.6,2c0,0.7,0.2,1.4,0.6,2
		c0.4,0.6,1,0.9,1.7,0.9c0.6,0,1.3-0.3,1.7-0.9c0.4-0.5,0.6-1.2,0.6-2C21.2,14.5,21,13.8,20.6,13.3z"/>
	<path class="st0" d="M5.6,13.3c-0.4-0.6-1-0.9-1.7-0.9s-1.3,0.3-1.7,0.9c-0.4,0.5-0.6,1.2-0.6,2c0,0.7,0.2,1.4,0.6,2
		c0.4,0.6,1,0.9,1.7,0.9s1.3-0.3,1.7-0.9c0.4-0.5,0.6-1.2,0.6-2C6.2,14.5,6,13.8,5.6,13.3z"/>
	<path class="st0" d="M5.8,18.8c0,0-4.7,5.4,2.3,9.6c1.3,0.8,2.8,1.3,4.4,1.3c1.7,0.1,3.7-0.4,4.8-2.3c2.1-3.7,0.7-6.9,0.7-6.9
		s-2.3-5.6-6.7-4.9c-0.1,0-0.2,0-0.2,0C10.4,15.7,8.1,16.1,5.8,18.8z"/>
	<path class="st1" d="M7,12.1c0.7,0,1.4-0.4,1.9-1c0.4-0.6,0.7-1.4,0.7-2.3C9.7,8,9.4,7.2,9,6.6c-0.5-0.7-1.2-1-1.9-1
		c-0.7,0-1.4,0.4-1.9,1C4.7,7.2,4.4,8,4.4,8.8c0,0.8,0.3,1.7,0.7,2.3C5.6,11.8,6.3,12.1,7,12.1z"/>
	<path class="st1" d="M12.8,12.1c0.7,0,1.4-0.4,1.9-1c0.4-0.6,0.7-1.4,0.7-2.3c0-0.8-0.3-1.7-0.7-2.3c-0.5-0.7-1.2-1-1.9-1
		c-0.7,0-1.4,0.4-1.9,1c-0.4,0.6-0.7,1.4-0.7,2.3c0,0.8,0.3,1.7,0.7,2.3C11.4,11.8,12.1,12.1,12.8,12.1z"/>
	<path class="st1" d="M18.9,12.2c-0.4-0.6-1-0.9-1.7-0.9c-0.6,0-1.3,0.3-1.7,0.9c-0.4,0.5-0.6,1.2-0.6,2c0,0.7,0.2,1.4,0.6,2
		c0.4,0.6,1,0.9,1.7,0.9c0.6,0,1.3-0.3,1.7-0.9c0.4-0.5,0.6-1.2,0.6-2C19.5,13.4,19.3,12.7,18.9,12.2z"/>
	<path class="st1" d="M4,12.2c-0.4-0.6-1-0.9-1.7-0.9s-1.3,0.3-1.7,0.9c-0.4,0.5-0.6,1.2-0.6,2c0,0.7,0.2,1.4,0.6,2
		C1,16.7,1.6,17,2.3,17s1.3-0.3,1.7-0.9c0.4-0.5,0.6-1.2,0.6-2C4.6,13.4,4.4,12.7,4,12.2z"/>
	<path class="st1" d="M4.1,17.7c0,0-4.7,5.4,2.3,9.6c1.3,0.8,2.8,1.3,4.4,1.3c1.7,0.1,3.7-0.4,4.8-2.3c2.1-3.7,0.7-6.9,0.7-6.9
		s-2.3-5.6-6.7-4.9c-0.1,0-0.2,0-0.2,0C8.8,14.6,6.4,15,4.1,17.7z"/>
</g>
</svg>
