<?xml version="1.0" encoding="utf-8"?>
<!-- Generator: Adobe Illustrator 26.0.3, SVG Export Plug-In . SVG Version: 6.00 Build 0)  -->
<svg version="1.1" id="Capa_1" xmlns="http://www.w3.org/2000/svg" xmlns:xlink="http://www.w3.org/1999/xlink" x="0px" y="0px"
	 viewBox="0 0 24 24" style="enable-background:new 0 0 24 24;" xml:space="preserve">
<style type="text/css">
	.st0{fill:#FFD104;}
</style>
<g>
	<path class="st0" d="M9.4,0c4.5-0.1,8.7,3.3,9.3,8.1c0.3,2.2-0.1,4.2-1.3,6.1c-0.2,0.3-0.1,0.4,0.1,0.6c2,2,4,3.9,5.9,5.9
		c0.9,0.9,0.7,2.4-0.4,3c-0.8,0.4-1.7,0.3-2.3-0.3c-2-2-3.9-3.9-5.9-5.9c-0.2-0.2-0.4-0.3-0.7-0.1c-3.3,2-7.7,1.7-10.7-0.8
		c-2.5-2-3.6-4.8-3.4-8c0.1-2.1,1-3.9,2.4-5.4C4,1.4,6,0.3,8.4,0.1C8.7,0,9,0,9.4,0z M1,9.4c-0.1,4.4,3.6,8.4,8.4,8.4
		c4.7,0,8.3-3.7,8.4-8.4C17.8,4.7,14,1,9.4,1C4.7,1,1,4.7,1,9.4z M22.1,23c0.4,0,0.7-0.1,0.8-0.5c0.2-0.4,0.1-0.8-0.2-1.1
		c-1.3-1.3-2.6-2.6-3.9-3.9c-0.1-0.1-0.3-0.1-0.4,0c-0.3,0.3-0.6,0.6-0.9,0.9c-0.2,0.1-0.1,0.3,0,0.4c1.3,1.3,2.5,2.5,3.8,3.8
		C21.5,22.8,21.8,23,22.1,23z M16.6,15.4c-0.1,0-0.1,0.1-0.1,0.1c-0.3,0.4-0.6,0.7-1,1c-0.1,0.1-0.1,0.2,0,0.3
		c0.3,0.3,0.6,0.6,0.9,1c0.1,0.1,0.2,0.1,0.3,0c0.4-0.3,0.7-0.6,1-1c0.1-0.1,0.1-0.2,0-0.4c-0.3-0.3-0.6-0.6-0.9-0.9
		C16.8,15.5,16.7,15.4,16.6,15.4z"/>
	<path class="st0" d="M1.9,9.3c0-4.2,3.4-7.5,7.7-7.5c4,0,7.4,3.3,7.4,7.5s-3.3,7.5-7.5,7.5C5,16.9,1.9,13.4,1.9,9.3z M15.9,9.4
		C16,5.9,13,2.9,9.4,2.9S2.8,5.8,2.8,9.4s2.9,6.5,6.5,6.5S16,12.9,15.9,9.4z"/>
	<path class="st0" d="M9.7,3.7c2.2,0.2,3.8,1.3,4.8,3.4c0,0.1,0.1,0.1,0.1,0.2c0.1,0.3,0,0.5-0.3,0.6s-0.5,0-0.6-0.3
		c-0.2-0.5-0.5-1-0.9-1.4c-0.9-1-2-1.5-3.3-1.5c-0.4,0-0.6-0.2-0.6-0.5C8.9,3.9,9.2,3.7,9.7,3.7z"/>
	<path class="st0" d="M15,9.4c0,0.3-0.3,0.5-0.5,0.5S14,9.6,14,9.4c0-0.3,0.2-0.5,0.5-0.5S15,9.1,15,9.4z"/>
</g>
</svg>
