<?xml version="1.0" encoding="utf-8"?>
<!-- Generator: Adobe Illustrator 26.0.3, SVG Export Plug-In . SVG Version: 6.00 Build 0)  -->
<svg version="1.1" id="Capa_1" xmlns="http://www.w3.org/2000/svg" xmlns:xlink="http://www.w3.org/1999/xlink" x="0px" y="0px"
	 viewBox="0 0 24 24" style="enable-background:new 0 0 24 24;" xml:space="preserve">
<style type="text/css">
	.st0{fill:#FFD104;}
</style>
<g>
	<path class="st0" d="M12,0.8c2.9,0,5.8,0,8.6,0c1.4,0,2.2,0.8,2.2,2.2c0,2.7,0,5.4,0,8.1c0,0.3,0.1,0.5,0.4,0.6
		c0.5,0.2,0.8,0.6,0.8,1.1c0,3,0,6.1,0,9.2c0,0.7-0.5,1.2-1.2,1.2c-1.5,0-2.9,0-4.3,0c-0.8,0-1.3-0.5-1.3-1.3c0-1.3,0-2.6,0-3.9
		c0-0.3-0.1-0.5-0.4-0.4c-0.5,0-0.9,0-1.4,0c-0.3,0-0.3,0.1-0.3,0.3c0.2,0.8,0.4,1.5,0.6,2.3c0.3,1.1-0.4,1.8-1.3,1.8
		c-0.9,0-1.8,0-2.7,0c-0.3,0-0.4,0.1-0.5,0.3c-0.1,0.5-0.6,0.9-1.2,0.9c-2.9,0-5.8,0-8.8,0c-0.6,0-1.1-0.4-1.2-1.1
		c0-0.2,0-0.4,0-0.6c0-3.7,0-7.4,0-11.1C0,9.6,0.2,9,1,8.8c0.3-0.1,0.2-0.3,0.2-0.5c0-1.8,0-3.6,0-5.3c0-0.9,0.4-1.6,1.3-2
		c0.3-0.1,0.6-0.1,0.9-0.1C6.2,0.8,9.1,0.8,12,0.8z M12,1.7c-2.9,0-5.8,0-8.6,0c-0.8,0-1.2,0.4-1.2,1.2c0,1.8,0,3.6,0,5.4
		c0,0.5,0,0.5,0.5,0.5c2.4,0,4.7,0,7.1,0c1.1,0,1.6,0.5,1.6,1.6c0,0.9,0,1.8,0,2.7c0,0.5,0,0.5,0.5,0.5c1.6,0,3.2,0,4.9,0
		c0.5,0,0.5,0,0.5-0.5c0-0.9,0.5-1.4,1.4-1.5c0.9,0,1.9,0,2.8,0c0.5,0,0.5,0,0.5-0.5c0-2.7,0-5.3,0-8c0-1-0.4-1.4-1.4-1.4
		C17.7,1.7,14.8,1.7,12,1.7z M5.6,20.4c1.4,0,2.8,0,4.3,0c0.3,0,0.5-0.1,0.5-0.5c0-2.6,0-5.2,0-7.8c0-0.3-0.1-0.4-0.4-0.4
		c-2.9,0-5.7,0-8.6,0c-0.3,0-0.4,0.1-0.4,0.4c0,2.6,0,5.2,0,7.8c0,0.4,0.1,0.5,0.5,0.5C2.8,20.3,4.2,20.4,5.6,20.4z M23.1,17.4
		c0-0.9,0-1.7,0-2.6c0-0.3-0.1-0.4-0.4-0.4c-1.5,0-2.9,0-4.3,0c-0.3,0-0.4,0.1-0.4,0.4c0,1.7,0,3.4,0,5.1c0,0.3,0.1,0.4,0.4,0.4
		c1.5,0,2.9,0,4.3,0c0.3,0,0.4-0.1,0.4-0.4C23.1,19.1,23.1,18.3,23.1,17.4z M14.2,16.7c0.9,0,1.7,0,2.6,0c0.3,0,0.4-0.1,0.4-0.4
		c0-0.5,0-1,0-1.6c0-0.3-0.1-0.4-0.4-0.4c-1.7,0-3.4,0-5.2,0c-0.3,0-0.4,0.1-0.4,0.4c0,0.5,0,1,0,1.5c0,0.3,0.1,0.4,0.4,0.4
		C12.5,16.7,13.3,16.7,14.2,16.7z M5.6,10.8c1.5,0,2.9,0,4.3,0c0.3,0,0.4-0.1,0.4-0.4c0-0.7,0-0.7-0.7-0.7c-2.6,0-5.3,0-7.9,0
		c-0.1,0-0.3,0-0.4,0c-0.4,0-0.4,0.2-0.4,0.7c0,0.3,0.2,0.4,0.4,0.4C2.8,10.8,4.2,10.8,5.6,10.8z M5.6,21.2c-1.5,0-2.9,0-4.3,0
		c-0.1,0-0.3,0-0.4,0.1c-0.3,0.5,0,1,0.6,1c1.7,0,3.4,0,5.2,0c1.1,0,2.1,0,3.2,0c0.4,0,0.5-0.1,0.5-0.7c0-0.4-0.2-0.4-0.5-0.4
		C8.5,21.2,7,21.2,5.6,21.2z M12.9,19.5c0.4,0,0.9,0,1.3,0c0.2,0,0.3-0.1,0.2-0.3c-0.1-0.4-0.2-0.9-0.4-1.3
		c-0.1-0.2-0.2-0.3-0.4-0.3c-0.7,0-1.4,0-2.1,0c-0.3,0-0.4,0.1-0.4,0.4c0,0.4,0,0.8,0,1.2c0,0.3,0.1,0.4,0.4,0.4
		C12.1,19.5,12.5,19.5,12.9,19.5z M20.6,21.2c-0.7,0-1.5,0-2.2,0c-0.1,0-0.3,0-0.3,0.1c-0.3,0.5,0.1,1,0.6,1c1.3,0,2.5,0,3.8,0
		c0.6,0,0.7-0.1,0.7-0.7c0-0.3-0.1-0.4-0.4-0.4C22,21.2,21.3,21.2,20.6,21.2z M20.5,13.5c0.7,0,1.5,0,2.2,0c0.1,0,0.3,0,0.4-0.1
		c0.2-0.5-0.1-1-0.6-1c-1.3,0-2.5,0-3.8,0c-0.1,0-0.2,0-0.3,0C18,12.5,18,12.6,18,13.2c0,0.4,0.2,0.3,0.5,0.3
		C19.2,13.5,19.8,13.5,20.5,13.5z M13,21.1c0.5,0,1,0,1.5,0c0.2,0,0.4-0.1,0.4-0.4s-0.2-0.3-0.4-0.3c-1,0-1.9,0-2.9,0
		c-0.3,0-0.4,0.1-0.4,0.4s0.1,0.4,0.4,0.4C12.1,21.1,12.5,21.1,13,21.1z"/>
	<path class="st0" d="M13.4,5.9c0,0.1-0.1,0.2-0.1,0.3c-0.7,0.7-1.3,1.3-2,2c-0.3,0.3-0.4,0-0.6-0.1c-0.2-0.2-0.2-0.3,0-0.5
		c0.7-0.6,1.3-1.3,2-2c0.1-0.1,0.2-0.3,0.3-0.2C13.2,5.5,13.4,5.7,13.4,5.9z"/>
	<path class="st0" d="M14.1,6.9c0.1-0.1,0.1-0.2,0.2-0.2c0.7-0.7,1.3-1.3,2-2c0.3-0.3,0.4-0.1,0.5,0.1s0.4,0.3,0.1,0.5
		c-0.7,0.6-1.3,1.3-2,2c-0.1,0.1-0.2,0.3-0.4,0.1C14.4,7.3,14.2,7.1,14.1,6.9z"/>
	<path class="st0" d="M15.3,3c0.2,0.1,0.4,0.3,0.5,0.5c0.1,0.1-0.1,0.2-0.1,0.3c-0.4,0.4-0.8,0.8-1.2,1.2c-0.2,0.3-0.4,0.1-0.5-0.1
		c-0.1-0.1-0.4-0.3-0.1-0.5c0.4-0.4,0.8-0.8,1.2-1.2C15.1,3.1,15.2,3,15.3,3z"/>
	<path class="st0" d="M13.9,8.3c-0.1,0.1-0.1,0.1-0.2,0.2c-0.4,0.4-0.8,0.8-1.2,1.2c-0.1,0.2-0.3,0.1-0.4,0c-0.4-0.4-0.4-0.4,0-0.8
		c0.3-0.3,0.7-0.7,1-1c0.1-0.1,0.2-0.2,0.3-0.1C13.6,7.9,13.8,8.1,13.9,8.3z"/>
	<path class="st0" d="M3.6,2.8c0.1,0.3-0.1,0.4-0.4,0.4c-0.4,0-0.4-0.1-0.4-0.5S3,2.3,3.3,2.3C3.6,2.4,3.7,2.5,3.6,2.8z"/>
	<path class="st0" d="M4.8,3.2C4.4,3.3,4.4,3.1,4.4,2.8c0-0.4,0.1-0.4,0.5-0.4c0.3,0,0.4,0.1,0.4,0.4C5.2,3.2,5.1,3.3,4.8,3.2z"/>
	<path class="st0" d="M6.4,3.2C6,3.3,6,3.1,6,2.8s0.1-0.4,0.4-0.4s0.4,0.1,0.4,0.4C6.9,3.1,6.8,3.3,6.4,3.2z"/>
	<path class="st0" d="M9.1,14.2c0,0.1-0.1,0.2-0.1,0.3c-1.5,1.5-3,2.9-4.5,4.4C4.3,19.1,4.1,19,4,18.8s-0.4-0.3-0.1-0.5
		c1.5-1.5,2.9-2.9,4.4-4.4c0.1-0.1,0.3-0.2,0.4,0C8.8,14,9,14.1,9.1,14.2z"/>
	<path class="st0" d="M7.5,13.1c0,0.1-0.1,0.1-0.1,0.2c-0.7,0.7-1.3,1.3-2,2c-0.3,0.3-0.4,0-0.5-0.1c-0.2-0.1-0.3-0.3-0.1-0.5
		c0.7-0.7,1.3-1.3,2-2c0.1-0.1,0.2-0.2,0.3-0.1C7.2,12.7,7.4,12.9,7.5,13.1z"/>
	<path class="st0" d="M4.3,16.2c0,0.1-0.1,0.2-0.1,0.2c-0.4,0.4-0.8,0.8-1.2,1.3c-0.2,0.2-0.3,0-0.5-0.1c-0.1-0.1-0.4-0.3-0.1-0.5
		c0.4-0.4,0.8-0.8,1.2-1.2c0.1-0.1,0.2-0.3,0.3-0.2C4,15.9,4.2,16,4.3,16.2z"/>
	<path class="st0" d="M20.9,15.3c0.2,0.1,0.4,0.3,0.5,0.4c0.1,0.2-0.1,0.3-0.2,0.3c-0.5,0.5-1.1,1-1.5,1.6c-0.2,0.3-0.4,0.1-0.5-0.1
		s-0.4-0.3-0.1-0.5c0.5-0.5,1.1-1.1,1.6-1.6C20.7,15.4,20.8,15.3,20.9,15.3z"/>
	<path class="st0" d="M22.2,17.5c0,0.1-0.1,0.2-0.1,0.2c-0.5,0.5-1.1,1.1-1.6,1.7c-0.2,0.2-0.3,0.1-0.4,0c-0.4-0.4-0.4-0.4,0-0.8
		c0.5-0.5,0.9-0.9,1.4-1.4c0.1-0.1,0.2-0.3,0.3-0.2C21.9,17.1,22.1,17.3,22.2,17.5z"/>
</g>
</svg>
