<?xml version="1.0" encoding="utf-8"?>
<!-- Generator: Adobe Illustrator 26.0.3, SVG Export Plug-In . SVG Version: 6.00 Build 0)  -->
<svg version="1.1" id="Capa_1" xmlns="http://www.w3.org/2000/svg" xmlns:xlink="http://www.w3.org/1999/xlink" x="0px" y="0px"
	 viewBox="0 0 24 24" style="enable-background:new 0 0 24 24;" xml:space="preserve">
<style type="text/css">
	.st0{fill:#FFD104;}
</style>
<g>
	<path class="st0" d="M12.1,1.3c3.4,0,6.9,0,10.3,0c1.1,0,1.6,0.6,1.6,1.7c0,4.7,0,9.4,0,14.2c0,1-0.5,1.5-1.4,1.7
		c-0.2,0-0.4,0-0.6,0c-2,0-4,0-6,0c-0.6,0-0.7,0.1-0.6,0.6c0,0.6,0.1,1.2,0.6,1.6c0.3,0.3,0.7,0.4,1.1,0.4c0.6,0,1.1,0,1.7,0
		c0.3,0,0.5,0.2,0.5,0.5c0,0.3-0.2,0.5-0.5,0.6c-0.1,0-0.3,0-0.5,0c-4.2,0-8.4,0-12.6,0c-0.6,0-0.9-0.2-0.9-0.6
		c0-0.4,0.3-0.6,0.9-0.6c0.4,0,0.9,0,1.3,0c0.9,0,1.6-0.6,1.6-1.5c0-0.2,0-0.5,0.1-0.7c0-0.3-0.1-0.5-0.4-0.5c-0.7,0-1.5,0-2.2,0
		c-1.4,0-2.7,0-4.1,0c-0.2,0-0.4,0-0.6,0C0.5,18.6,0,18.1,0,17.2c0-1.2,0-2.5,0-3.7C0,10,0,6.5,0,3c0-1.2,0.5-1.7,1.7-1.7
		C5.2,1.3,8.6,1.3,12.1,1.3z M12,13.2c3.5,0,6.9,0,10.4,0c0.4,0,0.5-0.1,0.5-0.5c0-3.2,0-6.4,0-9.6c0-0.6-0.1-0.7-0.7-0.7
		c-6.8,0-13.6,0-20.3,0c-0.6,0-0.7,0.1-0.7,0.7c0,3.2,0,6.4,0,9.6c0,0.5,0,0.5,0.5,0.5C5.1,13.2,8.5,13.2,12,13.2z M12.1,14.5
		c-3.5,0-6.9,0-10.4,0c-0.4,0-0.5,0.1-0.5,0.5c0,0.7,0,1.4,0,2.1c0,0.4,0.1,0.5,0.5,0.5c6.9,0,13.7,0,20.6,0c0.5,0,0.5-0.1,0.6-0.6
		c0-0.7,0-1.3,0-2c0-0.5,0-0.5-0.5-0.5C18.9,14.5,15.5,14.5,12.1,14.5z M12,21.5c0.8,0,1.6,0,2.4,0c0.1,0,0.4,0,0.2-0.2
		c-0.3-0.6-0.4-1.3-0.4-2c0-0.3-0.1-0.5-0.5-0.5c-1.1,0-2.3,0-3.4,0c-0.5,0-0.5,0-0.5,0.5c0,0.6,0,1.3-0.3,1.8
		c-0.2,0.3,0,0.3,0.2,0.3C10.5,21.5,11.2,21.5,12,21.5z"/>
	<path class="st0" d="M13.1,5.5c0,0.2-0.1,0.4-0.2,0.5c-1.3,1.3-2.5,2.5-3.8,3.8C8.8,10,8.5,10,8.3,9.8C8.1,9.6,8,9.2,8.3,9
		C9,8.2,9.7,7.6,10.4,6.9c0.6-0.6,1.1-1.1,1.7-1.7c0.2-0.2,0.4-0.3,0.7-0.2C13,5.1,13.1,5.3,13.1,5.5z"/>
	<path class="st0" d="M15.5,7.8c0,0.2-0.1,0.3-0.2,0.5c-0.5,0.5-1,1-1.5,1.5c-0.3,0.3-0.6,0.3-0.8,0c-0.2-0.2-0.2-0.5,0-0.8
		c0.5-0.5,1-1,1.5-1.5c0.2-0.2,0.4-0.3,0.6-0.1C15.3,7.3,15.4,7.5,15.5,7.8z"/>
	<path class="st0" d="M12,15.4c0.3,0,0.6,0.3,0.7,0.6c0,0.3-0.3,0.7-0.6,0.7c-0.3,0-0.7-0.3-0.7-0.6C11.4,15.7,11.7,15.4,12,15.4z"
		/>
</g>
</svg>
