<?xml version="1.0" encoding="utf-8"?>
<!-- Generator: Adobe Illustrator 26.0.3, SVG Export Plug-In . SVG Version: 6.00 Build 0)  -->
<svg version="1.1" id="Capa_1" xmlns="http://www.w3.org/2000/svg" xmlns:xlink="http://www.w3.org/1999/xlink" x="0px" y="0px"
	 viewBox="0 0 24 24" style="enable-background:new 0 0 24 24;" xml:space="preserve">
<style type="text/css">
	.st0{fill:#FFD104;}
</style>
<g>
	<path class="st0" d="M17.2,6.1c-0.2,0.4-0.4,0.8-0.5,1.1c-0.1,0.2,0,0.3,0.2,0.4c0.8,0.3,1.5,0.8,2.1,1.5c0.2,0.3,0.5,0.5,0.7,0.8
		c0.1,0.2,0.3,0.3,0.5,0.3c0.6,0,1.3,0,1.9,0c0.5,0,0.9-0.3,0.9-0.9c0-2.1,0-4.1,0-6.2c0-0.5-0.4-0.9-0.9-0.9c-0.5,0-1,0-1.5,0
		c-4.1,0-8.2,0-12.3,0c-0.2,0-0.4,0-0.5,0C7.5,2.2,7.4,2,7.4,1.8c0-0.2,0.1-0.4,0.3-0.5C7.8,1.3,8,1.3,8.2,1.3c4.6,0,9.1,0,13.7,0
		c1.3,0,2.1,0.8,2.1,2.1c0,1.9,0,3.8,0,5.8c0,1.3-0.8,2.1-2.1,2.1c-0.4,0-0.8,0-1.2,0c-0.4,0-0.4,0-0.3,0.4c0.5,2,0.1,3.8-1.1,5.4
		c-0.2,0.3-0.5,0.5-0.7,0.7c-0.2,0.1-0.2,0.2,0,0.4c1.1,1.1,2.2,2.2,3.2,3.2c0.3,0.3,0.7,0.4,0.9,0.2c0.3-0.2,0.3-0.7,0-1
		c-0.4-0.5-0.9-0.9-1.3-1.3c-0.3-0.3-0.2-0.6,0-0.8c0.2-0.2,0.4-0.1,0.6,0c0.6,0.6,1.2,1.1,1.7,1.7c0.4,0.6,0.3,1.5-0.2,2
		c-0.5,0.5-1.4,0.6-2,0.2c-0.2-0.1-0.4-0.3-0.5-0.5c-1.1-1-2.1-2.1-3.1-3.2c-0.2-0.2-0.4-0.2-0.7-0.1c-3.7,1.8-8.1-0.6-8.7-4.7
		c-0.1-0.8-0.1-1.6,0.2-2.4c0.1-0.5,0.1-0.5-0.4-0.5c-2.1,0-4.2,0-6.2,0c-1.2,0-2-0.8-2-2c0-2,0-3.9,0-5.9c0-1.2,0.8-2,2-2.1
		c0.6,0,1.1,0,1.7,0c0.4,0,0.6,0.2,0.7,0.5c0,0.3-0.2,0.5-0.7,0.5c-0.6,0-1.1,0-1.7,0c-0.6,0-1,0.3-1,1c0,2,0,4,0,6c0,0.7,0.3,1,1,1
		c2.3,0,4.6,0,6.9,0c0.3,0,0.4-0.1,0.6-0.3c0.6-0.9,1.3-1.5,2.2-2c0.2-0.1,0.3-0.2,0.1-0.4c-0.2-0.3-0.3-0.7-0.5-1
		c0-0.1-0.1-0.2-0.2-0.2C11,6.3,11,6.4,11,6.5c-0.2,0.4-0.4,0.7-0.5,1.1C10.3,7.8,10.2,8,9.9,8C9.7,8,9.5,7.8,9.4,7.6
		C9,6.9,8.6,6.2,8.3,5.4C8.1,5.1,8.2,4.8,8.4,4.6C8.7,4.5,9,4.6,9.2,5c0.2,0.3,0.3,0.7,0.5,1c0.1,0.1,0.1,0.3,0.2,0.3
		c0.1,0,0.2-0.2,0.2-0.3c0.2-0.3,0.3-0.6,0.4-0.9c0.1-0.2,0.2-0.5,0.6-0.5c0.3,0,0.4,0.3,0.6,0.5c0.1,0.3,0.3,0.6,0.4,0.9
		c0.1,0.1,0.1,0.3,0.2,0.3c0.1,0,0.1-0.2,0.2-0.3c0.2-0.3,0.3-0.7,0.5-1c0.2-0.3,0.4-0.4,0.7-0.3C14,4.7,14.1,5,13.9,5.3
		c-0.3,0.6-0.6,1.1-0.8,1.7c0,0.1-0.1,0.2,0,0.2c0.1,0.1,0.2,0,0.2,0c0.6-0.1,1.1-0.2,1.7-0.1c0.3,0,0.3-0.1,0.2-0.3
		c-0.3-0.5-0.5-1-0.7-1.5c-0.2-0.4-0.1-0.6,0.2-0.8c0.3-0.1,0.5,0,0.7,0.3c0.2,0.4,0.4,0.7,0.6,1.1c0,0.1,0.1,0.2,0.2,0.2
		c0.1,0,0.1-0.1,0.1-0.2c0.2-0.4,0.4-0.7,0.6-1.1c0.1-0.2,0.2-0.3,0.5-0.3c0.2,0,0.4,0.1,0.5,0.3c0.2,0.4,0.4,0.8,0.6,1.2
		c0,0.1,0.1,0.2,0.1,0.2c0.1,0,0.1-0.1,0.2-0.2c0.2-0.4,0.3-0.7,0.5-1.1c0.2-0.4,0.4-0.5,0.7-0.3C20.1,4.8,20.2,5,20,5.4
		c-0.3,0.7-0.7,1.5-1.1,2.2C18.9,7.8,18.7,8,18.5,8c-0.3,0-0.4-0.2-0.5-0.4C17.7,7.1,17.5,6.7,17.2,6.1z M14.5,18.3
		c2.8,0,5.1-2.2,5.1-5c0-2.6-2.1-5.1-5.1-5.1c-2.8,0-5.1,2.3-5.1,5.1C9.4,16,11.7,18.3,14.5,18.3z"/>
	<path class="st0" d="M4.9,6.1c-0.3,0.5-0.5,1-0.7,1.4C4.1,7.7,4,7.9,3.7,7.9c-0.3,0-0.4-0.2-0.5-0.4C2.8,6.8,2.4,6.1,2.1,5.3
		C1.9,5,2,4.7,2.2,4.6c0.3-0.1,0.5,0,0.7,0.3c0.2,0.3,0.4,0.7,0.5,1c0,0.1,0.1,0.2,0.2,0.3c0.1,0,0.2-0.2,0.2-0.3
		c0.2-0.3,0.3-0.6,0.5-1c0.1-0.2,0.2-0.4,0.5-0.4c0.3,0,0.4,0.2,0.6,0.4c0.2,0.4,0.4,0.7,0.5,1C6,6,6,6.1,6.1,6.1
		c0.1,0,0.1-0.1,0.2-0.2c0.2-0.4,0.4-0.7,0.5-1.1C7,4.5,7.2,4.4,7.5,4.5C7.8,4.7,7.8,5,7.7,5.3C7.3,6,7,6.8,6.6,7.5
		C6.5,7.7,6.4,7.9,6.1,7.9c-0.3,0-0.4-0.2-0.5-0.4C5.4,7.1,5.2,6.6,4.9,6.1z"/>
	<path class="st0" d="M6.3,1.7c0,0.3-0.2,0.5-0.5,0.5C5.6,2.2,5.4,2,5.4,1.7c0-0.3,0.2-0.5,0.5-0.5C6.1,1.2,6.4,1.5,6.3,1.7z"/>
	<path class="st0" d="M20.1,17.7c0-0.3,0.2-0.5,0.5-0.5c0.3,0,0.5,0.2,0.5,0.5c0,0.3-0.2,0.5-0.5,0.5C20.3,18.2,20.1,18,20.1,17.7z"
		/>
	<path class="st0" d="M18.6,13.2c0,2.3-1.9,4.1-4.2,4.1c-2.3,0-4.1-1.9-4.1-4.1S12.2,9,14.5,9C16.8,9.1,18.6,11,18.6,13.2z
		 M17.6,13.2c0.1-1.6-1.3-3.2-3.1-3.1c-1.8,0-3.1,1.4-3.2,3.1c0,1.8,1.6,3.2,3.2,3.1C16.3,16.3,17.6,15,17.6,13.2z"/>
	<path class="st0" d="M16.6,13.3c0,0.2-0.2,0.4-0.5,0.5c-0.3,0-0.5-0.2-0.6-0.5c-0.2-0.8-0.4-1-1.2-1.2C14.2,12,14,11.8,14,11.5
		c0-0.3,0.2-0.4,0.5-0.4C15.6,11.1,16.6,12.1,16.6,13.3z"/>
</g>
</svg>
