<svg width="197" height="170" viewBox="0 0 197 170" fill="none" xmlns="http://www.w3.org/2000/svg">
<path d="M132.595 0C149.88 0.43886 167.852 6.91203 182.162 21.175C201.05 39.9362 201.965 67.4747 184.565 87.5525C179.987 92.8188 181.246 98.3046 182.963 103.9C183.764 106.533 185.596 108.727 187.427 110.812C188.801 112.348 189.717 113.774 188.687 115.749C187.656 117.834 185.596 118.163 183.535 118.053C175.179 117.505 167.166 115.53 160.526 110.373C156.977 107.521 153.887 106.862 149.537 108.289C145.53 109.715 141.18 110.263 136.83 110.263C134.083 110.263 132.938 111.361 132.595 113.884C130.877 125.733 125.154 135.717 116.225 143.836C103.633 155.356 88.2934 161.281 70.8935 161.939C61.6211 162.268 52.4633 161.391 43.5343 158.758C41.8172 158.209 40.6725 158.648 39.2988 159.745C31.6291 165.889 22.9291 169.18 12.8555 169.4C10.9094 169.4 9.19231 169.071 8.27652 167.205C7.24626 165.34 8.16205 163.804 9.42126 162.488C14.1147 157.112 16.5186 151.187 15.3739 144.056C15.1449 142.629 14.5726 141.642 13.6568 140.655C5.30023 131.329 0.492336 120.577 0.0344428 108.398C-0.423451 96.4394 3.6976 85.6874 11.5963 76.4713C24.3028 61.5501 41.2448 53.9797 60.9343 52.0048C62.7658 51.7854 63.7961 51.4563 64.1395 49.5912C66.7724 31.4882 77.304 18.5418 93.3302 9.43546C104.434 2.74285 116.568 0 132.595 0ZM67.5737 153.93C82.3408 154.479 95.3907 149.322 104.434 143.178C131.106 125.185 131.908 90.2953 106.037 71.4244C92.7579 61.7695 77.6474 58.0392 61.1632 59.5752C45.2514 61.1112 31.5146 67.0358 20.5252 78.2267C4.61339 94.2451 4.26996 119.041 19.8383 135.059C22.2423 137.582 23.387 140.325 23.7304 143.507C24.1883 148.335 23.7304 153.162 21.8989 157.77C21.6699 158.428 20.9831 159.087 21.5554 159.745C22.2423 160.403 23.1581 159.745 23.8449 159.525C28.4238 157.77 32.7738 155.356 36.0936 151.845C37.9251 149.871 40.1001 149.432 42.733 150.309C50.8606 152.943 59.1027 154.04 67.5737 153.93ZM113.935 66.4872C114.05 67.0358 114.05 67.2552 114.164 67.3649C114.737 68.0232 115.424 68.6815 116.11 69.2301C121.72 74.3867 126.184 80.3113 129.16 87.2234C130.992 91.3925 132.137 95.6714 132.824 100.17C133.053 101.377 133.052 102.583 134.999 102.474C141.524 101.925 147.934 100.938 154.001 98.8531C156.634 97.9754 158.466 98.3046 160.412 100.17C164.075 103.681 168.31 106.423 173.233 108.069C173.919 108.289 174.606 108.727 175.293 108.069C175.751 107.521 175.293 106.862 175.179 106.314C174.377 104.119 173.576 102.035 173.347 99.7308C172.889 93.6965 173.004 88.2108 177.583 83.0542C193.723 64.5124 192.006 41.1431 173.919 24.3567C152.856 4.82747 116.683 2.1943 92.7579 18.6515C81.7684 26.2219 74.6711 36.0962 72.3816 49.0426C72.0382 50.9077 72.4961 51.566 74.4421 51.6757C82.4553 52.2243 90.125 54.1992 97.4513 57.3809C99.3973 58.2586 101.458 58.5877 103.518 58.5877C122.063 58.5877 140.722 58.5877 159.267 58.5877C160.412 58.5877 161.442 58.5877 162.587 58.8072C164.647 59.246 166.021 60.5627 165.906 62.757C165.792 65.061 164.418 66.2678 162.129 66.4872C161.213 66.5969 160.297 66.4872 159.381 66.4872C145.645 66.4872 131.908 66.4872 118.171 66.4872C116.912 66.4872 115.538 66.4872 113.935 66.4872Z" fill="#FFD104"/>
<path d="M66.8872 117.505C76.7319 117.505 86.4621 117.505 96.3068 117.505C97.2226 117.505 98.1384 117.505 99.0542 117.614C101 117.943 102.259 118.931 102.488 120.796C102.717 122.771 101.687 124.197 99.8555 124.965C98.5963 125.514 97.3371 125.404 96.0779 125.404C76.6174 125.404 57.1569 125.404 37.582 125.404C36.3228 125.404 35.0636 125.404 33.8044 124.965C31.8583 124.307 30.7136 122.99 30.9425 121.015C31.1715 119.15 32.4307 117.834 34.4912 117.614C35.407 117.505 36.3228 117.505 37.2386 117.505C47.1978 117.395 57.0425 117.505 66.8872 117.505Z" fill="#FFD104"/>
<path d="M74.6714 95.3419C81.8832 95.3419 89.0951 95.3419 96.4214 95.3419C97.2227 95.3419 98.024 95.3419 98.9398 95.4516C101.115 95.6711 102.488 97.0973 102.603 99.0722C102.832 101.047 101.458 102.364 99.5122 102.912C98.4819 103.241 97.3371 103.241 96.3069 103.241C81.6543 103.241 67.0017 103.241 52.3491 103.241C51.6623 103.241 50.861 103.241 50.1741 103.132C47.8847 102.803 46.511 101.596 46.3965 99.2916C46.282 97.2071 47.9991 95.5613 50.4031 95.3419C51.2044 95.2322 52.0057 95.2322 52.9215 95.2322C60.0188 95.3419 67.3451 95.3419 74.6714 95.3419Z" fill="#FFD104"/>
<path d="M34.4911 103.132C32.4305 102.913 30.7135 100.938 30.9424 98.9632C31.1714 96.8786 33.1174 95.2328 35.2924 95.4523C37.5819 95.562 39.2989 97.6465 39.07 99.7311C38.7266 101.816 36.6661 103.352 34.4911 103.132Z" fill="#FFD104"/>
<path d="M137.974 44.434C130.19 44.434 122.406 44.434 114.621 44.434C112.332 44.434 110.386 43.7757 109.928 41.2522C109.585 39.1676 110.386 37.6316 112.561 36.8636C113.82 36.4248 115.308 36.4248 116.682 36.4248C130.877 36.4248 145.071 36.4248 159.266 36.4248C160.411 36.4248 161.67 36.4248 162.815 36.7539C165.104 37.1928 166.249 38.6191 166.02 40.9231C165.791 43.1174 164.417 44.2145 162.128 44.3242C157.663 44.4339 153.199 44.3242 148.62 44.3242C145.186 44.4339 141.523 44.434 137.974 44.434Z" fill="#FFD104"/>
<path d="M102.488 40.5948C102.488 42.6794 100.771 44.3251 98.4815 44.3251C96.192 44.3251 94.4749 42.6793 94.5894 40.485C94.5894 38.2907 96.3065 36.645 98.596 36.645C100.656 36.7547 102.488 38.5102 102.488 40.5948Z" fill="#FFD104"/>
</svg>
