<svg width="80" height="80" viewBox="0 0 80 80" fill="none" xmlns="http://www.w3.org/2000/svg">
<g filter="url(#filter0_d_39_2520)">
<path d="M40 0C17.92 0 0 16.8 0 37.5C0 58.2 17.92 75 40 75C62.08 75 80 58.2 80 37.5C80 16.8 62.08 0 40 0ZM43.6364 28.8C43.6073 29.6182 44.0145 29.9455 44.8582 29.9455C46.3709 29.9182 47.8545 29.9455 49.3673 29.9455C50.2982 29.9455 50.6764 30.2727 50.56 31.2C50.3564 32.8091 50.1818 34.4455 50.1236 36.0818C50.0655 37.1182 49.6291 37.5273 48.4945 37.4727C47.4182 37.4182 46.3709 37.5273 45.2945 37.4455C44.0145 37.3364 43.6073 37.8 43.6073 39C43.6655 44.9182 43.6364 50.8091 43.6364 56.7273C43.6364 57.1364 43.6364 57.5455 43.6073 57.9545C43.6073 58.6636 43.2582 59.0182 42.4436 59.0182C40.0291 58.9909 37.5855 58.9909 35.1709 59.0182C33.9782 59.0182 34.0073 58.2818 34.0073 57.5455C34.0073 54.4636 34.0073 51.3545 34.0073 48.2727C34.0073 45.2727 33.9782 42.2727 34.0364 39.2727C34.0655 38.1273 33.7164 37.6091 32.4073 37.6364C28.9455 37.6909 29.3527 37.9091 29.3236 34.6909C29.3236 33.5455 29.3527 32.4273 29.3236 31.2818C29.2945 30.3818 29.6727 30 30.6909 29.9455C34.0364 29.8091 34.0364 29.7818 34.0364 26.5909C34.0364 25.0091 34.0073 23.4 34.3855 21.8455C35.2 18.3818 37.9636 16.3364 42.3855 16.0909C44.7418 15.9545 47.1273 16.0636 49.5127 16.0364C50.4145 16.0364 50.7055 16.4455 50.7055 17.2091C50.7055 19.0364 50.6764 20.8364 50.7055 22.6636C50.7055 23.5636 50.2691 23.8636 49.3673 23.8364C48.1164 23.8091 46.8364 23.8636 45.5855 23.8364C44.3055 23.8091 43.7236 24.4091 43.6945 25.5818C43.6655 26.6182 43.6655 27.7091 43.6364 28.8Z" fill="white"/>
</g>
<defs>
<filter id="filter0_d_39_2520" x="-4" y="0" width="88" height="83" filterUnits="userSpaceOnUse" color-interpolation-filters="sRGB">
<feFlood flood-opacity="0" result="BackgroundImageFix"/>
<feColorMatrix in="SourceAlpha" type="matrix" values="0 0 0 0 0 0 0 0 0 0 0 0 0 0 0 0 0 0 127 0" result="hardAlpha"/>
<feOffset dy="4"/>
<feGaussianBlur stdDeviation="2"/>
<feComposite in2="hardAlpha" operator="out"/>
<feColorMatrix type="matrix" values="0 0 0 0 0 0 0 0 0 0 0 0 0 0 0 0 0 0 0.25 0"/>
<feBlend mode="normal" in2="BackgroundImageFix" result="effect1_dropShadow_39_2520"/>
<feBlend mode="normal" in="SourceGraphic" in2="effect1_dropShadow_39_2520" result="shape"/>
</filter>
</defs>
</svg>
