<svg width="1728" height="624" viewBox="0 0 1728 624" fill="none" xmlns="http://www.w3.org/2000/svg">
<path d="M796.211 479.729C792.522 479.229 788.833 478.729 785.349 478.257C784.94 478.202 784.351 477.901 783.941 477.846C779.023 477.179 774.184 475.86 769.14 474.514C746.531 468.578 725.966 457.839 707.338 443.165C686.972 427.372 669.952 408.057 655.53 386.222C643.375 368.008 633.918 348.171 627.568 326.768C620.333 302.372 617.765 277.285 618.404 251.527C618.391 248.212 618.583 244.924 618.776 241.637C619.464 235.987 620.179 230.12 620.867 224.47C621.152 223.846 621.231 223.194 621.284 222.76C621.575 220.369 622.098 217.789 622.389 215.399C624.957 201.168 629.111 187.594 634.263 174.376C641.405 156.789 651.357 141.792 665.143 129.524C680.549 115.928 698.09 107.04 718.122 103.349C730.894 101.104 743.786 101.305 756.591 103.924C766.937 106.21 776.661 110.179 785.843 115.178C801.292 123.457 815.246 133.742 829.147 144.462C837.913 151.172 846.757 157.231 857.381 160.659C869.002 164.443 880.491 169.313 892.45 172.038C903.206 174.38 914.121 175.417 925.175 173.602C939.409 171.334 953.761 171.512 967.948 174.76C981.136 177.652 993.392 183.069 1004.69 191.227C1018.11 200.776 1029.16 212.656 1038.28 226.704C1046.71 239.554 1051.86 253.727 1053.7 269.438C1055.34 283.355 1053.9 296.855 1050.56 310.541C1044.42 335.331 1034.15 358.017 1019.59 378.354C1009.54 392.454 998.011 405.028 985.356 416.566C969.871 430.814 952.958 443.1 934.465 452.964C913.123 463.987 890.717 471.774 867.274 476.107C846.164 480.094 824.962 481.417 803.642 480.295C801.156 480.179 798.75 479.411 796.211 479.729Z" fill="url(#paint0_linear_4_175)"/>
<path d="M1507.4 455.468C1503.71 454.968 1500.02 454.468 1496.54 453.996C1496.13 453.94 1495.54 453.64 1495.13 453.584C1490.21 452.917 1485.37 451.599 1480.33 450.253C1457.72 444.317 1437.16 433.577 1418.53 418.904C1398.16 403.111 1381.14 383.795 1366.72 361.961C1354.57 343.746 1345.11 323.91 1338.76 302.506C1331.52 278.111 1328.96 253.023 1329.59 227.265C1329.58 223.95 1329.77 220.663 1329.97 217.376C1330.66 211.726 1331.37 205.859 1332.06 200.209C1332.34 199.585 1332.42 198.933 1332.48 198.498C1332.77 196.108 1333.29 193.528 1333.58 191.138C1336.15 176.907 1340.3 163.333 1345.45 150.115C1352.6 132.528 1362.55 117.531 1376.33 105.262C1391.74 91.6668 1409.28 82.7787 1429.31 79.0878C1442.09 76.8429 1454.98 77.0439 1467.78 79.663C1478.13 81.9487 1487.85 85.9174 1497.03 90.917C1512.48 99.1958 1526.44 109.481 1540.34 120.201C1549.1 126.911 1557.95 132.969 1568.57 136.397C1580.19 140.181 1591.68 145.052 1603.64 147.777C1614.4 150.118 1625.31 151.156 1636.37 149.341C1650.6 147.073 1664.95 147.251 1679.14 150.499C1692.33 153.391 1704.58 158.807 1715.88 166.965C1729.3 176.515 1740.35 188.395 1749.47 202.443C1757.91 215.293 1763.05 229.465 1764.89 245.176C1766.53 259.093 1765.09 272.594 1761.76 286.279C1755.61 311.07 1745.35 333.756 1730.79 354.092C1720.73 368.192 1709.2 380.767 1696.55 392.305C1681.06 406.552 1664.15 418.839 1645.66 428.702C1624.31 439.726 1601.91 447.513 1578.46 451.846C1557.36 455.832 1536.15 457.156 1514.83 456.033C1512.35 455.917 1509.94 455.149 1507.4 455.468Z" fill="url(#paint1_linear_4_175)"/>
<path d="M184.87 525.756C179.861 525.077 174.852 524.398 170.121 523.757C169.565 523.682 168.76 523.323 168.203 523.248C161.524 522.343 154.935 520.702 148.068 519.024C117.288 511.613 89.144 498.829 63.515 481.651C35.501 463.153 11.9206 440.771 -8.21042 415.617C-25.1718 394.631 -38.525 371.891 -47.7134 347.473C-58.1832 319.642 -62.3516 291.17 -62.1964 262.038C-62.305 258.286 -62.1352 254.572 -61.9655 250.857C-61.1889 244.484 -60.3825 237.866 -59.6059 231.492C-59.238 230.795 -59.1484 230.059 -59.0887 229.569C-58.7601 226.873 -58.1234 223.969 -57.7949 221.273C-54.7105 205.246 -49.4595 190.011 -42.847 175.209C-33.6593 155.524 -20.596 138.856 -2.26582 125.394C18.2215 110.479 41.7291 100.958 68.7538 97.3946C85.9884 95.2454 103.451 95.868 120.863 99.2246C134.936 102.129 148.214 106.918 160.785 112.858C181.933 122.701 201.113 134.769 220.233 147.327C232.287 155.19 244.431 162.318 258.911 166.523C274.753 171.161 290.445 177.026 306.714 180.477C321.344 183.456 336.153 184.965 351.071 183.249C370.284 181.119 389.724 181.76 409.025 185.871C426.964 189.548 443.71 196.054 459.232 205.633C477.667 216.852 492.96 230.636 505.698 246.814C517.473 261.616 524.834 277.813 527.752 295.65C530.353 311.451 528.779 326.686 524.642 342.072C517.003 369.941 503.729 395.301 484.572 417.871C471.35 433.521 456.081 447.398 439.261 460.069C418.684 475.718 396.12 489.105 371.35 499.701C342.753 511.523 312.627 519.649 281 523.835C252.524 527.7 223.85 528.547 194.948 526.624C191.579 526.416 188.299 525.473 184.87 525.756Z" fill="url(#paint2_linear_4_175)"/>
<mask id="mask0_4_175" style="mask-type:alpha" maskUnits="userSpaceOnUse" x="112" y="0" width="1441" height="633">
<rect x="112.124" width="1440.22" height="632.889" fill="#C4C4C4"/>
</mask>
<g mask="url(#mask0_4_175)">
<path d="M1406.3 1041.1C1399.23 1050.08 1392.6 1058.5 1385.53 1067.49C1384.64 1068.61 1383.16 1069.21 1382.72 1069.77C1376.09 1078.19 1367.82 1086.13 1359.99 1093.5C1325.6 1126.93 1285.8 1151.83 1241.5 1170.89C1198.25 1189.92 1153.72 1196.46 1104.34 1187.36C1083.96 1183.74 1064.31 1177.92 1044.22 1172.65C999.729 1161.19 955.702 1152.99 911.387 1146.43C887.294 1142.4 863.487 1136.73 840.122 1130.49C749.782 1105.44 664.983 1064.37 583.825 1012.27C556.227 994.741 529.357 975.003 501.758 957.473C440.585 917.179 377.357 880.777 313.687 844.937C286.4 829.577 259.997 813.093 234.167 793.318C229.542 790.216 225.8 785.99 220.135 782.926C212.365 776.121 205.193 769.841 197.423 763.036C196.228 761.99 196.072 760.905 194.877 759.858C174.999 741.501 157.928 720.86 142.183 698.535C101.392 640.048 80.7728 576.462 81.9616 508.263C83.0695 450.426 96.8341 397.034 122.814 348.648C133.528 328.627 144.84 309.13 160.18 292.212C179.94 269.68 201.493 248.718 225.436 229.85C267.553 195.596 313.878 168.822 366.36 152.182C435.894 130.557 508.827 128.983 583.809 145.326C627.992 154.617 671.472 169.93 714.068 186.367C774.986 210.313 834.87 212.486 893.304 197.265C935.128 186.467 975.289 171.368 1014.26 155.223C1045.37 142.635 1075.58 127.355 1106.85 115.852C1151.01 99.5168 1198.19 89.614 1247.37 89.9979C1312.14 89.8119 1374.2 107.173 1434.44 140.958C1469.79 161.476 1501.44 185.401 1528.1 218.232C1562.39 260.599 1582.76 307.836 1591.27 359.869C1599.31 408.648 1597.84 456.683 1587.74 502.853C1575.49 559.461 1557.12 613.567 1533.53 664.047C1502.19 733.348 1480.23 806.123 1470.05 884.466C1462.97 937.069 1446.34 985.113 1417.35 1027.07C1412.77 1031.59 1408.64 1035.56 1406.3 1041.1Z" fill="url(#paint3_linear_4_175)"/>
</g>
<path d="M14.0785 633.714C16.9229 635.557 19.7674 637.4 22.4538 639.141C22.7699 639.346 23.3364 639.495 23.6524 639.7C27.445 642.158 31.5149 644.14 35.7429 646.224C54.6433 655.632 74.5634 660.675 95.1335 661.986C117.496 663.585 139.309 660.895 160.586 655.015C178.422 650.184 195.193 642.696 210.584 632.347C228.125 620.55 242.744 605.548 255.455 588.217C257.157 586.042 258.701 583.765 260.246 581.488C262.649 577.363 265.145 573.08 267.548 568.956C267.667 568.377 267.944 567.902 268.129 567.584C269.146 565.839 270.097 563.833 271.114 562.088C276.582 551.209 280.601 539.827 283.738 528.092C287.709 512.309 288.386 496.576 284.978 480.381C281.111 462.358 273.341 446.177 261.167 431.95C253.349 422.95 244.199 415.49 233.873 409.672C225.444 405.084 216.592 401.969 207.593 399.853C192.521 396.204 177.473 394.756 162.24 393.625C152.66 392.88 143.358 391.659 134.15 387.658C124.061 383.305 113.509 379.744 103.723 374.495C94.9781 369.702 86.7876 363.957 79.9567 356.252C71.1252 346.376 60.9609 338.04 49.3445 331.823C38.6107 325.959 27.2418 322.307 15.1454 321.023C0.848629 319.407 -12.9771 320.718 -26.5553 324.593C-39.0393 328.085 -49.8923 334.382 -59.2069 343.643C-67.4659 351.84 -73.3546 361.573 -78.0059 372.545C-86.3573 392.482 -90.7432 413.46 -90.9132 435.423C-91.0622 450.623 -89.3925 465.692 -86.4049 480.74C-82.815 499.239 -77.2215 517.287 -69.2815 534.671C-59.9341 554.497 -48.1865 572.818 -33.9463 589.477C-21.1672 604.534 -6.96275 617.892 8.57443 629.709C10.3783 631.097 12.4595 632.009 14.0785 633.714Z" fill="url(#paint4_linear_4_175)"/>
<path d="M1868.88 578.189C1866.56 583.416 1864.24 588.642 1862.05 593.579C1861.79 594.159 1861.15 594.904 1860.89 595.485C1857.8 602.454 1853.94 609.044 1849.96 615.924C1832.2 646.804 1809.46 672.744 1782.75 694.251C1753.86 717.867 1722.16 735.142 1688.55 747.581C1660.45 758.14 1631.59 764.078 1602.24 764.813C1568.77 765.648 1536.61 759.337 1505.1 748.038C1501 746.723 1497.03 745.118 1493.05 743.513C1486.39 740.228 1479.48 736.816 1472.82 733.531C1472.18 732.862 1471.41 732.483 1470.9 732.23C1468.08 730.84 1465.14 729.033 1462.32 727.644C1445.93 718.143 1431.08 706.572 1417.13 693.675C1398.71 676.092 1384.78 655.417 1375.98 630.199C1366.29 602.063 1363.4 572.679 1368.08 541.72C1371.2 522.023 1377.39 503.135 1386.53 485.347C1394.12 471.043 1403.5 458.331 1413.91 446.831C1431.26 427.43 1450.39 411.034 1470.04 394.891C1482.36 384.692 1493.92 374.115 1503.05 359.862C1513.08 344.284 1524.4 329.337 1533.27 312.837C1541.12 297.953 1547.44 282.31 1550.29 265.315C1554.05 243.459 1560.89 222.413 1571.44 202.845C1581.09 184.602 1593.43 168.747 1608.71 155.405C1626.69 139.502 1646.46 128.018 1668.01 120.247C1687.77 113.006 1707.64 111.131 1727.89 114.749C1745.83 117.937 1761.84 125.48 1777.21 135.89C1804.99 154.903 1828.27 179.129 1846.67 208.732C1859.45 229.192 1869.66 251.217 1878.08 274.478C1888.53 302.993 1895.91 332.82 1899.56 363.997C1903.34 399.833 1902.62 435.933 1897.17 472.171C1892.36 504.835 1884.22 536.563 1873 567.483C1871.71 571.093 1869.65 574.325 1868.88 578.189Z" fill="url(#paint5_linear_4_175)"/>
<defs>
<linearGradient id="paint0_linear_4_175" x1="481.054" y1="405.3" x2="1140.44" y2="280.988" gradientUnits="userSpaceOnUse">
<stop offset="0.166667" stop-color="#4DDCCA"/>
<stop offset="0.739583" stop-color="#FFB3DC"/>
</linearGradient>
<linearGradient id="paint1_linear_4_175" x1="1192.25" y1="381.038" x2="1851.63" y2="256.727" gradientUnits="userSpaceOnUse">
<stop offset="0.166667" stop-color="#4DDCCA"/>
<stop offset="0.739583" stop-color="#FFB3DC"/>
</linearGradient>
<linearGradient id="paint2_linear_4_175" x1="-243.952" y1="431.861" x2="621.95" y2="216.552" gradientUnits="userSpaceOnUse">
<stop offset="0.166667" stop-color="#4DDCCA"/>
<stop offset="0.739583" stop-color="#FFB3DC"/>
</linearGradient>
<linearGradient id="paint3_linear_4_175" x1="791.191" y1="87.5231" x2="908.064" y2="756.285" gradientUnits="userSpaceOnUse">
<stop stop-color="#8D43F0"/>
<stop offset="0.229406" stop-color="#7C6BE6"/>
<stop offset="0.431288" stop-color="#689BDA"/>
<stop offset="0.638533" stop-color="#5BBAD2"/>
<stop offset="0.757771" stop-color="#4DDCCA"/>
<stop offset="1" stop-color="#6DEBDB"/>
</linearGradient>
<linearGradient id="paint4_linear_4_175" x1="273.296" y1="770.33" x2="-126.413" y2="300.525" gradientUnits="userSpaceOnUse">
<stop offset="0.166667" stop-color="#4DDCCA"/>
<stop offset="0.739583" stop-color="#FFB3DC"/>
</linearGradient>
<linearGradient id="paint5_linear_4_175" x1="1631.67" y1="1011.98" x2="1728.45" y2="-13.3031" gradientUnits="userSpaceOnUse">
<stop offset="0.166667" stop-color="#4DDCCA"/>
<stop offset="0.739583" stop-color="#FFB3DC"/>
</linearGradient>
</defs>
</svg>
