<svg width="120" height="120" viewBox="0 0 120 120" fill="none" xmlns="http://www.w3.org/2000/svg">
<path d="M46.776 0.0370038C69.4964 -0.48105 90.1445 16.7627 93.3268 40.5192C94.807 51.3983 92.5867 61.6114 86.9622 71.0104C86.1481 72.3425 86.3701 73.0086 87.4062 73.9707C97.3232 83.8137 107.24 93.6567 117.083 103.574C121.672 108.162 120.71 115.415 115.159 118.597C111.385 120.744 106.87 120.077 103.614 116.895C93.8449 107.126 84.0019 97.3571 74.2328 87.5141C73.0487 86.3299 72.2346 86.1819 70.8285 87.07C54.1768 97.2091 32.5665 95.7289 17.469 83.2956C4.73964 72.7865 -1.03296 59.0951 0.151165 42.7394C0.891241 32.3784 4.96166 23.2754 11.9924 15.5786C20.0592 6.69769 30.0503 1.59116 41.8915 0.185019C43.4456 -0.111011 45.1478 0.0370038 46.776 0.0370038ZM4.96166 46.8098C4.66563 68.9381 22.7975 88.6982 46.85 88.6982C70.1624 88.6982 88.5903 69.9742 88.7383 46.8839C88.8863 23.6454 70.0884 4.92151 46.776 4.92151C23.5376 4.92151 4.96166 23.4974 4.96166 46.8098ZM110.423 114.749C112.347 114.823 113.679 114.009 114.493 112.381C115.381 110.456 115.011 108.606 113.605 107.126C107.166 100.539 100.58 94.0267 94.0669 87.5141C93.4008 86.848 92.8088 86.774 92.1427 87.5141C90.6625 89.0682 89.1824 90.5484 87.6282 92.0285C86.8141 92.7686 86.8881 93.3607 87.6282 94.1007C93.9929 100.465 100.358 106.83 106.722 113.121C107.684 114.083 108.942 114.897 110.423 114.749ZM83.1138 76.857C82.8177 77.079 82.5217 77.153 82.3737 77.375C80.8935 79.2252 79.1913 80.8534 77.3412 82.4075C76.7491 82.9256 76.8971 83.4436 77.4152 83.8877C78.9693 85.4418 80.5975 87.07 82.1517 88.6982C82.7437 89.2902 83.1878 89.2162 83.8538 88.7722C85.63 87.292 87.2582 85.6639 88.7383 83.8877C89.3304 83.1476 89.1084 82.7036 88.5163 82.1115C87.0362 80.7054 85.556 79.2252 84.1499 77.7451C83.8538 77.375 83.4838 77.153 83.1138 76.857Z" fill="#FFD104"/>
<path d="M9.25439 46.588C9.3284 25.7918 26.4242 8.99207 47.5164 9.21409C67.6465 9.43611 84.5202 25.5698 84.4462 46.958C84.3722 67.8282 67.7945 84.4059 46.7763 84.3319C25.1661 84.2579 9.25439 66.9401 9.25439 46.588ZM79.2657 46.81C79.7837 29.5662 65.2042 14.2466 47.0723 14.2466C28.9404 14.1726 14.2869 28.6781 14.2129 46.662C14.2129 64.7939 28.6444 79.0773 46.7763 79.2994C64.3901 79.5214 79.7837 64.4978 79.2657 46.81Z" fill="#FFD104"/>
<path d="M48.5521 18.5386C59.3572 19.5007 67.7941 24.9773 72.7526 35.6344C72.9007 36.0044 73.1227 36.3745 73.1967 36.8185C73.4927 38.2987 73.1227 39.4088 71.5685 39.9268C70.1624 40.3709 69.1263 39.7788 68.6082 38.4467C67.4981 35.7824 66.0919 33.3402 64.1677 31.2679C59.6533 26.4574 54.1027 24.0152 47.59 23.5711C45.4438 23.4231 44.4817 22.535 44.5557 20.9809C44.4817 19.3527 45.8138 18.3906 48.5521 18.5386Z" fill="#FFD104"/>
<path d="M74.9714 46.884C74.9714 48.1421 73.7133 49.3262 72.4551 49.3262C71.271 49.2522 70.0869 48.0681 70.0869 46.884C70.0869 45.5518 71.271 44.4417 72.6032 44.4417C73.9353 44.3677 75.0454 45.4778 74.9714 46.884Z" fill="#FFD104"/>
</svg>
