<?xml version="1.0" encoding="utf-8"?>
<!-- Generator: Adobe Illustrator 26.0.3, SVG Export Plug-In . SVG Version: 6.00 Build 0)  -->
<svg version="1.1" id="Capa_1" xmlns="http://www.w3.org/2000/svg" xmlns:xlink="http://www.w3.org/1999/xlink" x="0px" y="0px"
	 viewBox="0 0 180.9 232" style="enable-background:new 0 0 180.9 232;" xml:space="preserve">
<style type="text/css">
	.st0{fill:url(#SVGID_1_);}
	.st1{fill:url(#SVGID_00000176730068310617884630000003051828478972718464_);}
	.st2{fill:url(#SVGID_00000119087131868163841490000008713999837963834777_);}
	.st3{fill:#FCFC95;}
	.st4{fill:#4DDCCA;}
	.st5{fill:#FFB3DC;}
</style>
<g>
	
		<linearGradient id="SVGID_1_" gradientUnits="userSpaceOnUse" x1="245.4655" y1="-37.3618" x2="242.7294" y2="-150.4571" gradientTransform="matrix(1 0 0 -1 -196 -46.5595)">
		<stop  offset="0" style="stop-color:#FFD104"/>
		<stop  offset="0.4479" style="stop-color:#EC7E7F"/>
		<stop  offset="1" style="stop-color:#C02E2E"/>
	</linearGradient>
	<path class="st0" d="M12.6,41.5c0-0.8,0-1.5,0-2.2c0-0.1,0-0.2,0-0.3c0-1,0.1-2,0.3-3.1c0.6-4.7,2.1-9.1,4.4-13.2
		c2.5-4.5,5.8-8.4,9.7-11.8c3.2-2.9,6.8-5.3,10.8-7.1c4.5-2.1,9.3-3.2,14.3-3.7C52.8,0,53.4,0,54,0c1.1,0,2.3,0,3.4,0
		c0.1,0,0.3,0,0.3,0c0.5,0,1,0,1.5,0c2.8,0.2,5.6,0.7,8.3,1.4c3.6,1,6.8,2.6,9.5,5.1c3,2.8,5.2,6.1,6.5,10c0.8,2.5,1.1,5.1,0.9,7.7
		c-0.2,2.1-0.7,4.2-1.4,6.2c-1.2,3.3-2.8,6.4-4.5,9.4c-1.1,1.9-2,3.9-2.4,6.1c-0.4,2.4-1.1,4.9-1.3,7.3c-0.2,2.2-0.1,4.4,0.6,6.6
		c0.8,2.8,1.2,5.7,0.9,8.6c-0.2,2.7-0.9,5.3-2.2,7.8c-1.5,2.9-3.5,5.4-6,7.6c-2.3,2-4.9,3.4-7.9,4.1c-2.7,0.7-5.3,0.7-8,0.4
		c-5-0.6-9.6-2.1-13.9-4.6c-3-1.7-5.7-3.7-8.3-5.9c-3.2-2.8-6-5.9-8.4-9.3c-2.7-4-4.8-8.3-6.2-12.9c-1.3-4.1-2.1-8.4-2.5-12.7
		C12.7,42.5,12.7,42,12.6,41.5z"/>
	
		<linearGradient id="SVGID_00000051375265049037231370000004208962507739816127_" gradientUnits="userSpaceOnUse" x1="246.0334" y1="-320.7595" x2="332.8922" y2="-114.5834" gradientTransform="matrix(1 0 0 -1 -196 -46.5595)">
		<stop  offset="0.1667" style="stop-color:#4DDCCA"/>
		<stop  offset="0.7396" style="stop-color:#FFB3DC"/>
	</linearGradient>
	<path style="fill:url(#SVGID_00000051375265049037231370000004208962507739816127_);" d="M156,213.7c-0.8,1-1.5,1.9-2.3,3
		c-0.1,0.1-0.3,0.2-0.3,0.3c-0.7,0.9-1.6,1.8-2.5,2.7c-3.7,3.8-8.1,6.8-12.8,9.2c-4.7,2.4-9.5,3.5-14.8,3c-2.2-0.2-4.3-0.6-6.4-1
		c-4.8-0.8-9.5-1.2-14.2-1.5c-2.6-0.2-5.1-0.6-7.6-1c-9.7-1.7-18.7-5.2-27.4-9.9c-2.9-1.6-5.8-3.4-8.7-4.9c-6.5-3.6-13.3-6.8-20-9.9
		c-2.9-1.3-5.7-2.8-8.5-4.6c-0.5-0.3-0.9-0.7-1.5-0.9c-0.8-0.6-1.6-1.2-2.4-1.9c-0.1-0.1-0.1-0.2-0.3-0.3c-2.1-1.7-3.9-3.7-5.6-5.9
		c-4.3-5.7-6.4-12.1-6.2-19.3c0.2-6,1.8-11.7,4.6-17c1.2-2.2,2.4-4.3,4.1-6.2c2.2-2.5,4.5-4.9,7.1-7.1c4.6-4,9.6-7.2,15.3-9.4
		c7.5-2.9,15.3-3.8,23.4-2.8c4.7,0.5,9.4,1.7,13.9,3c6.5,1.9,12.9,1.6,19.2-0.6c4.5-1.5,8.8-3.5,13.1-5.5c3.4-1.6,6.6-3.5,10-5
		c4.8-2.1,9.9-3.6,15.1-4c7-0.6,13.6,0.6,20,3.5c3.8,1.8,7.1,4,9.9,7.2c3.6,4.1,5.7,8.8,6.6,14.2c0.8,5,0.6,10-0.6,14.9
		c-1.4,6-3.5,11.8-6.1,17.3c-3.5,7.5-5.9,15.3-7.2,23.6c-0.8,5.6-2.7,10.7-5.9,15.4C156.7,212.7,156.3,213.1,156,213.7z"/>
	
		<linearGradient id="SVGID_00000027571208534276030780000004695147158751302332_" gradientUnits="userSpaceOnUse" x1="261.9393" y1="-41.0633" x2="349.1921" y2="-328.0242" gradientTransform="matrix(1 0 0 -1 -196 -46.5595)">
		<stop  offset="0" style="stop-color:#8D43F0"/>
		<stop  offset="0.6512" style="stop-color:#689BDA"/>
		<stop  offset="1" style="stop-color:#4DDCCA"/>
	</linearGradient>
	<path style="fill:url(#SVGID_00000027571208534276030780000004695147158751302332_);" d="M6.1,104.9c0-1.9,0-3.7,0-5.5
		c0-0.2,0.1-0.5,0.1-0.7c0-2.5,0.3-5,0.6-7.6c1.4-11.6,5.1-22.5,10.8-32.7c6.1-11.1,14.2-20.7,23.5-29.2C49,22,57.8,16.1,67.4,11.7
		c11-5.1,22.7-7.9,34.9-9.1c1.6-0.2,3.1-0.3,4.7-0.4c2.7,0,5.5,0,8.2,0c0.3,0.1,0.6,0.1,0.8,0.1c1.1,0,2.4,0.1,3.5,0.1
		c6.9,0.4,13.5,1.7,20.1,3.4c8.8,2.5,16.5,6.5,23.1,12.6c7.4,6.8,12.7,15,15.7,24.8c1.9,6.2,2.6,12.6,2.2,19.2
		c-0.4,5.3-1.7,10.4-3.4,15.2c-2.9,8.2-6.9,15.8-11,23.3c-2.6,4.8-4.9,9.5-5.8,15c-1,6-2.6,12-3.1,18.1c-0.4,5.5-0.2,11,1.4,16.4
		c2,6.9,2.8,14.1,2.2,21.4c-0.5,6.7-2.3,13.2-5.4,19.3c-3.6,7.3-8.5,13.5-14.6,18.9c-5.5,5-11.9,8.4-19.2,10.3
		c-6.5,1.7-12.9,1.8-19.6,0.9c-12.1-1.6-23.4-5.3-34-11.3c-7.3-4.1-14-9.1-20.2-14.7c-7.7-6.8-14.6-14.5-20.4-23.1
		c-6.6-10-11.7-20.6-15.2-32c-3.2-10.3-5.2-20.7-6-31.4C6.2,107.4,6.4,106.1,6.1,104.9z"/>
	<path class="st3" d="M129.5,205.7c0.1-0.1,0.2-0.2,0.4-0.3c0.4-0.2,0.9-0.2,1.3,0c0.3,0.2,0.5,0.5,0.6,0.8c0.2,0.8,0.4,1.6,0.6,2.4
		c0,0.2,0.1,0.3,0.1,0.5c0.1,0.5,0,0.9-0.4,1.2c-0.4,0.3-0.9,0.4-1.3,0.1c0,0,0,0-0.1,0c-0.1-0.1-0.2-0.1-0.3-0.2c0,0,0,0,0,0
		c-0.2-0.2-0.3-0.4-0.3-0.6c-0.1-0.2-0.1-0.5-0.2-0.7c-0.2-0.7-0.4-1.4-0.5-2.1c-0.1-0.3-0.1-0.6,0.1-0.9
		C129.4,205.9,129.4,205.9,129.5,205.7C129.5,205.8,129.5,205.8,129.5,205.7z"/>
	<path class="st3" d="M142.3,201.1c0.3-0.5,1-0.7,1.6-0.4c0.6,0.3,1.1,0.6,1.7,0.9c0.3,0.2,0.7,0.4,1,0.6c0.3,0.2,0.5,0.4,0.6,0.8
		c0.1,0.5,0,0.9-0.4,1.3c-0.4,0.3-0.9,0.4-1.3,0.1c-0.3-0.2-0.6-0.3-0.9-0.5c-0.4-0.2-0.8-0.4-1.1-0.6c-0.2-0.1-0.5-0.3-0.7-0.4
		c-0.5-0.3-0.8-1.1-0.5-1.6C142.2,201.2,142.2,201.2,142.3,201.1z"/>
	<path class="st3" d="M150.8,193.9c0.4,0.3,0.6,0.9,0.3,1.4c-0.4,0.9-0.8,1.8-1.2,2.8c-0.1,0.2-0.2,0.4-0.4,0.5
		c-0.4,0.3-1,0.3-1.4,0c-0.5-0.4-0.7-1-0.4-1.5c0.3-0.6,0.6-1.3,0.8-1.9c0.1-0.3,0.3-0.7,0.4-1c0.2-0.4,0.7-0.7,1.2-0.6
		C150.4,193.6,150.6,193.7,150.8,193.9z"/>
	<path class="st3" d="M145.5,215c-0.4,0.5-1.1,0.7-1.7,0.3c-0.5-0.3-0.7-0.8-0.6-1.3c0.1-0.5,0.2-1,0.3-1.5c0.1-0.5,0.2-0.9,0.3-1.4
		c0.1-0.5,0.4-0.8,0.9-0.9c0.9-0.2,1.7,0.5,1.5,1.4c-0.1,0.4-0.1,0.7-0.2,1.1c-0.1,0.6-0.2,1.3-0.4,1.9
		C145.7,214.7,145.6,214.9,145.5,215z"/>
	<path class="st3" d="M136.7,200.4c0.1,0.1,0.2,0.2,0.3,0.3c0.6,0.8,1.2,1.5,1.8,2.3c0.4,0.4,0.4,1.1,0.1,1.5
		c-0.4,0.5-1,0.6-1.6,0.4c-0.2-0.1-0.3-0.2-0.5-0.4c-0.6-0.8-1.2-1.5-1.8-2.3c-0.3-0.4-0.4-0.9-0.2-1.4c0.3-0.6,1.1-0.8,1.7-0.5
		C136.6,200.4,136.6,200.4,136.7,200.4z"/>
	<path class="st3" d="M140.3,209.2c-0.1,0.2-0.3,0.3-0.6,0.4c-0.9,0.4-1.8,0.7-2.8,1.1c-0.4,0.2-0.9,0.1-1.3-0.2
		c-0.5-0.4-0.6-1-0.4-1.6c0.1-0.3,0.4-0.5,0.7-0.6c0.9-0.4,1.8-0.7,2.8-1.1c0.4-0.1,0.7-0.1,1.1,0.1c0.6,0.3,0.9,1.1,0.5,1.7
		C140.3,209.1,140.3,209.2,140.3,209.2z"/>
	<path class="st3" d="M153.8,204.3c0.7,0.5,0.7,1.5,0.1,2c-0.8,0.6-1.6,1.2-2.3,1.9c-0.5,0.4-1.1,0.4-1.6,0
		c-0.5-0.4-0.6-1.1-0.3-1.6c0.1-0.2,0.3-0.3,0.4-0.4c0.7-0.6,1.5-1.2,2.2-1.8C152.7,204,153.3,204,153.8,204.3z"/>
	<path class="st3" d="M140,197.8c-0.5-0.4-0.7-1.1-0.4-1.6c0.1-0.2,0.2-0.3,0.4-0.4c0.7-0.6,1.5-1.2,2.2-1.8
		c0.4-0.3,0.9-0.4,1.4-0.2c0.6,0.3,0.9,1.1,0.6,1.7c-0.1,0.2-0.3,0.3-0.4,0.5c-0.7,0.6-1.5,1.2-2.2,1.8
		C141,198.1,140.4,198.1,140,197.8z"/>
	<path class="st4" d="M17.2,91.5c0,0.1,0,0.3-0.1,0.4c-0.2,0.4-0.5,0.7-0.9,0.7c-0.3,0-0.6-0.1-0.9-0.3c-0.6-0.4-1.2-0.9-1.8-1.3
		c-0.1-0.1-0.2-0.2-0.3-0.3c-0.3-0.3-0.5-0.7-0.4-1.1c0.1-0.5,0.4-0.7,0.8-0.9c0,0,0,0,0.1,0c0.1,0,0.2,0,0.3,0c0,0,0,0,0,0
		c0.2,0,0.4,0.1,0.6,0.2c0.2,0.1,0.4,0.3,0.5,0.4c0.5,0.4,1,0.8,1.6,1.2c0.2,0.2,0.4,0.4,0.5,0.7c0,0,0,0.1,0,0.1
		C17.2,91.5,17.2,91.5,17.2,91.5z"/>
	<path class="st4" d="M11,102c0,0.5-0.3,1.1-0.9,1.2c-0.6,0.1-1.1,0.2-1.7,0.3c-0.3,0.1-0.7,0.1-1,0.2c-0.3,0.1-0.6,0-0.9-0.2
		c-0.4-0.3-0.5-0.7-0.4-1.1c0.1-0.5,0.4-0.8,0.8-0.9c0.3-0.1,0.6-0.1,0.9-0.2c0.4-0.1,0.8-0.1,1.2-0.2c0.2,0,0.5-0.1,0.7-0.1
		c0.5-0.1,1.1,0.3,1.2,0.8C11,101.9,11,102,11,102z"/>
	<path class="st4" d="M9.2,111.9c-0.4,0-0.9-0.3-1-0.8c-0.3-0.9-0.5-1.7-0.8-2.6c-0.1-0.2-0.1-0.4,0-0.6c0.1-0.4,0.5-0.8,1-0.8
		c0.5,0,1,0.3,1.1,0.8c0.2,0.6,0.4,1.2,0.5,1.8c0.1,0.3,0.2,0.6,0.3,0.9c0.1,0.4-0.1,0.9-0.5,1.1C9.7,111.8,9.5,111.9,9.2,111.9z"/>
	<path class="st4" d="M0.9,94.2c0-0.6,0.4-1.1,1-1.2C2.3,93,2.8,93.2,3,93.7c0.2,0.4,0.4,0.8,0.7,1.2c0.2,0.4,0.4,0.8,0.6,1.1
		c0.2,0.4,0.2,0.8-0.1,1.2c-0.5,0.6-1.5,0.6-1.9-0.1c-0.2-0.3-0.3-0.6-0.5-0.9c-0.3-0.5-0.6-1-0.8-1.5C0.9,94.5,0.9,94.4,0.9,94.2z"
		/>
	<path class="st4" d="M15.3,99.3c-0.1,0-0.3,0-0.4,0c-0.9-0.2-1.7-0.4-2.6-0.5c-0.5-0.1-0.9-0.5-0.9-1c0-0.6,0.4-1,0.9-1.2
		c0.2,0,0.4,0,0.5,0c0.9,0.2,1.7,0.4,2.5,0.5c0.5,0.1,0.8,0.4,0.9,0.9c0.1,0.6-0.3,1.2-0.9,1.3C15.4,99.3,15.3,99.3,15.3,99.3z"/>
	<path class="st4" d="M7.8,95.3c0-0.2,0-0.4,0.1-0.6c0.4-0.8,0.9-1.5,1.3-2.3c0.2-0.4,0.5-0.6,1-0.6c0.5,0,1,0.4,1.1,0.9
		c0.1,0.3,0,0.5-0.1,0.8c-0.4,0.8-0.9,1.6-1.3,2.3c-0.2,0.3-0.4,0.5-0.8,0.6c-0.6,0.1-1.2-0.3-1.3-0.8C7.8,95.4,7.8,95.3,7.8,95.3z"
		/>
	<path class="st4" d="M1.2,106.4c-0.7,0-1.3-0.6-1.2-1.3c0.2-0.9,0.4-1.8,0.6-2.6c0.1-0.5,0.5-0.9,1.1-0.9c0.5,0,1.1,0.4,1.1,0.9
		c0,0.2,0,0.4,0,0.5c-0.2,0.8-0.4,1.7-0.5,2.5C2.1,106,1.7,106.4,1.2,106.4z"/>
	<path class="st4" d="M14.5,103c0.6,0,1.1,0.4,1.2,0.9c0,0.2,0,0.3,0,0.5c-0.2,0.8-0.4,1.7-0.5,2.5c-0.1,0.5-0.4,0.8-0.9,0.9
		c-0.6,0.2-1.2-0.2-1.4-0.9c0-0.2,0-0.4,0-0.6c0.2-0.8,0.4-1.7,0.5-2.5C13.6,103.4,14,103,14.5,103z"/>
	<path class="st5" d="M165.4,40.8c-0.2-0.1-0.4-0.3-0.5-0.5c-0.5-0.6-0.5-1.3-0.2-2c0.2-0.5,0.6-0.9,1.1-1.1c1.2-0.5,2.4-1,3.6-1.5
		c0.2-0.1,0.4-0.2,0.7-0.3c0.7-0.3,1.4-0.2,2,0.4c0.6,0.5,0.7,1.2,0.5,2c0,0,0,0.1,0,0.1c-0.1,0.2-0.2,0.3-0.2,0.5c0,0,0,0,0,0
		c-0.2,0.3-0.5,0.5-0.8,0.7c-0.4,0.2-0.7,0.3-1.1,0.5c-1,0.4-2.1,0.9-3.1,1.3c-0.5,0.2-1,0.2-1.5,0.1c-0.1,0-0.1-0.1-0.2-0.1
		C165.5,40.8,165.5,40.8,165.4,40.8z"/>
	<path class="st5" d="M155.3,22.5c-0.8-0.4-1.3-1.4-0.9-2.4c0.3-0.9,0.7-1.9,1-2.8c0.2-0.5,0.4-1.1,0.6-1.7c0.2-0.5,0.5-0.9,1-1.1
		c0.8-0.3,1.4-0.2,2.1,0.3c0.6,0.5,0.8,1.2,0.5,2c-0.2,0.5-0.4,1-0.5,1.5c-0.2,0.6-0.5,1.3-0.7,1.9c-0.1,0.4-0.3,0.8-0.4,1.2
		c-0.4,0.9-1.4,1.4-2.3,1.1C155.5,22.6,155.4,22.5,155.3,22.5z"/>
	<path class="st5" d="M142.3,11.1c0.3-0.6,1.2-1.1,2.1-0.8c1.5,0.4,3,0.8,4.5,1.2c0.4,0.1,0.7,0.3,0.9,0.5c0.5,0.6,0.7,1.5,0.3,2.2
		c-0.4,0.8-1.3,1.2-2.1,1c-1-0.3-2.1-0.5-3.1-0.8c-0.5-0.1-1.1-0.2-1.6-0.4c-0.7-0.2-1.2-0.9-1.3-1.7
		C142,11.9,142.1,11.6,142.3,11.1z"/>
	<path class="st5" d="M175.8,14.2c0.9,0.5,1.3,1.5,0.9,2.5c-0.3,0.8-1.1,1.2-1.9,1.2c-0.8,0-1.6-0.1-2.4-0.1c-0.7,0-1.5,0-2.2-0.1
		c-0.8-0.1-1.3-0.5-1.6-1.2c-0.5-1.3,0.4-2.7,1.8-2.7c0.6,0,1.2,0,1.8,0.1c1,0,2,0.1,3,0.1C175.3,14,175.6,14.1,175.8,14.2z"/>
	<path class="st5" d="M155.6,31.1c0.1-0.2,0.3-0.4,0.4-0.6c1-1.1,2-2.2,3-3.3c0.6-0.7,1.6-0.9,2.3-0.5c0.9,0.5,1.2,1.4,0.9,2.3
		c-0.1,0.3-0.3,0.6-0.5,0.8c-1,1.1-2,2.2-3,3.3c-0.6,0.6-1.3,0.8-2.1,0.6c-1-0.3-1.6-1.5-1.2-2.5C155.6,31.3,155.6,31.2,155.6,31.1z
		"/>
	<path class="st5" d="M168.2,23.6c0.3,0.2,0.6,0.4,0.8,0.7c0.8,1.3,1.5,2.6,2.3,3.9c0.4,0.6,0.4,1.3,0.1,2c-0.4,0.8-1.4,1.2-2.3,0.9
		c-0.5-0.2-0.8-0.4-1.1-0.9c-0.8-1.3-1.5-2.6-2.3-4c-0.3-0.5-0.4-1.1-0.2-1.6c0.3-1,1.4-1.6,2.4-1.2C168,23.5,168.1,23.5,168.2,23.6
		z"/>
	<path class="st5" d="M157.5,4.1c0.6-1.1,2-1.4,3-0.6c1.1,1,2.3,2.1,3.4,3.1c0.7,0.6,0.8,1.6,0.4,2.4c-0.4,0.8-1.5,1.2-2.4,0.9
		c-0.3-0.1-0.5-0.3-0.8-0.5c-1.1-1-2.2-2-3.2-3C157.2,5.8,157.1,4.9,157.5,4.1z"/>
	<path class="st5" d="M150.8,26.8c-0.4,0.9-1.5,1.3-2.4,0.9c-0.3-0.1-0.5-0.3-0.7-0.5c-1.1-1-2.2-2-3.2-3c-0.6-0.6-0.8-1.3-0.6-2.1
		c0.3-1,1.4-1.6,2.5-1.3c0.3,0.1,0.6,0.3,0.8,0.5c1.1,1,2.1,2,3.2,3C151.1,25,151.2,26,150.8,26.8z"/>
</g>
</svg>
