<?xml version="1.0" encoding="utf-8"?>
<!-- Generator: Adobe Illustrator 26.0.3, SVG Export Plug-In . SVG Version: 6.00 Build 0)  -->
<svg version="1.1" id="Capa_1" xmlns="http://www.w3.org/2000/svg" xmlns:xlink="http://www.w3.org/1999/xlink" x="0px" y="0px"
	 viewBox="0 0 180.9 235" style="enable-background:new 0 0 180.9 235;" xml:space="preserve">
<style type="text/css">
	.st0{fill:#FDD00B;}
	.st1{fill:#7659A5;}
	.st2{fill:#533637;}
	.st3{fill:#F1677D;}
	.st4{fill:#51376A;}
	.st5{fill:#FCCAA8;}
	.st6{fill:#EAD76C;}
	.st7{fill:#DBAE4F;}
	.st8{fill:#D8936B;}
	.st9{fill:#F1F9F9;}
	.st10{fill:#A3BDD0;}
	.st11{fill:#94A9B7;}
	.st12{fill:#6B6889;}
	.st13{fill:#7F9AC8;}
	.st14{fill:#BC8B30;}
</style>
<g>
	<path class="st0" d="M9.2,86.2c0.7-1.6,1.4-3.1,2.1-4.6c0.1-0.2,0.3-0.4,0.4-0.6c1-2.1,2.2-4.1,3.4-6.1c5.6-9.2,13-16.9,21.7-23.2
		c9.5-6.9,19.9-11.9,31.1-15.4c9.3-3,19-4.6,28.9-4.6c11.3,0,22.2,2.2,32.9,5.8c1.4,0.4,2.8,0.9,4.1,1.5c2.3,1,4.7,2.1,6.9,3.2
		c0.2,0.2,0.5,0.3,0.7,0.4c1,0.4,2,1,2.9,1.5c5.6,3,10.8,6.6,15.6,10.6c6.4,5.5,11.4,11.8,14.6,19.6c3.6,8.6,4.9,17.5,3.7,26.9
		c-0.8,5.9-2.7,11.6-5.5,16.9c-2.4,4.3-5.4,8.1-8.8,11.5c-5.6,5.7-11.9,10.6-18.3,15.3c-4,3-7.8,6.1-10.7,10.4
		c-3.2,4.6-6.8,9.1-9.6,14c-2.5,4.5-4.4,9.1-5.2,14.3c-1,6.6-3.1,12.9-6.4,18.8c-3,5.5-7,10.2-12,14.1c-5.9,4.7-12.4,8-19.6,10.2
		c-6.6,2-13.2,2.5-20.1,1.2c-6.1-1.1-11.6-3.5-16.9-6.8c-9.6-6-17.7-13.5-24.3-22.6c-4.6-6.3-8.3-13.1-11.4-20.2
		c-3.9-8.7-6.7-17.8-8.3-27.3c-1.7-10.9-1.9-21.8-0.5-32.8c1.2-9.9,3.6-19.4,7-28.7C8.3,88.4,9,87.4,9.2,86.2z"/>
	<path class="st1" d="M39.8,234.8c-0.7,0-1.3,0-2,0c-0.1,0-0.2,0-0.2,0c-0.6,0-1.3-0.1-2-0.2c-2.9-0.3-5.6-1.2-8.2-2.4
		c-2.6-1.2-4.7-2.9-6.2-5.3c-0.6-1-1.2-2-1.7-3c-1.3-2.3-2.6-4.4-4.1-6.5c-0.8-1.2-1.5-2.4-2.1-3.6c-2.5-4.7-4-9.7-4.8-14.9
		c-0.3-1.8-0.5-3.6-0.8-5.3c-0.6-4-1.5-7.9-2.4-11.8c-0.4-1.7-0.7-3.3-0.8-5.1c0-0.3,0-0.6-0.1-0.9c0-0.6,0-1.1,0-1.6
		c0-0.1,0-0.1,0-0.2c0-1.5,0.3-2.9,0.7-4.3c1-3.7,3.1-6.7,6.3-8.9c2.7-1.9,5.7-3.1,8.9-3.6c1.3-0.2,2.7-0.4,4.1-0.3
		c1.8,0.1,3.6,0.3,5.4,0.7c3.2,0.6,6.3,1.7,9.2,3.4c3.8,2.2,6.7,5.3,9,9c1.3,2.2,2.4,4.6,3.3,6.9c1.3,3.4,3.6,6,6.6,8
		c2.2,1.4,4.4,2.6,6.7,3.7c1.8,0.9,3.7,1.7,5.5,2.6c2.5,1.3,4.8,3,6.8,5.1c2.6,2.7,4.3,6,5.1,9.7c0.5,2.2,0.6,4.3,0.2,6.6
		c-0.6,2.9-1.9,5.3-3.9,7.4c-1.9,2-4.1,3.5-6.6,4.6c-3.1,1.4-6.3,2.4-9.5,3.1c-4.4,1-8.6,2.5-12.6,4.7c-2.7,1.5-5.5,2.4-8.6,2.5
		C40.5,234.8,40.2,234.7,39.8,234.8z"/>
	<path class="st2" d="M95.2,151.2c0.9,3,2.9,6.2-0.8,8.8c-0.6,0.1-1,0.3-1.1,0.8c-1.2,0.1-2.2,0.6-3.1,1.5c-4,0.8-6.3,3.9-8.8,6.8
		c-0.3,0-0.5,0.1-0.3,0.4c-0.4,1.3,0.8,2.1,1,3.2c-0.3,0.1-0.6,0.1-1,0.2c-0.1-0.1-0.3-0.2-0.4-0.3c-0.6-2-1.3-1-1.9-0.1
		c-0.6,0.9-1.1,1.8-1.7,2.7c-0.4,0.2-0.8,0.4-1.3,0.6c-2,2.3-4.1,4.5-6.2,6.9c-3.4,3-7.4,5.4-9,10c-0.3,0.8-1.2,1.7-2,1.9
		c-3.2,1.1-4.8,3.7-6.6,6.2c-2.3,3.2-4.7,6.3-7,9.5c-1.2,1.6-2.5,3.2-3.7,4.8c-1.5,1.9-3.1,2-5,0.6c-1.3-1-2.4-2.2-3.2-3.5
		c-3.8-6.2-6.6-12.6-7.6-19.8c-0.7-4.2,0.6-6.4,4.9-8.4c-0.6,2.1-3.4,2.8-3.6,5.2c-0.7,3.7,0.8,7.2,1.8,10.6c1.5,5.1,3.8,9.9,7.4,14
		c1.7,1.9,3.3,2.1,4.8-0.3c1.1-1.8,2.4-3.5,3.8-5.1c4.6-5.3,7.2-12.4,14.1-15.7c0.3-0.2,0.6-0.6,0.8-1c1-3.3,3.7-5.4,6.1-7.6
		c3.8-3.6,7.6-7.2,10.8-11.3c4.7-5.8,9.3-11.7,16.9-14c2.4-0.8,2.1-2.9,1.5-4.8c-0.2-2.9-1.7-3.3-4.1-2.2c-2.9,1.2-5.8,2.4-8.7,3.6
		c2-2.8,4.2-5.3,7.6-5.8c4-0.6,4.3-0.8,3.7-5.2c-0.6-4.3-1.3-4.7-5.2-3c-2.3,1-4.3,2.6-6.9,3c2.3-2.6,5.4-4,8.5-4.9
		c2.9-0.8,2.5-2.1,1.8-4.1c-0.7-1.7-2-1.9-3.6-1.5c-7.5,2-14.4,5.1-21.2,8.7c-0.2-1,0.9-1.6,1.3-2.5c2-0.8,3.4-2.6,5.6-2.9
		c0.5-0.1,1-0.1,1.5-0.1c2.3-1,4.5-2,6.8-2.9c0.8-0.2,1.6-0.4,2.4-0.6c1.8-0.4,1.5-1.7,1.1-2.9c-0.5-1.5-1.6-0.5-2.3-0.2
		c-0.9,0.4-1.7,1.1-2.6,1.7c-0.6,0.3-1.2,0.6-1.8,1c1.3-3.3,4.3-4.1,7.3-4.6c1.8-0.3,2.6-0.7,1.7-2.6c-1.1-3.5-4.5-4.7-8.5-2.6
		c-4.9,2.5-9.2,6-13.8,9.2c-4.3,3-7.4,7-9.8,11.6c-4.7,9-8.7,18.3-12.2,27.7c-1.3,3.7-3.4,6.3-6.8,8c-0.3-0.2-0.4-0.4-0.7-0.6
		c2.4-2.2,5-3.8,6.1-7.4c2.7-8.1,6.2-16,9.9-23.7c0.4-0.8,1.2-1.5,0.4-2.5c3.8-3.1,4.7-8.2,8.7-11.3c-0.8-0.3-1-0.5-1.1-0.4
		c-0.6,0.3-1.1,0.6-1.7,0.8c-3.7,1.3-6.6,6-11.4,2.8c-0.2-0.1-0.8,0.3-1.1,0.4c-2.7,1.4-5.5,1.9-8.5,0.6c-0.4-0.6-1-0.8-1.7-0.6
		c-3.3,0.7-5.5-1-7.3-3.3c-1.1-1.4-2.2-2.9-3.3-4.3c-2.6-4.8-5.5-9.5-4.8-15.4c2-2.5,0.8-5.6,1.7-8.4c0.1-0.1-0.8-0.5-1.2-0.8
		c0.8-0.5,1.7-1,2.5-1.5c3.6-0.1,2.5-3.6,3.8-5.3c0.3-0.2,0.5-0.4,0.8-0.6c0.4,0,0.9,0,1.3,0.1c-1.5,1.3-1.7,2.9-1.3,4.7
		c0.6,3,1.1,6,2.5,8.8c2.8,7.8,6.7,14.9,13,20.6c6.6,5.8,6.5,5.8,14,1.5c2.3-1.3,2.4-2.4,1.1-4.4c-0.8-1.2-1.5-2.5,0.3-3.6
		c7.3-4.9,14.9-9.4,22.9-13.1c2.8-1.3,4.1,1.5,5.9,2.7c1.7,1.2,0.6,2.5-0.1,3.8c2.5-1.2,4.7-2.3,6.8-3.7c1.4-1,1.6-2.4,1.1-4
		c-0.2-0.6-0.6-1.4-1.3-1.1c-2.8,1.4-4.1-0.8-5.6-2.4C81.2,100.9,77,91.9,74.5,82c0.3-1.5-0.6-3.3,0.6-4.6c0.6-0.7,1.6-1.2,0.4-2.2
		c-0.9-0.8-1.8-1.7-3.1-1c-1.4,0.8-2.7,1.5-4.1,2.3c-12.9,7.2-25.7,14.4-38.6,21.5c0.1-1,1.5-1.3,1.3-2.5c0.1-0.2,0.1-0.4-0.1-0.5
		c1.5,0.5,2.4-0.4,3.5-1.1c11.9-6.7,23.9-13.3,35.8-20.1c2.5-1.5,4.5-1.4,6.5,0.7c0.7,0.7,1.1,1.3,2.4,0.8c1.2-0.6,1.1-1.5,0.8-2.4
		c-1.2-3.7,0.4-6.3,2.6-9c5.7-6.8,11.6-13.3,16.4-20.8c0.9-1.4,1.4-2.7,1-4.4c-0.4-2.1-0.4-4.2,0.2-6.3c1-3.9,3.4-5,6.9-3.1
		c4.1,2.2,7.2,5.6,10.1,9.2c8.4,10.3,14.8,21.8,20.3,33.8c4.4,9.7,8.2,19.7,9.8,30.3c0.4,2.3,0.5,4.7,0.2,7
		c-0.6,4.9-3.3,6.2-7.6,3.8c-1.5-0.8-2.9-1.8-4.1-3.1c-1.7-1.9-3.8-2.4-6.2-2.4c-8.5-0.2-16.9,1.3-25.2,2.9
		c-2.3,0.4-4.4,0.6-6.2-1.3c-0.6-0.6-1.2-0.6-2-0.1c-0.6,0.4-0.4,0.8-0.1,1.3c1.8,3,0.3,5-2.1,6.7c-2.4,1.3-4.7,2.7-7.4,4.2
		c1.8,1.3,2.5,3,2.8,4.9c0.4,2.2-1,3.2-2.4,4.4c-0.8,0.6-0.6,2,1,1.7c2.4-0.4,3.8,0.6,5,2.4c0.3,2.7,0.4,5.4,1.5,8
		c0.8,1.9,0.6,4-0.1,5.9C93.8,150.2,94.2,150.7,95.2,151.2z M65,123.8c-0.8,0.2-1.5,0.5-2,1.2c-1,0.3-1.8,0.7-2.4,1.5
		c-0.6,0.3-1.8,0.7-1.4,1.3c0.7,0.9,1.3-0.1,1.9-0.7c1-0.3,1.7-0.8,2.4-1.4c0.6-0.4,1.3-0.8,2-1.3c0.1-0.3,0.5-0.6,0.4-0.6
		C65.7,123.2,65.3,123.5,65,123.8z M29,130.5c-2.7-4.9-5.1-10-7-15.3c-0.6,6.5,2,11.9,6.2,16.6c1.3,2.6,2.8,4.9,6,5.1
		c0.3-0.3,0.6-0.6,0.9-1C33,134.1,31.1,132.3,29,130.5z M78.7,118.2c-1.7,1-3.5,2-5.2,3.1c-4.1,2.4-8.2,4.9-12.3,7.4
		c-2,1.2-0.5,2.3-0.1,3.5c0.4,1,0.9,1.7,2.1,0.7c5-4.3,10.8-7.5,16.1-11.4c1.3,0.4,2.6,0,3.7-0.4c1.8-0.6,3.8-2.3,3.6-4.1
		c-0.3-1.3-2.3-3.5-4.4-2.8c-2.4,0.8-4.8,1.9-7.1,4c1.5,0.3,2.3-0.6,3.3-0.8C79.6,117.2,78.5,118,78.7,118.2z M37.7,129.3
		c0.1-0.4-0.1-0.6-0.4-0.6c-0.8-1.1-1.7-2.2-2.5-3.3c-1.8-3.9-3.5-7.8-5.8-11.5c-0.3-1-0.6-2.1-1-3.1c0.1-0.1,0.1-0.2,0.1-0.3
		c-0.1-0.2-0.2-0.3-0.3-0.4c-0.4-1.7-0.8-3.3-1.2-5.3c-2,2-4.2,3.3-3.6,6.2c1,4.7,2,9.4,4.6,13.5c2.1,5.7,5.9,9.9,11,13
		c2.4,1.5,4.6,0.8,7-0.8c-2.4-2-4.6-4.1-6.9-6.1C38.3,130,38,129.7,37.7,129.3z M85.2,84l0.1,0.2c0,1.9,2,3.3,1.1,5.3
		c-2.8-3.4-3.6-7.7-5.2-11.7c-0.3-0.7-0.1-1.8-1.5-1.6c-2.9,0.4-4.5,2.6-4,5.5c1.9,9.7,6.4,18.2,13,25.5c3.2,3.5,3.5,3.5,7.5,0.4
		c-1.4-2.1-3.2-4-4-6.5c2.8,1.4,3.6,4.6,5.8,6.6c1.6,1.5,3,2.3,5.4,1.8c8.3-1.7,16.7-3.3,25.2-3.2c0.6,0,1.4,0.2,1.7-0.6
		c0.4-1-0.4-1.5-1-2.2c-12.9-17-22.4-35.7-28-56.3c-0.8-2.7-1.7-2.6-3.1-0.4C93.2,53,88.2,59.2,83,65.3c-2.2,2.6-2.5,5.3-1.7,8.3
		c0.9,3.2,2,6.3,3.1,9.4C84.5,83.6,84.8,83.8,85.2,84z M146.5,106.1c-0.2-1.5-0.3-3.1-0.6-4.8c-5.2-24-16-45.2-31.5-64.2
		c-2.2-2.7-4.8-5.2-8-6.8c-2.9-1.5-4.7-0.5-5.2,2.7c-0.4,2.6-0.3,5.3,0.3,7.9c3.6,19,11.8,35.9,22,52c4.1,6.4,8.3,12.6,14.3,17.5
		c1.9,1.6,4.1,3.8,6.8,2.5C147,111.8,146.2,108.8,146.5,106.1z M75.2,119c-0.2-0.3-0.4-0.6-0.6-0.8c-2.9,1.3-5.6,2.9-8.2,4.7
		c0.2,0.3,0.3,0.6,0.5,0.8C69.7,122.2,72.4,120.5,75.2,119z"/>
	<path class="st3" d="M144.2,63.5c3.6-4.6,7-8.8,10.5-13.1c3.3-4.2,6.6-8.3,10-12.4c2.2-2.6,3.3-2.5,5,0.3c3.6,5.5,7,11.2,10.6,16.7
		c0.8,1.3,1.1,2.1-1,2.4c-11.3,2-22.5,4.1-33.7,6.2C145.3,63.6,145,63.6,144.2,63.5z"/>
	<path class="st3" d="M135.6,43.6c-1.1-2.1-0.3-3.3,0-4.6c2.8-12.2,5.8-24.5,8.5-36.7c0.5-2.4,1.2-2.7,3.3-1.6
		c3.6,1.9,7.3,3.5,10.9,5.2c1.3,0.6,1.7,1.2,0.8,2.4C151.4,20.1,143.7,31.7,135.6,43.6z"/>
	<path class="st3" d="M156,82.6c7.6-0.7,15.2-0.5,22.7-0.1c1.2,0.1,1.5,0.4,1.5,1.7c-0.4,6.6-1.1,7.1-7,4.9
		C167.4,86.8,161.7,84.7,156,82.6z"/>
	<path class="st4" d="M85.3,179.2c-0.4,0-0.8,0-1.1,0.1c-0.7-1.3-0.8-3-2.3-4c-0.3-0.8-0.5-1.5-0.8-2.3c0.3-0.1,0.6-0.1,1-0.2
		c1.3,1.2,1.4,3.1,3.1,4c0.7,1,1.5,0.4,2.2,0c2-1.1,4-2.3,6-3.5c2.1-1.2,2.9-2.7,2-5.2c-0.9-2.4-1.3-4.9-2-7.3
		c0.2-0.5,0.6-0.8,1.1-0.8c0.8,2.8,1.3,5.6,2.3,8.3c0.8,2.6,0.1,4.3-2,5.8C91.8,176.2,88.6,177.9,85.3,179.2z"/>
	<path class="st5" d="M36.7,179.9c3.4-1.7,5.4-4.4,6.8-8c3.5-9.5,7.6-18.7,12.2-27.7c2.4-4.6,5.5-8.6,9.8-11.6
		c4.5-3.2,8.9-6.7,13.8-9.2c4-2.1,7.3-0.9,8.5,2.6c-3.8-0.6-7,0.5-9.9,2.9c-1.8,1.5-3.9,2.9-5.9,4.2c-2.7,1.7-3.8,4-3.8,7.1
		c-0.4,0.9-1.5,1.5-1.3,2.5c6.8-3.6,13.8-6.7,21.2-8.7c1.6-0.4,2.9-0.3,3.6,1.5c-0.3,1.7-1.7,1.7-2.9,2.1c-4.7,1.7-8.9,4-12.7,7.1
		c-2.1,1.7-2.8,3.8-2.1,6.7c2.4-2.1,3.8-4.7,6.2-6.4c0.4-0.2,0.8-0.3,1.1-0.5l-0.1,0.1c2.5-0.4,4.6-2,6.9-3c3.9-1.7,4.6-1.3,5.2,3
		c-5.9,1.1-10.4,4.6-14.8,8.3c-1.1,0.9-1.5,2.2-1.7,3.7c-0.5,3.3-1.2,6.7-3.3,9.5c-3.6,5.1-6.9,10.4-10.5,15.6
		c-1.3,1.9-2.9,3.3-5.2,4c-1.3,0.4-2.5,1.2-3,2.6c-3.1,7.9-9.9,11.9-16.3,16.5c-1.4,1-2.7,0.6-3.5-0.8c-1.5-2.6-2.8-5.3-4.3-7.8
		c-1.3-2.2-1.7-5.1-4-6.7c0.2-2.4,3-3.1,3.6-5.2h-0.1C32.8,183.4,34.6,181.5,36.7,179.9z"/>
	<path class="st6" d="M29.6,98.2c12.9-7.2,25.7-14.4,38.6-21.5c1.4-0.8,2.7-1.6,4.1-2.3c1.3-0.7,2.2,0.2,3.1,1
		c1.2,1,0.3,1.5-0.4,2.2c-1.2,1.3-0.3,3.1-0.6,4.6c-0.4,2.4-0.1,4.6,0.6,6.9c1.5,5.1,3.7,9.9,5.7,14.9c1,2.3,0.4,3.9-1.6,5.1
		c-8.7,5.3-17.8,9.7-27.3,13.2c-2,0.7-3.7,0.6-5.5-0.4c-4.8-2.6-9.2-5.9-13.6-9.2c-0.8-0.6-1.3-1.5-2.4-0.7
		c-1.3-2.8-1.9-5.8-2.5-8.8c-0.3-1.8-0.1-3.4,1.3-4.7C29.3,98.5,29.5,98.4,29.6,98.2z"/>
	<path class="st6" d="M84.5,83.1c-1-3.1-2.2-6.2-3.1-9.4c-0.8-2.9-0.4-5.8,1.7-8.3c5.2-6.1,10.1-12.3,15.2-18.5
		c-1,2.5-0.1,5.1,0.1,7.6c0.5,7.2,1.8,14.4,5,20.9c3.3,6.7,6.6,13.3,11.1,19.4c1.2,1.6,1.7,2.9-1.3,3.3c-3.3,0.3-6.4,1.2-9.6,1.7
		c-1.6,0.3-3.1,0.1-4.4-1.2c-4-4-7.8-8.1-11.3-12.5c-0.6-0.8-1.1-2.2-2.7-1.7L85.2,84C85.6,83.3,85,83.2,84.5,83.1z"/>
	<path class="st7" d="M85.4,84.2c1.6-0.5,2,0.9,2.7,1.7c3.6,4.4,7.3,8.5,11.3,12.5c1.3,1.3,2.8,1.5,4.4,1.2c3.3-0.5,6.4-1.4,9.6-1.7
		c3-0.3,2.5-1.6,1.3-3.3c-4.5-6-7.8-12.6-11.1-19.4c-3.3-6.6-4.5-13.7-5-20.9c-0.2-2.5-1.1-5-0.1-7.6c1.3-2.1,2.4-2.2,3.1,0.4
		c5.6,20.6,15,39.3,28,56.3c0.5,0.6,1.3,1.2,1,2.2c-0.3,0.7-1.1,0.6-1.7,0.6c-8.5-0.1-16.9,1.5-25.2,3.2c-2.4,0.4-3.8-0.3-5.4-1.8
		c-2.1-2.1-3-5.2-5.8-6.6c-2-3.9-4-7.8-6-11.7C87.3,87.5,85.4,86.1,85.4,84.2z"/>
	<path class="st8" d="M26.7,189.5c2.2,1.7,2.7,4.5,4,6.7c1.5,2.6,2.9,5.3,4.3,7.8c0.8,1.5,2.1,1.8,3.5,0.8
		c6.4-4.5,13.3-8.6,16.3-16.5c0.5-1.4,1.7-2.2,3-2.6c2.3-0.6,4-2.2,5.2-4c3.6-5.2,6.9-10.4,10.5-15.6c2-2.9,2.7-6.2,3.3-9.5
		c0.3-1.4,0.6-2.8,1.7-3.7c4.4-3.7,8.9-7.2,14.8-8.3c0.6,4.4,0.3,4.5-3.7,5.2c-3.4,0.5-5.7,3.1-7.6,5.8c0.9,1.7,2.2,0.4,3.3,0.3
		c3.2-0.3,6.4-1,9.6-1.6c0.7,2,1,4.1-1.5,4.8c-7.6,2.4-12.2,8.2-16.9,14c-3.3,4.1-7.1,7.7-10.8,11.3c-2.4,2.2-5,4.3-6.1,7.6
		c-0.1,0.4-0.4,0.8-0.8,1c-6.9,3.3-9.5,10.4-14.1,15.7c-1.4,1.6-2.6,3.3-3.8,5.1c-1.6,2.4-3.2,2.2-4.8,0.3c-3.6-4.1-5.9-8.9-7.4-14
		C27.5,196.7,26,193.2,26.7,189.5z"/>
	<path class="st7" d="M30.2,112c1.1-0.8,1.7,0.1,2.4,0.7c4.4,3.3,8.8,6.6,13.6,9.2c1.8,1,3.5,1.1,5.5,0.4
		c9.6-3.5,18.7-7.9,27.3-13.2c2-1.2,2.5-2.8,1.6-5.1c-2-4.9-4.1-9.7-5.7-14.9c-0.7-2.3-1-4.6-0.6-6.9C77,92,81.2,101,88.4,108.4
		c1.5,1.5,2.7,3.8,5.6,2.4c0.7-0.4,1.1,0.4,1.3,1.1c0.5,1.5,0.3,3.1-1.1,4c-2.1,1.4-4.3,2.6-6.8,3.7c0.7-1.3,1.8-2.7,0.1-3.8
		c-1.8-1.2-3.1-4-5.9-2.7c-8,3.8-15.5,8.3-22.9,13.1c-1.7,1.1-1,2.4-0.3,3.6c1.3,2,1.1,3.1-1.1,4.4c-7.6,4.2-7.5,4.3-14-1.5
		C36.9,127,33,119.8,30.2,112z"/>
	<path class="st9" d="M146.5,106.1c-0.3,2.6,0.6,5.6-2,6.9c-2.7,1.3-4.8-1-6.8-2.5c-5.9-4.9-10.2-11.1-14.3-17.5
		C113.2,77,105,60,101.4,41c-0.5-2.6-0.6-5.3-0.3-7.9c0.5-3.2,2.3-4.2,5.2-2.7c3.2,1.6,5.7,4,8,6.8c15.5,18.9,26.3,40.2,31.5,64.2
		C146.2,103,146.3,104.7,146.5,106.1z M103.7,37.2c0.2,1.4,0.3,3.1,0.7,4.8c6.1,22.4,16.2,42.8,30.3,61.1c1.4,1.9,3.1,3.6,5.1,4.8
		c2.5,1.6,4,0.8,4.3-2.2c0.3-3.1-0.4-6.2-1.3-9.1C136.9,76.5,127.5,58,115.3,41c-1.8-2.5-3.8-4.9-6.3-6.8c-1.2-0.9-2.4-2-4-1.2
		C103.6,34,103.9,35.6,103.7,37.2z"/>
	<path class="st10" d="M44.9,210.6c3,1.8,2.4,9.4,0,11.1c-1.5,1-3.1,0.7-4.5-0.2c-2.7-1.9-5.8-3.1-8.8-4.4c-8.7-4-13.1-13.4-11-22.7
		c0.4-1.9,0.9-3.7,1.3-5.6c1.7-6.9,2.4-7.4,9.3-6.6c-0.4,0.7-0.7,1.4-1.1,2.1h0.1c-4.3,2-5.6,4.2-4.9,8.4c1.1,7.1,4,13.7,7.6,19.8
		c0.8,1.3,1.8,2.6,3.2,3.5c1.8,1.3,3.5,1.3,5-0.6C42.4,213.7,43.7,212.2,44.9,210.6z M28.8,210.7c-1.4-3.7-2.9-7.4-4.5-11.1
		C23.6,204.2,24.9,208,28.8,210.7z"/>
	<path class="st9" d="M86.4,89.5c2,3.9,4,7.8,6,11.7c0.8,2.5,2.5,4.4,4,6.5c-4,3-4.3,3.1-7.5-0.4c-6.7-7.3-11.2-15.8-13.1-25.5
		c-0.6-2.9,1.1-5.1,4-5.5c1.4-0.2,1.1,0.9,1.5,1.6C82.7,81.8,83.6,86.1,86.4,89.5z"/>
	<path class="st9" d="M34.7,125.4c0.8,1.1,1.7,2.2,2.5,3.3c0.1,0.2,0.3,0.4,0.4,0.6c0.3,0.4,0.6,0.8,1,1.2c-1.6,3-1.8,3-4.2,0.8
		c-2.4-2.2-4.2-5.1-6.9-7c-2.5-4.2-3.6-8.8-4.6-13.5c-0.6-2.9,1.6-4.2,3.6-6.2c0.4,2,0.8,3.7,1.2,5.3c0,0.1-0.1,0.2-0.1,0.3
		c0.1,0.2,0.2,0.3,0.3,0.4c0.3,1,0.6,2.1,1,3.1C28.1,117.2,30.8,122.6,34.7,125.4z"/>
	<path class="st9" d="M85.1,176.8c-1.7-0.8-1.8-2.8-3.1-4c-0.1-1.1-1.3-1.9-1-3.2c0.2-0.1,0.3-0.3,0.3-0.4c2.5-2.8,4.8-6,8.8-6.8
		c-0.1,2.1,0.8,4,1.4,5.8c0.9,2.6-0.1,3.9-2,5.3C88.1,174.6,86.1,175,85.1,176.8z"/>
	<path class="st9" d="M79.2,121.4c-5.3,3.8-11.1,7.1-16.1,11.4c-1.1,1-1.7,0.3-2.1-0.7c-0.4-1.1-2-2.2,0.1-3.5
		c4.1-2.4,8.2-4.9,12.3-7.4c1.7-1,3.5-2.1,5.2-3.1C79.7,119.1,79,120.4,79.2,121.4z"/>
	<path class="st8" d="M68,140.3c0-3.1,1.1-5.4,3.8-7.1c2.1-1.2,4.1-2.6,5.9-4.2c2.9-2.4,6.2-3.5,9.9-2.9c1,1.9,0.1,2.2-1.7,2.6
		c-3,0.5-6.1,1.3-7.3,4.6v-0.1c-2.5,0.1-4.1,1.5-5,3.8c0,0.2,0,0.4-0.1,0.5C71.5,137.7,70,139.6,68,140.3z"/>
	<path class="st11" d="M27.6,124.3c2.7,1.9,4.5,4.7,6.9,7c2.4,2.2,2.7,2.2,4.2-0.8c2.3,2,4.5,4,6.9,6.1c-2.4,1.6-4.6,2.2-7,0.8
		C33.5,134.2,29.7,130,27.6,124.3z"/>
	<path class="st8" d="M80.1,145.2c-2.4,1.7-3.9,4.3-6.2,6.4c-0.7-2.9,0-5.1,2.1-6.7c3.9-3,8.1-5.4,12.7-7.1c1.1-0.4,2.6-0.4,2.9-2.1
		c0.8,2,1.1,3.3-1.8,4.1c-3.1,0.8-6.2,2.3-8.5,4.9l0.1-0.1C80.9,144.8,80.5,145,80.1,145.2z"/>
	<path class="st11" d="M85.1,176.8c1-1.7,3-2.2,4.5-3.3c1.9-1.4,2.9-2.7,2-5.3c-0.6-1.9-1.5-3.7-1.4-5.8c0.9-0.8,1.8-1.4,3.1-1.5
		c0.6,2.4,1.1,4.9,2,7.3c0.9,2.5,0.1,4-2,5.2c-2,1.2-4,2.4-6,3.5C86.6,177.1,85.8,177.8,85.1,176.8z"/>
	<path class="st11" d="M79.2,121.4c-0.3-1,0.4-2.2-0.6-3.1c-0.2-0.3,1-1.1-0.3-0.8c-1,0.2-1.8,1.2-3.3,0.8c2.2-2.1,4.7-3.1,7.1-4
		c2.2-0.8,4.2,1.5,4.4,2.8c0.3,1.7-1.7,3.5-3.6,4.1C81.9,121.4,80.6,121.8,79.2,121.4z"/>
	<path class="st9" d="M28.2,131.8c-4.3-4.7-6.8-10.1-6.2-16.6c1.9,5.3,4.3,10.4,7,15.3C28.8,130.9,28.5,131.4,28.2,131.8z"/>
	<path class="st5" d="M94.7,154.3c-3.2,0.6-6.3,1.2-9.6,1.6c-1,0.1-2.3,1.5-3.3-0.3c2.9-1.2,5.8-2.4,8.7-3.6
		C92.9,151.1,94.5,151.4,94.7,154.3z"/>
	<path class="st11" d="M34.7,125.4c-3.9-2.7-6.6-8.2-5.8-11.5C31.2,117.5,32.9,121.4,34.7,125.4z"/>
	<path class="st11" d="M28.2,131.8c0.3-0.4,0.6-0.9,0.8-1.3c2,1.8,4,3.6,6.1,5.4c-0.3,0.3-0.6,0.6-0.9,1
		C31,136.8,29.5,134.4,28.2,131.8z"/>
	<path class="st9" d="M78.7,133.2c0.6-0.3,1.2-0.6,1.8-1c1,0.4,1.2,1.2,1.4,2.1c-2.3,1-4.5,2-6.8,2.9c-0.1-0.2-0.2-0.3-0.4-0.4
		C76.1,135.7,77.4,134.4,78.7,133.2C78.7,133.1,78.7,133.2,78.7,133.2z"/>
	<path class="st11" d="M82,134.4c-0.2-0.9-0.4-1.7-1.4-2.1c0.8-0.6,1.7-1.2,2.6-1.7c0.7-0.3,1.8-1.3,2.3,0.2
		c0.4,1.2,0.7,2.5-1.1,2.9C83.6,133.9,82.7,134.2,82,134.4z"/>
	<path class="st4" d="M30.3,184.4c0.4-0.7,0.7-1.4,1.1-2.1c1.9-0.4,2.9-2.2,4.7-2.9c0.3,0.2,0.4,0.4,0.7,0.6
		C34.6,181.5,32.8,183.4,30.3,184.4z"/>
	<path class="st11" d="M75.2,119c-2.7,1.6-5.5,3.2-8.2,4.7c-0.2-0.3-0.3-0.6-0.5-0.8c2.5-1.9,5.3-3.4,8.2-4.7
		C74.8,118.4,75,118.7,75.2,119z"/>
	<path class="st11" d="M60.6,126.4c0.6-0.7,1.5-1.2,2.4-1.5c0.2,0.2,0.4,0.4,0.5,0.6c-0.7,0.7-1.5,1.2-2.4,1.4
		C61,126.9,60.8,126.6,60.6,126.4z"/>
	<path class="st11" d="M61.1,127.1c-0.5,0.6-1.2,1.6-1.9,0.7c-0.4-0.6,0.8-1,1.4-1.3C60.8,126.6,61,126.9,61.1,127.1z"/>
	<path class="st4" d="M80.6,172.7c-0.6,0-1.3,0-1.9,0C79.4,171.8,80,170.8,80.6,172.7z"/>
	<path class="st11" d="M65.6,124.3c-0.6,0.4-1.3,0.8-2,1.3c-0.2-0.2-0.4-0.4-0.5-0.6c0.5-0.7,1.2-1,2-1.2
		C65.2,123.9,65.4,124.1,65.6,124.3z"/>
	<path class="st7" d="M84.5,83.1c0.4,0.1,1.1,0.1,0.7,1C84.8,83.8,84.5,83.6,84.5,83.1z"/>
	<path class="st9" d="M73.6,137.4c0-0.2,0-0.4,0.1-0.5c0.4,0,0.8,0,1.1-0.1c0.1,0.1,0.3,0.3,0.4,0.4
		C74.7,137.3,74.1,137.4,73.6,137.4z"/>
	<path class="st11" d="M28,110.7c-0.1-0.1-0.2-0.3-0.3-0.4c0-0.1,0.1-0.2,0.1-0.3c0.1,0.1,0.2,0.3,0.3,0.4
		C28.1,110.5,28,110.6,28,110.7z"/>
	<path class="st4" d="M81.4,169.1c0,0.2-0.1,0.4-0.3,0.4C80.8,169.2,81.1,169.1,81.4,169.1z"/>
	<path class="st11" d="M65,123.8c0.3-0.3,0.6-0.6,1-0.1c0.1,0.1-0.3,0.4-0.4,0.6C65.4,124.1,65.2,123.9,65,123.8z"/>
	<path class="st11" d="M37.7,129.3c-0.1-0.2-0.3-0.4-0.4-0.6C37.6,128.7,37.8,128.9,37.7,129.3z"/>
	<path class="st4" d="M13,96.8c-0.3,0.1-0.6,0.1-0.9,0.1C12.5,96.9,12.8,96.9,13,96.8z"/>
	<path class="st12" d="M25.8,99.1c0.4,0,0.8-0.1,1.2-0.1C26.6,99.1,26.2,99.1,25.8,99.1z M25.4,99.4c-0.3,0.1-0.6,0.3-0.9,0.3
		C24.8,99.7,25.1,99.5,25.4,99.4z"/>
	<path class="st2" d="M80.1,145.2c0.4-0.2,0.8-0.3,1.1-0.5C80.9,144.8,80.5,145,80.1,145.2z"/>
	<path class="st2" d="M103.7,37.2c0.2-1.6-0.1-3.2,1.3-4c1.6-0.9,2.8,0.3,4,1.2c2.5,1.9,4.5,4.2,6.3,6.8
		c12.2,17,21.5,35.4,27.4,55.6c0.9,2.9,1.6,6,1.3,9.1c-0.3,3-1.8,3.7-4.3,2.2c-2-1.3-3.6-2.9-5.1-4.8
		c-14.1-18.4-24.2-38.8-30.3-61.1C104,40.4,103.9,38.6,103.7,37.2z M143.2,104.1c-1.1-4.3-2-8.7-3.4-12.9
		c-3.8-11.7-9.2-22.6-15-33.3c-4.1-7.4-8.7-14.6-14.4-20.9c-1.1-1.3-2.7-3.3-4.4-2.5c-2,1-1,3.4-0.6,5.3c1.5,8.4,4.6,16.3,8,24.1
		c0.9,2.1,1.5,4.2,4.5,3.9c1.3-0.1,2.2,1.3,2.9,2.3c1.6,2.3,2.7,4.8,3.6,7.4c0.3,1.1,0.5,2.2-0.3,3.1c-1.8,1.9-0.8,3.5,0.2,5.1
		c0.8,1.3,1.5,2.6,2.3,3.8c3.7,5.8,7.5,11.6,12.6,16.3c0.8,0.7,1.6,2.1,2.9,1.3C143.2,106.5,143,105.3,143.2,104.1z M121.7,81.1
		c2.7-2.5,0.7-4.5-0.1-6.3c-1.1-2.2-1.7-5.1-4.5-5.8c-1.5-0.4-1,0.9-0.7,1.6C118.1,74.1,119.8,77.5,121.7,81.1z"/>
	<path class="st13" d="M28.8,210.7c-3.8-2.8-5.2-6.5-4.5-11.1C25.8,203.3,27.4,207,28.8,210.7z"/>
	<path class="st2" d="M74.8,136.8c-0.4,0-0.8,0-1.1,0.1c1-2.2,2.5-3.7,5-3.8C77.4,134.4,76.1,135.6,74.8,136.8z"/>
	<path class="st14" d="M143.2,104.1c-0.3,1.2-0.1,2.4-1.1,3c-1.3,0.8-2.2-0.6-2.9-1.3c-5.1-4.7-8.9-10.4-12.6-16.3
		c-0.8-1.3-1.5-2.6-2.3-3.8c-1-1.7-2-3.3-0.2-5.1c0.8-0.8,0.6-2,0.3-3.1c-0.8-2.6-2-5.2-3.6-7.4c-0.7-1-1.6-2.4-2.9-2.3
		c-3,0.3-3.6-1.8-4.5-3.9c-3.4-7.8-6.4-15.7-8-24.1c-0.3-1.9-1.3-4.2,0.6-5.3c1.7-0.8,3.3,1.2,4.4,2.5c5.8,6.3,10.3,13.5,14.4,20.9
		c5.9,10.7,11.3,21.6,15,33.3C141.2,95.5,142.1,99.9,143.2,104.1z"/>
	<path class="st11" d="M121.7,81.1c-1.8-3.7-3.6-7-5.3-10.4c-0.3-0.7-0.8-2,0.7-1.6c2.8,0.7,3.4,3.5,4.5,5.8
		C122.4,76.7,124.4,78.6,121.7,81.1z"/>
</g>
</svg>
